<?xml version="1.0" encoding="utf-8"?>
<!-- Generator: Adobe Illustrator 15.1.0, SVG Export Plug-In . SVG Version: 6.00 Build 0)  -->
<!DOCTYPE svg PUBLIC "-//W3C//DTD SVG 1.1//EN" "http://www.w3.org/Graphics/SVG/1.1/DTD/svg11.dtd">
<svg version="1.1" id="Layer_1" xmlns="http://www.w3.org/2000/svg" xmlns:xlink="http://www.w3.org/1999/xlink" x="0px" y="0px"
	 width="1000px" height="500px" viewBox="0 0 1000 500" enable-background="new 0 0 1000 500" xml:space="preserve">
<path fill="#FE4225" d="M26.694,57.481c-0.133-0.086-0.266-0.173-0.399-0.259c-0.745-1.287-0.553-2.712-0.433-4.061
	c0.202-2.263,0.129-4.521,0.148-6.78c0.024-2.837-0.046-5.674,0.024-8.509c0.048-1.983,0.043-3.984,0.597-5.921
	c0.363-0.882,1.187-0.823,1.925-0.939c2.464,1.079,4.834,2.343,7.183,3.653c1.177,0.656,2.426,1.166,3.66,1.703
	c3.822,1.666,7.75,3.096,11.397,5.149c0.412,0.232,0.847,0.413,1.323,0.479c0.384,0.054,0.723,0.181,0.841,0.609
	c0.022,0.119-0.024,0.197-0.139,0.236c-1.402,1.522-3.439,1.992-5.111,3.072c-3.977,2.571-8.208,4.693-12.336,6.999
	c-2.096,1.171-4.089,2.655-5.95,4.229c-0.423,0.358-0.94,0.072-1.259,0.47C27.64,57.973,27.167,57.719,26.694,57.481"/>
<path fill="#3C8BA7" d="M26.966,31.661c-0.566,2.371-0.663,4.792-0.646,7.207c0.037,4.949,0.155,9.897-0.177,14.841
	c-0.079,1.179-0.005,2.346,0.151,3.513c-1.01-0.221-1.882-0.755-2.655-1.386c-2.29-1.869-4.878-3.238-7.469-4.61
	c-2.499-1.324-4.978-2.687-7.502-3.957c-1.222-0.615-2.53-1.058-3.799-1.579c-0.244-0.203-0.339-0.473-0.349-0.78
	c0.036-0.388,0.34-0.565,0.605-0.775c0.295-0.237,0.606-0.452,0.915-0.671c1.922-1.423,3.997-2.629,5.844-4.158
	c0.965-0.798,2.113-1.312,3.188-1.939c3.001-1.75,5.671-3.995,8.65-5.783c0.923-0.555,1.897-1.019,2.795-1.617
	c0.196-0.069,0.393-0.077,0.59-0.005c0.333,0.181,0.496,0.469,0.531,0.838C27.551,31.193,27.112,31.313,26.966,31.661"/>
<path fill="#67B1C6" d="M29.142,2.64c0.251,0.208,0.392,0.506,0.722,0.665c3.792,1.819,7.341,4.081,11.02,6.106
	c1.497,0.824,3.107,1.436,4.512,2.429c-0.507,0.3-0.704,0.65-0.333,1.224c0.23,0.357,0.149,0.778-0.065,1.157
	c-1.473,2.6-3.501,4.634-6.004,6.281c-1.475,0.971-2.957,1.955-4.283,3.168c-0.981,0.897-2.314,1.348-3.469,2.036
	c-0.663,0.394-1.369,0.696-1.942,1.239c-0.285,0.27-0.62,0.603-1.022,0.12c-0.269-0.464-0.218-0.977-0.23-1.479
	c-0.139-5.783,0.167-11.561,0.278-17.34c0.029-1.497-0.169-3,0.028-4.494C28.548,3.333,28.825,2.973,29.142,2.64"/>
<path fill="#F1BA4B" d="M51.272,16.75c0.343,0.454,0.26,0.995,0.172,1.465c-0.405,2.162,0.068,4.299,0.135,6.443
	c0.082,2.624,0.32,5.241,0.49,7.861c-1.871-0.996-3.75,0.024-5.625-0.011c-2.114-0.04-4.178,0.775-6.333,0.322
	c-0.924-0.194-1.803-0.525-2.743-0.681c-2.017-0.334-4.092-0.508-5.912-1.597c-0.259-0.155-0.554-0.249-0.775-0.465
	c-0.357-0.519,0.127-0.667,0.416-0.812c3.507-1.776,6.444-4.452,9.909-6.287c3.321-1.76,6.379-3.917,9.444-6.072
	C50.688,16.75,50.943,16.53,51.272,16.75"/>
<path fill="#E89726" d="M30.584,29.859c1.251,0.522,2.483,1.096,3.761,1.542c0.55,0.191,1.206,0.054,1.791,0.174
	c1.658,0.338,3.299,0.759,4.958,1.09c0.518,0.103,1.098,0.131,1.605,0.009c2.519-0.604,5.139-0.355,7.658-0.953
	c0.731-0.173,1.293,0.207,1.712,0.799c0.158,0.922,0.36,1.839,0.464,2.768c0.235,2.105,0.903,4.106,1.398,6.149
	c0.061,0.812-0.771,0.783-1.13,1.199c-0.339-0.705-1.09-0.298-1.616-0.6c-1.105-0.633-2.247-1.211-3.401-1.765
	c-3.612-1.731-7.402-3.047-11.003-4.793c-1.961-0.952-3.864-2.023-5.788-3.051c-0.799-0.427-1.696-0.658-2.422-1.228
	c-0.142-0.122-0.162-0.278-0.133-0.45c0.186-0.414,0.447-0.767,0.834-1.018C29.728,29.599,30.177,29.522,30.584,29.859"/>
<path fill="#3D8CA8" d="M30.584,29.859c-0.45,0.013-0.9,0.025-1.351,0.039c-0.683-0.171-0.68-0.917-1.099-1.311
	c-0.014-0.495,0.025-0.974,0.431-1.333c1.518-1.454,3.384-2.351,5.255-3.218c0.851-0.395,1.417-1.124,2.071-1.696
	c0.86-0.753,1.849-1.336,2.766-1.915c1.648-1.041,2.985-2.365,4.364-3.679c0.843-0.804,1.062-2.015,1.89-2.84
	c0.206-0.206,0.073-0.624-0.131-0.939c-0.597-0.919-0.522-1.039,0.617-1.126c1.685,0.964,3.613,1.494,5.09,2.832
	c0.529,0.514,0.996,1.06,0.967,1.863c-0.06,0.072-0.12,0.144-0.181,0.216c-1.562,1.047-3.156,2.05-4.68,3.15
	c-2.792,2.015-5.967,3.392-8.785,5.354C35.461,26.887,33.139,28.553,30.584,29.859"/>
<path fill="#E8B449" d="M6.069,43.692c-0.279,0.201-0.558,0.402-0.837,0.603c-0.46,0.172-0.901,0.234-1.245-0.229
	c-0.033-0.113-0.047-0.228-0.042-0.345c-0.066-0.891,0.312-1.708,0.421-2.574c0.492-3.884-0.016-7.72-0.519-11.551
	c-0.289-2.199-0.627-4.393-0.937-6.59c-0.108-0.769-0.337-1.502-0.636-2.216c-0.111-0.333-0.096-0.615,0.3-0.744
	c0.085-0.634,0.054-1.339,0.909-1.513c0.481-0.085,0.918,0.093,1.364,0.222c2.997,0.965,5.723,2.529,8.572,3.822
	c2.081,0.945,4.22,1.769,6.296,2.74c0.889,0.416,1.707,0.95,2.593,1.36c1.378,0.732,2.782,1.413,4.214,2.033
	c0.282,0.243,0.556,0.499,0.85,0.73c0.098,0.269-0.003,0.466-0.221,0.623c-0.188,0.008-0.377,0.017-0.565,0.025
	c-0.505,0.282-1.019,0.22-1.535,0.034c-1.258-1.076-2.837-1.542-4.305-2.198c-2.681-1.198-5.269-2.586-7.931-3.822
	c-2.478-1.149-4.974-2.264-7.427-3.466c-0.506-0.248-1.038-0.475-1.726-0.295c1.107,1.261,1.157,2.804,1.389,4.275
	c0.446,2.832,0.9,5.663,1.226,8.511c0.129,1.133-0.049,2.303,0.41,3.397c-0.155,1.772-0.073,3.55-0.165,5.322
	C6.49,42.483,6.312,43.1,6.069,43.692"/>
<path fill="#F56B49" d="M23.906,5.553c1.067-0.409,1.723-1.454,2.819-1.817c0.184,0.015,0.321,0.11,0.435,0.248
	c0.363,0.8,0.415,1.599-0.014,2.393c-0.601-0.44-1.072-0.245-1.623,0.19c-4.85,3.831-10.262,6.764-15.655,9.726
	c-0.482,0.264-0.903,0.578-1.235,1.014c-1.165,0.807-2.413,1.406-3.85,1.531c-0.335-0.214-1.055,0.074-0.945-0.723
	c2.693-1.809,5.468-3.484,8.307-5.054c3.405-2.004,6.873-3.911,10.049-6.279C22.757,6.362,23.391,6.04,23.906,5.553"/>
<path fill="#F1BA4B" d="M2.276,20.79c1.009,1.067,0.928,2.481,1.14,3.776C3.873,27.37,4.345,30.18,4.6,33.006
	c0.328,3.64,0.609,7.306-0.565,10.88c-0.039,0.002-0.078,0.003-0.117,0.005c-0.124-0.309-0.272-0.595-0.198-0.964
	c0.706-3.487,0.125-6.96-0.112-10.441c-0.21-3.084-0.671-6.138-0.984-9.208C2.539,22.445,2.394,21.619,2.276,20.79"/>
<path fill="#FE6E4A" d="M23.906,5.553c-1.217,1.417-2.804,2.377-4.344,3.36c-2.201,1.404-4.498,2.658-6.747,3.987
	c-0.219,0.129-0.434,0.163-0.67,0.161c2.721-2.205,5.819-3.838,8.734-5.75C21.852,6.673,22.786,5.947,23.906,5.553"/>
<path fill="#B6B2A9" d="M26.951,3.975c-0.075-0.08-0.15-0.16-0.225-0.24c0.754-0.79,1.388-1.629,1.241-2.82
	c-0.024-0.196,0.007-0.463,0.241-0.489c0.321-0.036,0.312,0.269,0.349,0.488c0.101,0.608-0.294,1.383,0.586,1.726
	c0.063,0.476-0.022,0.852-0.604,0.892C28.075,3.916,27.601,4.26,26.951,3.975"/>
<path fill="#B5B2A9" d="M51.453,16.534c-0.509-0.524-0.565-1.283-0.967-1.863c0.821,0.457,1.541,0.139,2.252-0.287
	c0.44-0.264,0.828-0.686,1.721-0.481C53.211,14.702,52.457,15.745,51.453,16.534"/>
<path fill="#B9B5AB" d="M52.802,42.635c-0.16-0.905,1.004-0.562,1.13-1.199c0.235,0.729,0.786,1.115,1.465,1.377
	c0.207,0.08,0.536,0.167,0.45,0.442c-0.106,0.34-0.444,0.188-0.691,0.138c-0.784-0.158-1.512-0.553-2.334-0.552
	C52.814,42.772,52.808,42.704,52.802,42.635"/>
<path fill="#BBB8AF" d="M26.694,57.481c0.505-0.123,0.982,0.065,1.471,0.129c-0.573,1.138-0.3,2.406-0.566,3.614
	C26.901,60.062,27.394,58.625,26.694,57.481"/>
<path fill="#B7B3A9" d="M3.402,18.704C2.8,18.95,3.026,19.707,2.576,20.046c-0.052-0.118-0.164-0.246-0.147-0.354
	c0.17-1.102-0.358-1.702-1.369-1.989c-0.177-0.05-0.442-0.114-0.325-0.383c0.097-0.222,0.313-0.183,0.519-0.095
	c0.73,0.312,1.465,0.614,2.198,0.92C3.59,18.345,3.609,18.535,3.402,18.704"/>
<path fill="#B8B4AA" d="M3.917,43.891c0.039-0.012,0.078-0.013,0.118-0.004c0.008,0.072,0.016,0.144,0.024,0.216
	c0.251,0.234,0.51,0.463,0.572,0.828c0.079,0.253,0.158,0.506,0.237,0.76c-0.736,0.038-1.325,0.431-1.925,0.797
	c-0.193,0.117-0.437,0.35-0.62,0.12c-0.224-0.282,0.126-0.401,0.299-0.502C3.475,45.606,3.918,44.882,3.917,43.891"/>
<path fill="#4E3A2C" d="M3.402,18.704c0.017-0.186,0.033-0.372,0.05-0.558c0.129-0.01,0.258-0.02,0.386-0.03
	c0.12,0.551,0.637,0.476,1.004,0.637c0.084,0.089,0.127,0.194,0.13,0.316C4.471,18.849,3.94,18.762,3.402,18.704"/>
<path fill="#4E3228" d="M28.547,30.701c0.008,0.166,0.017,0.331,0.026,0.497c-0.47,0.382-1.198-0.129-1.607,0.464
	c0-0.411,0.337-0.587,0.575-0.833c0.22-0.193,0.489-0.237,0.768-0.252C28.402,30.591,28.481,30.633,28.547,30.701"/>
<path fill="#E89726" d="M25.12,30.084c0.49-0.321,0.977,0.125,1.467,0.005c-0.581,0.756-1.518,0.945-2.282,1.406
	c-3.142,1.894-5.931,4.324-9.147,6.089c-3.219,1.767-5.934,4.26-9.088,6.108c-0.271-0.867,0.262-1.658,0.221-2.52
	c-0.077-1.602-0.055-3.21,0.181-4.805c-0.054-0.349,0.226-0.396,0.44-0.418c1.034-0.112,2.036-0.373,3.101-0.379
	c1.335-0.008,2.652-0.369,3.933-0.813c1.233-0.428,2.499-0.723,3.724-1.224c2.094-0.857,4.046-1.96,6.035-3.008
	C24.149,30.29,24.572,29.987,25.12,30.084"/>
<path fill="#ADAAA1" d="M28.344,30.688c-0.257,0.107-0.503,0.275-0.802,0.142c-0.13-0.255-0.259-0.511-0.389-0.766
	c0.066-0.182,0.133-0.363,0.199-0.544c0.088-0.22,0.268-0.321,0.486-0.374c0.511-0.033,0.829,0.248,1.001,0.683
	C29.022,30.289,28.654,30.483,28.344,30.688"/>
<path fill="#423E2F" d="M4.632,44.931c-0.246-0.238-0.663-0.357-0.572-0.828c0.394,0.047,0.757,0.279,1.173,0.192
	C5.032,44.507,4.832,44.719,4.632,44.931"/>
<path fill="#F36F4F" d="M27.768,29.336c-0.139,0.061-0.278,0.122-0.417,0.183c-0.452,0.007-0.676-0.271-0.818-0.652
	c-0.074-0.091-0.135-0.191-0.185-0.298c-0.104-0.35-0.072-0.704-0.028-1.058c0.249-2.843,0.156-5.687,0.043-8.531
	c-0.015-0.366-0.122-0.729,0.011-1.09c0.607-0.271,0.607-0.271,0.879,0.739c0.15-4.369,0.15-8.582,0.569-12.781
	c-0.25,0.25-0.162,0.574-0.226,0.861c-0.067,0.303,0.008,0.725-0.514,0.702c-0.363-0.305-0.442-0.645-0.138-1.036
	c0.359-0.799,0.281-1.599,0.006-2.399c0.529-0.147,1.058-0.295,1.587-0.443c0.202,4.274-0.03,8.543-0.138,12.814
	c-0.086,3.438,0.005,6.881,0.027,10.322c0.001,0.195,0.09,0.39,0.139,0.585c-0.089,0.471-0.178,0.942-0.267,1.414
	C28.275,29.012,27.938,29.107,27.768,29.336"/>
<path fill="#4C4A43" d="M27.768,29.336c0.076-0.303,0.333-0.462,0.531-0.668c0.453,0.303,0.564,0.864,0.935,1.23
	c-0.109,0.371-0.401,0.584-0.687,0.804c-0.068-0.004-0.135-0.009-0.203-0.014C28.862,29.816,28.782,29.627,27.768,29.336"/>
<path fill="#4F94AC" d="M40.931,21.779c-1.904,1.229-3.809,2.457-5.713,3.686c-0.395,0.254-0.596,0.698-1.012,0.957
	c-0.35,0.218-0.641,0.475-1.085,0.428c-0.29-0.031-0.638,0.075-0.688,0.322c-0.226,1.094-1.373,0.778-1.942,1.331
	c-0.146,0.142-0.371,0.175-0.542-0.016c-0.225-0.25-0.03-0.417,0.115-0.607c0.426-0.556,1.165-0.537,1.689-1.018
	c1.311-1.201,2.847-2.12,4.352-3.081c1.102-0.704,2.373-1.122,3.347-2.026c0.251-0.233,0.568-0.167,0.867-0.182
	C40.548,21.565,40.776,21.562,40.931,21.779"/>
<path fill="#5197B0" d="M40.931,21.779c-0.224-0.009-0.466,0.034-0.613-0.207c0.48-1.089,1.689-1.191,2.505-1.832
	c1.866-1.464,4.035-2.456,6.03-3.723c0.254-0.162,0.622-0.519,0.854-0.061c0.207,0.407-0.301,0.428-0.522,0.569
	c-1.822,1.161-3.743,2.19-5.441,3.508C42.846,20.729,41.828,21.139,40.931,21.779"/>
<path fill="#F1BA4B" d="M25.12,30.084c-2.006,1.09-3.939,2.368-6.045,3.206c-1.423,0.566-2.785,1.412-4.421,1.506
	c-0.737,0.042-1.469,0.474-2.227,0.685c-1.753,0.49-3.571,0.255-5.313,0.678c-0.222,0.054-0.475-0.012-0.642,0.208
	c-0.312-0.384-0.397-0.836-0.402-1.315c-0.034-3.161-0.686-6.245-1.153-9.353c-0.209-1.39-0.324-2.794-0.778-4.137
	c-0.117-0.345-0.167-0.734-0.639-0.815c-0.251-0.043-0.466-0.201-0.375-0.488c0.081-0.254,0.338-0.286,0.585-0.307
	c0.629-0.054,1.198,0.145,1.748,0.406c4.406,2.096,8.805,4.207,13.215,6.294c1.884,0.892,3.783,1.753,5.688,2.599
	C24.761,29.43,25.074,29.616,25.12,30.084"/>
<path fill="#FE4225" d="M26.53,27.667c0.003,0.322,0.006,0.645,0.009,0.967c-0.702,0.021-1.246-0.414-1.845-0.67
	c-0.83-0.355-1.636-0.771-2.476-1.109c-2.431-1.146-4.779-2.468-7.307-3.404c-2.713-1.005-5.178-2.549-7.86-3.621
	c-0.687-0.274-1.388-0.51-2.082-0.763c-0.042-0.104-0.085-0.21-0.129-0.315c1.246-0.487,2.57-0.796,3.66-1.633
	c0.459-0.422,0.882-0.377,1.321,0.056c2.649,2.617,5.814,4.563,8.824,6.706c0.897,0.639,1.88,1.179,2.831,1.751
	c0.204,0.123,0.421,0.248,0.657,0.25C23.836,25.901,25.201,26.736,26.53,27.667"/>
<path fill="#6A482C" d="M22.219,26.854c1.552,0.321,2.879,1.189,4.32,1.78c-0.002,0.077-0.003,0.155-0.006,0.232
	C25.024,28.348,23.564,27.725,22.219,26.854"/>
<path fill="#FE6E4A" d="M26.53,27.667c-0.375,0.005-0.732-0.026-1.03-0.308c-0.947-0.898-2.109-1.113-3.374-1.179
	c-0.847-0.044-1.466-0.764-2.187-1.168c-1.409-0.79-2.816-1.64-4.046-2.677c-2.013-1.696-4.408-2.914-6.166-4.916
	c-0.377-0.429-0.747-0.49-1.227-0.299c0.846-1.204,2.284-1.501,3.447-2.208c3.647-2.22,7.496-4.106,10.918-6.695
	c1.044-0.79,2.131-1.525,3.175-2.316c0.694-0.525,0.951-0.346,0.903,0.475c-0.022,0.356,0.01,0.701,0.202,1.014
	c0.393,0.354,0.45,0.82,0.385,1.297c-0.32,2.329-0.279,4.681-0.47,7.017c-0.057,0.699-0.15,1.399-0.521,2.021
	c0.382,1.813,0.241,3.666,0.242,5.486C26.783,24.682,27.013,26.208,26.53,27.667"/>
<path fill="#F57B5C" d="M26.54,17.723c0.142-1.17,0.312-2.337,0.417-3.51c0.071-0.788-0.059-1.578-0.007-2.378
	c0.097-1.479,0.509-2.949,0.196-4.446c0.443-0.527,0.021-1.194,0.282-1.743c0.104-0.218,0.125-0.62,0.484-0.525
	c0.326,0.085,0.23,0.428,0.214,0.695c-0.145,2.475-0.302,4.95-0.42,7.427c-0.085,1.782-0.117,3.567-0.174,5.35
	c-0.008,0.252,0.13,0.633-0.229,0.673c-0.491,0.055-0.312-0.396-0.357-0.659C26.889,18.274,27.106,17.82,26.54,17.723"/>
</svg>
