<svg xmlns="http://www.w3.org/2000/svg" viewBox="0 0 320 320"><defs><style>.cls-1{opacity:0.5;}.cls-2{fill:#231f20;fill-rule:evenodd;}</style></defs><title>Artboard 3</title><g id="Foreground"><g class="cls-1"><path class="cls-2" d="M159.79,4.79c-42.53,0-79.95,15.73-108.86,45.08C21.16,80.06,5,119.18,5,160c0,41.25,15.73,79.52,45.5,109.29S119,315.22,159.79,315.22s80.37-16.16,111-46.35C299.69,240.37,315,202.53,315,160c0-42.09-15.31-80.37-44.65-109.71C240.58,20.52,202.31,4.79,159.79,4.79Zm.42,28.07c34.87,0,65.92,13.18,90.16,37.42,23.81,23.81,36.57,55.28,36.57,89.72,0,34.87-12.34,65.49-36.15,88.88-25.09,24.67-57.41,37.85-90.58,37.85-33.59,0-65.06-13.18-89.3-37.42S33.07,193.17,33.07,160c0-33.59,13.6-65.48,37.84-90.15C94.73,45.62,125.34,32.86,160.21,32.86Z"/><path class="cls-2" d="M158.21,134.21c-8.76-16-23.72-22.35-41.09-22.35-25.27,0-45.39,17.88-45.39,48.14,0,30.78,18.92,48.15,46.25,48.15,17.54,0,32.5-9.63,40.75-24.25l-19.26-9.8c-4.3,10.32-10.83,13.41-19.08,13.41-14.27,0-20.8-11.86-20.8-27.51s5.5-27.51,20.8-27.51c4.12,0,12.38,2.24,17.19,12.56Z"/><path class="cls-2" d="M247.75,134.21c-8.77-16-23.72-22.35-41.09-22.35-25.27,0-45.39,17.88-45.39,48.14,0,30.78,18.91,48.15,46.25,48.15,17.54,0,32.5-9.63,40.75-24.25L229,174.1c-4.3,10.32-10.83,13.41-19.08,13.41-14.27,0-20.81-11.86-20.81-27.51s5.51-27.51,20.81-27.51c4.12,0,12.38,2.24,17.19,12.56Z"/></g></g></svg>