<svg id="Layer_1" data-name="Layer 1" xmlns="http://www.w3.org/2000/svg" viewBox="0 0 138.7 129.8">
  <title>articulate-concepts</title>
  <g>
    <g>
      <path d="M57.8,40.8c.2-1.7.6-3.3.9-4.9s.9-3.9,1.3-5.8.8-3.8,1.3-5.7a44.3,44.3,0,0,1,1.3-4.9c.1-.2.4-.6.2-.9a.6.6,0,0,0-.7-.1l-2.1.7-2.9,1.1a21.9,21.9,0,0,0-4.4,2l-3.1,1.9a60.6,60.6,0,0,0-5.3,3.5c-1.6,1.2-3,2.5-4.5,3.7l-2.5,2.3a28.3,28.3,0,0,0-2.5,2.4,8.6,8.6,0,0,0-1.4,1.3c-1.3,1.4-2.7,2.8-3.9,4.2a29.7,29.7,0,0,0-2.7,3.5c-.9,1.3-1.6,2.6-2.5,3.9s-2.3,4.7-3.4,7.1c-.1.2-.1.4-.2.6s-.3,1.1-.5,1.6a20.1,20.1,0,0,0-1.6,4.9c-.3,1.3-.5,2.6-.7,4a7.6,7.6,0,0,0-.1,1.5.7.7,0,0,0,.4.7c.1,0,.2,0,.2-.1a21.4,21.4,0,0,1,3.2-2,3.7,3.7,0,0,1,2.1-.6h2.4a31.5,31.5,0,0,1,6.1.6,7.8,7.8,0,0,0,2.2.2h.5l3.6.6,3.3.5c2,.2,4,.7,6.1,1.1l.8.2,3,1.1,3,.9h1.1a2.3,2.3,0,0,0,.3-1.1,19.3,19.3,0,0,1-.1-3.4,50,50,0,0,1,.2-6.7c.1-1.6.3-3.2.3-4.8s0-.9.1-1.4.3-3.1.4-4.7A88.5,88.5,0,0,1,57.8,40.8Z" style="fill: #2f495a"/>
      <path d="M64.1,13.2a22.2,22.2,0,0,0,.3,3.7c.1.3.1.6.4.8l1.3-.2c.2-.1.4-.2.4-.5a.6.6,0,0,0-.1-.4A14.3,14.3,0,0,1,65,13.2a9.5,9.5,0,0,1-.5-2.3.8.8,0,0,0-.4-.7.9.9,0,0,0-.1.7A16.9,16.9,0,0,1,64.1,13.2Z" style="fill: #ccc"/>
      <path d="M89.1,114.4a1.3,1.3,0,0,0-.1.6l.3.9c.4,1.4.7,2.8,1.2,4.2a4.9,4.9,0,0,0,.4,1.1c.7.9,1,2,1.7,2.9s.1.1.2.2a5.4,5.4,0,0,0,1.1,1.8,7.6,7.6,0,0,0,2.8,2.2l.6.3a2.8,2.8,0,0,0,1.3.3,12.4,12.4,0,0,0,3.8-.5,11.8,11.8,0,0,0,1.9-1.1c.2,0,.3-.2.4-.3a8.6,8.6,0,0,0,1.6-3.8v-.5a15.9,15.9,0,0,0-.6-3,.9.9,0,0,0-.3-.5,2.2,2.2,0,0,1-1-.9.5.5,0,0,0-.3.4,13.3,13.3,0,0,0,.3,2.1,2.3,2.3,0,0,1-.3,1.8l-.3.8a2.8,2.8,0,0,1-1.7,1.8l-.8.4a5.7,5.7,0,0,1-3.1-.7,8,8,0,0,1-3.4-2.7,6.1,6.1,0,0,1-.9-1.8c-.4-1-.9-2.1-1.3-3.2s-.4-1.7-.7-2.6a1.6,1.6,0,0,0-.5-.9c-.8-.2-1.3.5-1.9.5A.5.5,0,0,0,89.1,114.4Z" style="fill: #4d4d4d"/>
      <path d="M132.3,44.1a28.7,28.7,0,0,0-2.6-4.9,6.4,6.4,0,0,0-1-1.3,17.2,17.2,0,0,0-4-4.5l-2.8-2.2-1.2-.9L118,28.7l-1.5-1a7.4,7.4,0,0,0-2.1-1.3c-1.9-.9-3.8-1.6-5.7-2.3l-3.6-1.2-2.6-.9a19.7,19.7,0,0,1-3.2-1,25.5,25.5,0,0,0-3.9-1.3L93,19l-2.5-.6-1.7-.2a50.7,50.7,0,0,0-5.4-.9,14.2,14.2,0,0,0-2.9-.2H73.4l-2.1.3a.6.6,0,0,0-.7.5l.4.3a3.9,3.9,0,0,1,1.4.8l1.1.6,6.4,3.7,2.5,1.6,3,2,2,1.4a9.5,9.5,0,0,1,2,2l.5.4a16.4,16.4,0,0,1,2.7,3.2c.6.9,1.1,1.8,1.7,2.6l2.3,3.4a66.1,66.1,0,0,1,3.6,7A27.8,27.8,0,0,1,102,52l1.2,3.4c.5,1.3.9,2.6,1.3,4s.2.3.2.5a.5.5,0,0,0,.8-.1l.6-.8a22.6,22.6,0,0,1,2.8-2.5,24.6,24.6,0,0,1,4.8-3.1,9.1,9.1,0,0,0,1.7-.9l2.2-1a28.5,28.5,0,0,0,3.1-1.2l1.6-.7,4.2-1.1a3,3,0,0,1,1.6-.2,7.1,7.1,0,0,1,2.5.1h.4a4.5,4.5,0,0,1,1.6.1c.2,0,.3.2.6.1a.6.6,0,0,0,.2-.5A25,25,0,0,0,132.3,44.1Z" style="fill: #2f495a"/>
      <path d="M103,57.4c-.4-1.2-.9-2.4-1.2-3.6a66.2,66.2,0,0,0-2.4-6.2,59.8,59.8,0,0,0-4.2-7.9l-.4-.5a49,49,0,0,0-3.1-4.8l-1.3-1.8L88,30.3a23.3,23.3,0,0,0-4.1-3.1l-.6-.4-3-2c-1.6-1.2-3.5-2-5.2-3.2h0c-1.3-.6-2.4-1.4-3.6-2a9.1,9.1,0,0,0-2.2-1.1,2.9,2.9,0,0,0-1.3-.1l-.6.2a1.8,1.8,0,0,0-1-.1,3.6,3.6,0,0,1-2.3.3h-.3a1.4,1.4,0,0,0-.5.8c-.2.8-.5,1.6-.7,2.4s-.9,3.4-1.3,5.2-.9,4-1.4,6L59,37.9,58.7,39c-.1,1-.2,2.1-.4,3.2s-.3,1.9-.4,2.9-.1,2.1-.2,3.1-.1,2.9-.2,4.4-.3,3.3-.4,4.9a10.9,10.9,0,0,1-.1,1.8c-.2,1.5-.2,3-.3,4.5v5a14.1,14.1,0,0,0,.5,3.5c.1.2.2.4.4.4a.7.7,0,0,0,.5-.8c0-.2,0-.4.2-.5H59l1.5-1.2A9.1,9.1,0,0,0,62.1,69l2.4-1.3c2.5-.9,5-1.8,7.5-2.5l3-.8,2.3-.6,5-1.1a11.8,11.8,0,0,1,3.1-.5l3.5-.3,4.3-.6,4.4-.7a3.8,3.8,0,0,1,1.5.1c1.4.4,2.8.3,4.1.7a.7.7,0,0,0,.8-.2,2.5,2.5,0,0,1-.1-.8Z" style="fill: #2f495a"/>
      <path d="M57.6,74.5c.1-.2.1-.2,0-.5S57.4,74.4,57.6,74.5Z" style="fill: #fff"/>
      <path d="M76.9,65.5a1,1,0,0,0-.4-.5c-.3,0-.4.1-.6.4a2.1,2.1,0,0,0,.1,1.1,11.7,11.7,0,0,0,.6,2c.7,2.2,1.1,4.4,1.6,6.6s1,3.3,1.5,5,.7,2.3,1,3.5a21.7,21.7,0,0,0,.7,2.4,27.2,27.2,0,0,1,1.1,3.8,51.1,51.1,0,0,0,2.3,7.6,12.7,12.7,0,0,1,.6,1.8c.5,2.3,1.4,4.5,2,6.8v.3a33.7,33.7,0,0,1,1,3.4l.9,2.5a.9.9,0,0,0,.7.6c.3,0,.4-.2.5-.4v-.6l-.9-2.9c-.4-1.7-1-3.5-1.4-5.2s-.9-3-1.4-4.5a52.2,52.2,0,0,0-1.8-5.6c-.1-.5-.4-1-.5-1.4l-1.8-4.8a32.8,32.8,0,0,1-2.2-6.7,58.3,58.3,0,0,0-1.8-7.2,6.5,6.5,0,0,1-.4-1.3c-.3-1.5-.7-3-.9-4.5Z" style="fill: #ccc"/>
      <path d="M134.2,47.2a2.9,2.9,0,0,1-.2-.9,22.5,22.5,0,0,0-.8-2.4c-.6-1.3-1.3-2.6-1.9-4a9.1,9.1,0,0,0-1.1-1.6l-1.4-1.8a17.1,17.1,0,0,0-1.1-1.4,15.8,15.8,0,0,0-3-2.8,1.2,1.2,0,0,1-.5-.5l-2.4-1.9-2.6-1.5-1.6-1a17.5,17.5,0,0,0-2.9-1.8l-1.9-.8-6.1-2.2L105,22l-3.5-1.1-1.8-.7a15.7,15.7,0,0,0-2.8-1l-4-1.1a31.4,31.4,0,0,0-4-.8l-4.4-.7-2.8-.3a9.7,9.7,0,0,0-2.4.1,5.6,5.6,0,0,1-1.3,0h-.7a61.7,61.7,0,0,0-7.4.7,3.7,3.7,0,0,1-1.8-.1,2,2,0,0,1-.8-.8,23.4,23.4,0,0,1-1.9-4.6V11A4.7,4.7,0,0,0,65,9.4a9.4,9.4,0,0,1-.4-1.6c-.3-1.3-.5-2.6-.8-3.8s-.1-.2-.1-.3a.8.8,0,0,0-.8.1,5.8,5.8,0,0,0-.2,2.6,18.7,18.7,0,0,1,.4,3.2c0,.3.1.5.1.7a13.6,13.6,0,0,1,.2,2,19.7,19.7,0,0,0,.2,4.2,1.3,1.3,0,0,1-.1.6.9.9,0,0,1-.7.3l-.8-.3-.8.6-.6.4-3.9,1.5-4.1,1.9-3.5,2.1-3.5,2.3c-1.2.8-2.4,1.6-3.5,2.5s-4,3.4-5.8,5.2-2.5,2.3-3.6,3.5-1.9,2.1-2.9,3.1A43,43,0,0,0,26,45.1l-1.8,2.8a25.5,25.5,0,0,0-2.3,4.3,8,8,0,0,0-.8,1.6,14.5,14.5,0,0,0-.9,2.2,25,25,0,0,1-.9,2.5A20.6,20.6,0,0,0,18.1,62a41.7,41.7,0,0,0-1,6,4.1,4.1,0,0,1-.3,1.6,33,33,0,0,0-1.3,5.2.6.6,0,0,0,0,.6.5.5,0,0,0,.5.3.5.5,0,0,0,.4-.2,1.4,1.4,0,0,0,.2-.6c.2-.5.3-1.1.5-1.7a11.5,11.5,0,0,1,1-2.3c.1-.1.2-.3.4-.4a12.2,12.2,0,0,1,3.8-2.6,2.3,2.3,0,0,1,1.4-.2H29l1.8.2,1.9.3c1.4.3,2.8.1,4.2.7H37a10.4,10.4,0,0,1,3.4.5h1.4c1,.3,2.2.3,3.2.7h.5a18.2,18.2,0,0,1,5.2,1.4l2.7.9,2,.4a1,1,0,0,1,.7.4c.3,1.5,1.1,2.9,1,4.5a.9.9,0,0,0,.8.5,2,2,0,0,0,.4-1.3,28.5,28.5,0,0,1,.3-2.9,2.7,2.7,0,0,1,1-1.9,2.7,2.7,0,0,0,.7-.8,15.3,15.3,0,0,1,4.4-2.7l3.4-1.3,3.3-1.1,2.2-.6a2.2,2.2,0,0,1,1.4,0,21.7,21.7,0,0,1,.7,2.4,6.5,6.5,0,0,0,.4,1.3A14.6,14.6,0,0,1,77,73c.5,1.8.9,3.7,1.5,5.5s.3.8.4,1.2.9,2.9,1.2,4.4a35.8,35.8,0,0,0,1.1,3.5c.4,1.2.7,2.5,1,3.7a29,29,0,0,0,1.2,4.2c.4,1.2,1,2.3,1.3,3.5s1.3,4.4,1.9,6.5l1.5,5.3c.2.7.3,1.3.5,1.9s-1.1.8-1.3,1.2.5.4.7.7a19.8,19.8,0,0,1,.8,2.6,8.4,8.4,0,0,0,.8,2.7.6.6,0,0,1,.1.4,3.2,3.2,0,0,0,.3.9l1.2,2.4.3.5a6.7,6.7,0,0,1,.9,1.4,6.8,6.8,0,0,0,1.7,2.1,9.1,9.1,0,0,0,2.8,1.7l.3.2a2.9,2.9,0,0,0,1.8.3h.5a7.2,7.2,0,0,0,4-1,.1.1,0,0,0,.1-.1,4.6,4.6,0,0,0,2.9-3.2,7.3,7.3,0,0,0,.6-2.1,1.3,1.3,0,0,0,.1-.6,5.8,5.8,0,0,0-.4-1.8l-.3-1.2a5,5,0,0,0-.8-2,1.2,1.2,0,0,0-.8-.6c-.8.2-1.7-.2-2.3.5a.6.6,0,0,0,.2.6,1.8,1.8,0,0,1,.5,1.2,9.7,9.7,0,0,1,.1,2.4,6.9,6.9,0,0,1-.7,1.5,2.3,2.3,0,0,1-1.7,1.2,4.9,4.9,0,0,1-2.4-.5l-.8-.5a7.5,7.5,0,0,1-2.6-2.4c-.1-.1-.1-.3-.2-.4l-.3-.8a3,3,0,0,1-.4-.8,4,4,0,0,0-.6-1.6l-.4-.9c-.3-1.2-.7-2.4-1-3.6v-.8c-.3-.2-.7-.1-.9-.5s-.6-1.6-.8-2.6l-.3-1a7,7,0,0,1-.6-1.9,8.3,8.3,0,0,0-.4-1.5l-.5-1.7c-.7-2.2-1.2-4.5-1.9-6.7s-1.6-4.1-2.3-6.2-.9-2.1-1.3-3.2a42.2,42.2,0,0,1-2-6,54.7,54.7,0,0,0-1.5-5.8c-.4-1.4-.8-2.8-1.1-4.3a15.5,15.5,0,0,1-.4-2.1,17.3,17.3,0,0,0-.7-3.1,1.4,1.4,0,0,1,0-.9l.5-.2,1.1-.3,2-.4,1.2-.3,1.1-.2a25.8,25.8,0,0,1,3.9-.4l1.3-.3,4.2-.5,2.9-.3h.8a4.5,4.5,0,0,1,2.3-.1,6.3,6.3,0,0,0,1.9.3h.6a8,8,0,0,0,2.1.5h.2l.7,1.3,1.5,2.6h.4c.1.1.3,0,.4-.2a2,2,0,0,0-.2-1.5,7.8,7.8,0,0,1-.5-1.4,8.6,8.6,0,0,1-.5-2.3,8.4,8.4,0,0,1,2.7-3.2l.6-.5a12.7,12.7,0,0,1,1.2-1,17,17,0,0,0,2.2-1.5,50.4,50.4,0,0,1,8.8-4l1.4-.6,2-.6a14.7,14.7,0,0,1,4.1-.7h1.8a2.7,2.7,0,0,1,.9,0,15.5,15.5,0,0,0,2.1.4l.3.5a22.9,22.9,0,0,1,.9,2.8,2.2,2.2,0,0,0,.5,1.1.8.8,0,0,0,.6-.5c.1-.3.1-.6.2-.8a2.9,2.9,0,0,0-.2-1.6A18.5,18.5,0,0,0,134.2,47.2Zm-70.1-37a.8.8,0,0,1,.4.7,9.5,9.5,0,0,0,.5,2.3,14.3,14.3,0,0,0,1.4,3.4.6.6,0,0,1,.1.4c0,.3-.2.4-.4.5l-1.3.2c-.3-.2-.3-.5-.4-.8a22.2,22.2,0,0,1-.3-3.7,16.9,16.9,0,0,0-.1-2.3A.9.9,0,0,1,64.1,10.2ZM56.5,55.9c0,1.6-.2,3.2-.3,4.8a50,50,0,0,0-.2,6.7,19.3,19.3,0,0,0,.1,3.4,2.3,2.3,0,0,1-.3,1.1H54.7l-3-.9-3-1.1-.8-.2c-2.1-.4-4.1-.9-6.1-1.1l-3.3-.5-3.6-.6h-.5a7.8,7.8,0,0,1-2.2-.2,31.5,31.5,0,0,0-6.1-.6H23.7a3.7,3.7,0,0,0-2.1.6,21.4,21.4,0,0,0-3.2,2c0,.1-.1.1-.2.1a.7.7,0,0,1-.4-.7,7.6,7.6,0,0,1,.1-1.5c.2-1.4.4-2.7.7-4a20.1,20.1,0,0,1,1.6-4.9c.2-.5.3-1.1.5-1.6s.1-.4.2-.6C22,53.7,23,51.3,24.3,49s1.6-2.6,2.5-3.9a29.7,29.7,0,0,1,2.7-3.5c1.2-1.4,2.6-2.8,3.9-4.2a8.6,8.6,0,0,1,1.4-1.3,28.3,28.3,0,0,1,2.5-2.4l2.5-2.3c1.5-1.2,2.9-2.5,4.5-3.7a60.6,60.6,0,0,1,5.3-3.5l3.1-1.9a21.9,21.9,0,0,1,4.4-2L60,19.2l2.1-.7a.6.6,0,0,1,.7.1c.2.3-.1.7-.2.9a44.3,44.3,0,0,0-1.3,4.9c-.5,1.9-.9,3.8-1.3,5.7s-.9,3.8-1.3,5.8-.7,3.2-.9,4.9a88.5,88.5,0,0,0-.8,9c-.1,1.6-.3,3.1-.4,4.7S56.6,55.5,56.5,55.9Zm1.1,18.6c-.2-.1-.2-.2,0-.5S57.7,74.3,57.6,74.5Zm33.8,39.2a1.6,1.6,0,0,1,.5.9c.3.9.4,1.8.7,2.6s.9,2.2,1.3,3.2a6.1,6.1,0,0,0,.9,1.8,8,8,0,0,0,3.4,2.7,5.7,5.7,0,0,0,3.1.7l.8-.4a2.8,2.8,0,0,0,1.7-1.8l.3-.8a2.3,2.3,0,0,0,.3-1.8,13.3,13.3,0,0,1-.3-2.1.5.5,0,0,1,.3-.4,2.2,2.2,0,0,0,1,.9.9.9,0,0,1,.3.5,15.9,15.9,0,0,1,.6,3v.5a8.6,8.6,0,0,1-1.6,3.8c-.1.1-.2.3-.4.3a11.8,11.8,0,0,1-1.9,1.1,12.4,12.4,0,0,1-3.8.5,2.8,2.8,0,0,1-1.3-.3l-.6-.3a7.6,7.6,0,0,1-2.8-2.2,5.4,5.4,0,0,1-1.1-1.8c-.1-.1-.1-.2-.2-.2s-1-2-1.7-2.9a4.9,4.9,0,0,1-.4-1.1c-.5-1.4-.8-2.8-1.2-4.2L89,115a1.3,1.3,0,0,1,.1-.6.5.5,0,0,1,.4-.2C90.1,114.2,90.6,113.5,91.4,113.7Zm-13-41.5a6.5,6.5,0,0,0,.4,1.3,58.3,58.3,0,0,1,1.8,7.2,32.8,32.8,0,0,0,2.2,6.7l1.8,4.8c.1.4.4.9.5,1.4a52.2,52.2,0,0,1,1.8,5.6c.5,1.5.9,3,1.4,4.5s1,3.5,1.4,5.2l.9,2.9v.6c-.1.2-.2.4-.5.4a.9.9,0,0,1-.7-.6l-.9-2.5a33.7,33.7,0,0,0-1-3.4V106c-.6-2.3-1.5-4.5-2-6.8a12.7,12.7,0,0,0-.6-1.8,51.1,51.1,0,0,1-2.3-7.6A27.2,27.2,0,0,0,81.4,86a21.7,21.7,0,0,1-.7-2.4c-.3-1.2-.7-2.3-1-3.5s-1.1-3.3-1.5-5-.9-4.4-1.6-6.6a11.7,11.7,0,0,1-.6-2,2.1,2.1,0,0,1-.1-1.1c.2-.3.3-.4.6-.4a1,1,0,0,1,.4.5l.6,2.2C77.7,69.2,78.1,70.7,78.4,72.2Zm24.8-10.8c-1.3-.4-2.7-.3-4.1-.7a3.8,3.8,0,0,0-1.5-.1l-4.4.7-4.3.6-3.5.3a11.8,11.8,0,0,0-3.1.5l-5,1.1-2.3.6-3,.8c-2.5.7-5,1.6-7.5,2.5L62.1,69a9.1,9.1,0,0,1-1.6,1.1L59,71.3h-.7c-.2.1-.2.3-.2.5a.7.7,0,0,1-.5.8c-.2,0-.3-.2-.4-.4a14.1,14.1,0,0,1-.5-3.5v-5c.1-1.5.1-3,.3-4.5a10.9,10.9,0,0,0,.1-1.8c.1-1.6.2-3.3.4-4.9s.1-2.9.2-4.4.1-2.1.2-3.1.3-1.9.4-2.9.3-2.2.4-3.2l.3-1.1.9-4.6c.5-2,1-4,1.4-6s.8-3.5,1.3-5.2.5-1.6.7-2.4a1.4,1.4,0,0,1,.5-.8h.3a3.6,3.6,0,0,0,2.3-.3,1.8,1.8,0,0,1,1,.1l.6-.2a2.9,2.9,0,0,1,1.3.1,9.1,9.1,0,0,1,2.2,1.1c1.2.6,2.3,1.4,3.6,2h0c1.7,1.2,3.6,2,5.2,3.2l3,2,.6.4A23.3,23.3,0,0,1,88,30.3l2.4,2.3,1.3,1.8a49,49,0,0,1,3.1,4.8l.4.5a59.8,59.8,0,0,1,4.2,7.9,66.2,66.2,0,0,1,2.4,6.2c.3,1.2.8,2.4,1.2,3.6l.9,3a2.5,2.5,0,0,0,.1.8A.7.7,0,0,1,103.2,61.4Zm30-12.9c-.3.1-.4-.1-.6-.1a4.5,4.5,0,0,0-1.6-.1h-.4a7.1,7.1,0,0,0-2.5-.1,3,3,0,0,0-1.6.2l-4.2,1.1-1.6.7a28.5,28.5,0,0,1-3.1,1.2l-2.2,1a9.1,9.1,0,0,1-1.7.9,24.6,24.6,0,0,0-4.8,3.1,22.6,22.6,0,0,0-2.8,2.5l-.6.8a.5.5,0,0,1-.8.1c0-.2-.1-.3-.2-.5s-.8-2.7-1.3-4L102,52a27.8,27.8,0,0,0-1.8-4.8,66.1,66.1,0,0,0-3.6-7l-2.3-3.4c-.6-.8-1.1-1.7-1.7-2.6A16.4,16.4,0,0,0,89.9,31l-.5-.4a9.5,9.5,0,0,0-2-2l-2-1.4-3-2-2.5-1.6-6.4-3.7-1.1-.6a3.9,3.9,0,0,0-1.4-.8l-.4-.3a.6.6,0,0,1,.7-.5l2.1-.3h7.1a14.2,14.2,0,0,1,2.9.2,50.7,50.7,0,0,1,5.4.9l1.7.2L93,19l2.4.7A25.5,25.5,0,0,1,99.3,21a19.7,19.7,0,0,0,3.2,1l2.6.9,3.6,1.2c1.9.7,3.8,1.4,5.7,2.3a7.4,7.4,0,0,1,2.1,1.3l1.5,1,2.7,1.6,1.2.9,2.8,2.2a17.2,17.2,0,0,1,4,4.5,6.4,6.4,0,0,1,1,1.3,28.7,28.7,0,0,1,2.6,4.9,25,25,0,0,1,1.1,3.9A.6.6,0,0,1,133.2,48.5Z" style="fill: #333"/>
      <g style="opacity: 0.1">
        <path d="M62.7,18.2c-2,2.1-2.9,4.8-3.7,7.5-1.7,5.8-3.1,11.6-5.2,17.1-3.6,9.3-9.3,17.6-14.9,25.7,5.7,1.1,12,2.6,17.6,4.1-.2-3-.3-6.9-.2-10s.5-5.7.7-8.5.5-8.4,1-12.5a74.9,74.9,0,0,1,1.5-8A84.6,84.6,0,0,1,63.8,18l-1.6-.2"/>
      </g>
      <g style="opacity: 0.1">
        <path d="M68.8,18c-.4-.1-1.2-.1-1.2.3s.7,1,.9,1.3C71.1,23,75.1,25,78,28.1a23,23,0,0,1,3.5,6.1c3.9,9.3,3.8,18.5,3.6,28.7,5.6-1.3,16.9-2.2,18.3-.7s.4-.1.6-.2a1.7,1.7,0,0,0,.1-.7,15.8,15.8,0,0,0-1.3-5.6,63.7,63.7,0,0,1-2.3-6.1C97.8,40.2,90,31.5,88.1,29.8a77.6,77.6,0,0,0-8.4-5.7l-5-2.9A34.6,34.6,0,0,1,71.6,19,5.4,5.4,0,0,0,68,18"/>
      </g>
      <g style="opacity: 0.1">
        <path d="M71.6,17.5A53.9,53.9,0,0,1,90.3,20,159.4,159.4,0,0,1,108,27.1a67.8,67.8,0,0,1,10.4,5.3,34,34,0,0,1,12.1,14.7,4.6,4.6,0,0,0,1.1,1.6,1.2,1.2,0,0,0,1.7,0,2.3,2.3,0,0,0,.2-2,31.7,31.7,0,0,0-12.6-16.9c-5.8-4.1-13.6-6.2-20.4-8.6a109.8,109.8,0,0,0-12.8-3.5c-4.4-.9-9-.8-13.5-.8"/>
      </g>
      <g style="opacity: 0.1">
        <path d="M89.9,113.6l1.7,4.4c.9,2.2,1.8,4.6,3.5,6.4s4.2,3,6.5,2.4,3.8-2.3,5-4.2a6.2,6.2,0,0,1-3.3,5.7,9,9,0,0,1-2.3.8,8,8,0,0,1-3.1.1,8.2,8.2,0,0,1-5.6-4.2,24,24,0,0,1-2.6-6.9l-1-3.8a.4.4,0,0,1,0-.5c.2-.4.8.1,1.2-.1"/>
      </g>
    </g>
    <g>
      <path d="M3.1,64.5c.1-.3.3-.3.5-.3L5.8,64a6.7,6.7,0,0,0,2-.1h2.6l1.9-.2h2c.2,0,.2.1.2.2s0,.2-.2.3H12.6l-1.7.2a20.5,20.5,0,0,1-.7,3.4l.5.3,1.2.6,1,.7H13a.2.2,0,0,1,0,.3h-.3c-.1-.1-.2-.1-.2-.2l-1.9-1.1-1.4-.8c-1.7-.8-3.3-1.7-4.9-2.6l-.8-.4Zm1.4.1c.3.3,4.7,2.6,5.2,2.8a17.3,17.3,0,0,0,.7-3.1H8.2a14.2,14.2,0,0,1-2.9.2Z" style="fill: #fff;stroke: #fff;stroke-miterlimit: 10;stroke-width: 0.10630999505519867px"/>
      <path d="M11.3,57.4h.4a6.5,6.5,0,0,1,2-.5,11.3,11.3,0,0,0,1.8-.3h1a.1.1,0,0,1,.2,0,.2.2,0,0,1,.2.2.4.4,0,0,1-.1.3h-.5l-1.2.2-1.8.2a6.4,6.4,0,0,0-1.8.6l-.4.4c-.2.5-.3,1-.5,1.5l.6.3,1.1.4,2.5.8a.1.1,0,0,0,.1.1c.2.1.2.2.2.3s-.2.2-.3.2-.2,0-.2-.1l-2-.6-1.4-.6L8,59.7l-.8-.3-2.3-.7H4.7c-.3-.1-.3-.2-.2-.5L5,57l.6-1.5.2-.2A3.4,3.4,0,0,1,8,54.4a2.4,2.4,0,0,1,1.6.5l.4.3a3.3,3.3,0,0,1,1.1,1.5A1.9,1.9,0,0,1,11.3,57.4Zm-6.2.8,5,1.5h0l.6-1.8v-.3a2.1,2.1,0,0,0-.4-1.1,4.3,4.3,0,0,0-.9-1A1.9,1.9,0,0,0,8,55a5,5,0,0,0-1.3.3,1,1,0,0,0-.5.4A13.6,13.6,0,0,0,5.1,58.2Z" style="fill: #fff;stroke: #fff;stroke-miterlimit: 10;stroke-width: 0.10630999505519867px"/>
      <path d="M8.1,50.2a3.6,3.6,0,0,1-.4.9.4.4,0,0,1-.1.3.3.3,0,0,1-.4,0,.4.4,0,0,1-.1-.3l.3-.5.9-2.3a6,6,0,0,0,.6-1.1,3.9,3.9,0,0,1,.6-1.5c.1-.2.1-.4.2-.5a.2.2,0,0,1,.2-.2.2.2,0,0,1,.3.3l-.3.8a1.8,1.8,0,0,0-.4,1,4.7,4.7,0,0,1-.5,1l.9.3h.4l4.8,2.1,2.1,1,1.2.6h.1c.1.1.2.2.1.3s-.2.2-.3.2H18l-2.9-1.4-.9-.5-3.7-1.6L9,48.7H8.8Z" style="fill: #fff;stroke: #fff;stroke-miterlimit: 10;stroke-width: 0.10630999505519867px"/>
      <path d="M12,41.9c-.1.1-.1.2-.2.2a.2.2,0,0,1-.3,0c-.1,0-.1-.1-.1-.2a.3.3,0,0,1,.1-.2l.9-1.7a2,2,0,0,1,.4-.8.1.1,0,0,0,.1-.1.2.2,0,0,1,.3,0c.2.1.2.2.2.3l-.2.2-.3.7c.1.2.2.2.3.3l2,1.1,1.5.8,2.9,1.8,1.6.9h.3l.5-1,.2-.2c0-.2.2-.2.3-.1a.2.2,0,0,1,.1.3.6.6,0,0,1-.1.4c-.5.8-.8,1.6-1.3,2.3s-.1.2-.1.3a.2.2,0,0,1-.3,0c-.1,0-.2-.1-.2-.3s.1-.1.1-.2a4.1,4.1,0,0,0,.5-.9c-.1-.2-.2-.2-.4-.3l-1.1-.7-4.2-2.5-1.9-1.1-1-.5Z" style="fill: #fff;stroke: #fff;stroke-miterlimit: 10;stroke-width: 0.10630999505519867px"/>
      <path d="M19.9,38.8c-.7-.6-1.5-1.1-2.2-1.8a3.7,3.7,0,0,1-1.5-2.7,3.5,3.5,0,0,1,.3-1.4A2.8,2.8,0,0,1,18,31.6h1.5c.2.1.2.2.2.4s-.1.2-.4.2l-.9-.2a2,2,0,0,0-1.1.6,2.6,2.6,0,0,0,0,3.2A6.3,6.3,0,0,0,18.5,37l1.6,1.4a7.1,7.1,0,0,0,1.5.8,6.7,6.7,0,0,0,1.8.7,2.4,2.4,0,0,0,2.2-.6,1.6,1.6,0,0,0,.1-2.4v-.2a.2.2,0,0,1,0-.3c0-.1.2-.1.3-.1H26a2.5,2.5,0,0,1,.7,2,2.1,2.1,0,0,1-1.2,1.7,3.3,3.3,0,0,1-1.7.4,2.3,2.3,0,0,1-1.1-.3l-1.6-.6A5,5,0,0,1,19.9,38.8Z" style="fill: #fff;stroke: #fff;stroke-miterlimit: 10;stroke-width: 0.10630999505519867px"/>
      <path d="M25.1,25.6l-1-.8v-.2a.4.4,0,0,1-.1-.3c.1-.1.2-.1.4,0h.1a17.1,17.1,0,0,1,2,1.8l1.5,1.5,1.6,1.6,1,.9a3,3,0,0,1,.9,1.3,1.7,1.7,0,0,1,.1.7,6.4,6.4,0,0,0-.2.7A1.8,1.8,0,0,1,30,34.1l-.4.2a1.8,1.8,0,0,1-1.9-.1,4.5,4.5,0,0,1-1.4-1l-1.7-1.5a11.2,11.2,0,0,0-2-1.7l-1.2-1-.7-.7c-.2-.2-.2-.3-.1-.4h.3l.3.2.9.8L23.4,30a3.9,3.9,0,0,1,1,.8l2.2,2,1.3,1a1.5,1.5,0,0,0,1.3,0l.6-.2a1.9,1.9,0,0,0,1-1v-.2c.3-.6,0-1.1-.4-1.6l-2.5-2.3-1.7-1.8-1.1-1Z" style="fill: #fff;stroke: #fff;stroke-miterlimit: 10;stroke-width: 0.10630999505519867px"/>
      <path d="M34.2,29.3,36,27.9l1.7-1.4c.3.1.4.3.1.5a13,13,0,0,1-2.2,1.9l-1.1.9-.3.2c-.2,0-.2-.2-.3-.3l-1.2-1.4a2.8,2.8,0,0,0-.9-1l-1.5-1.7-2.6-2.9a2.7,2.7,0,0,0-.7-.8.2.2,0,0,1-.1-.4c.1-.1.2-.1.4,0l.9.9,2.9,3.5,1.1,1,1.2,1.4Z" style="fill: #fff;stroke: #fff;stroke-miterlimit: 10;stroke-width: 0.10630999505519867px"/>
      <path d="M35.8,15c.2-.2.3-.1.5,0L38,16.5a15.8,15.8,0,0,0,1.5,1.2l2,1.8L43,20.8l1.3,1,.2.2q.2.3,0,.3c-.1.1-.2.2-.3.1h-.1l-1.3-1-1.3-1.1a28.3,28.3,0,0,1-2.8,2,.9.9,0,0,0,.1.5c.1.5.3.9.4,1.4l.3,1.1v.2c0,.1-.1.2-.3.2a.2.2,0,0,1-.2-.2.4.4,0,0,1-.1-.3,8.3,8.3,0,0,0-.6-2.1,6.6,6.6,0,0,0-.4-1.5c-.7-1.8-1.1-3.5-1.7-5.3l-.3-.8A.6.6,0,0,1,35.8,15Zm.9,1c0,.4,1.6,5.2,1.8,5.6a15.1,15.1,0,0,0,2.6-1.8,10.7,10.7,0,0,0-1.6-1.4l-2.2-1.9Z" style="fill: #fff;stroke: #fff;stroke-miterlimit: 10;stroke-width: 0.10630999505519867px"/>
      <path d="M41.9,11.9l-.9.4h-.3c-.1.1-.2,0-.2-.2s0-.2.1-.3l.5-.2,2.2-1.1a3.9,3.9,0,0,0,1.1-.6l1.4-.7.5-.2h.3a.3.3,0,0,1,0,.5l-.7.4a1.9,1.9,0,0,0-1,.5,4.6,4.6,0,0,1-1,.5l.5.7a.8.8,0,0,1,.2.4L47,16.7l.9,2.1c.2.4.3.9.5,1.3h.1c0,.2,0,.3-.2.3s-.2.1-.3-.1a.3.3,0,0,1-.1-.2c-.5-1-.9-2-1.3-2.9a6.9,6.9,0,0,1-.4-1l-1.8-3.6a6.4,6.4,0,0,0-.8-1.4l-.2-.2Z" style="fill: #fff;stroke: #fff;stroke-miterlimit: 10;stroke-width: 0.10630999505519867px"/>
      <path d="M49.6,7.8l.7-.3a8.4,8.4,0,0,1,1.4-.6l1.8-.8h.2l.2.2c.1.1,0,.2-.1.3h-.3l-1.2.5-2.1.9h-.1c.3.8.7,1.5.9,2.2l.6,2.3,1.1-.4,1.3-.6h.2c.1-.1.3,0,.3.2s0,.3-.2.3l-1.1.5-1.3.5c-.1.1,0,.2,0,.3a25.8,25.8,0,0,1,.8,2.6,7.4,7.4,0,0,1,.4,1.4.4.4,0,0,1,.1.3h.3l.9-.4,2.5-.9h.5c0,.2,0,.3-.1.4h-.2l-2.9,1.1-.9.4c-.3.1-.4,0-.5-.3a10.9,10.9,0,0,1-.5-1.7c-.1-.5-.3-1-.4-1.4a44.3,44.3,0,0,1-1.4-4.4,16.7,16.7,0,0,0-.8-2V8.1A.2.2,0,0,1,49.6,7.8Z" style="fill: #fff;stroke: #fff;stroke-miterlimit: 10;stroke-width: 0.10630999505519867px"/>
      <path d="M74.1,8.2c.1-.9,0-1.9.1-2.9a4,4,0,0,1,1.2-2.8,3.1,3.1,0,0,1,1.3-.6,2.1,2.1,0,0,1,1.9.3c.2.1.2.3.3.4a2,2,0,0,1,.5.9c.1.2.1.3-.1.4s-.3,0-.4-.2a2,2,0,0,0-.4-.8,1.3,1.3,0,0,0-1.1-.5,2.6,2.6,0,0,0-2.6,2A7.8,7.8,0,0,0,74.6,6a14.7,14.7,0,0,1,0,2.1,11.1,11.1,0,0,0,.2,1.7,13.4,13.4,0,0,0,.7,1.8A2.4,2.4,0,0,0,77.3,13a1.8,1.8,0,0,0,2-1.5v-.2c0-.1.1-.2.3-.2s.2.1.2.3h0a2.8,2.8,0,0,1-1.1,1.8,2.2,2.2,0,0,1-2.1.1,3.8,3.8,0,0,1-1.4-1.1,4.2,4.2,0,0,1-.4-1l-.6-1.7A6.1,6.1,0,0,1,74.1,8.2Z" style="fill: #fff;stroke: #fff;stroke-miterlimit: 10;stroke-width: 0.10630999505519867px"/>
      <path d="M88,9.3a5.4,5.4,0,0,1-.5,2.2l-.4.7a1.8,1.8,0,0,1-1.3,1.1H84.7a1.1,1.1,0,0,1-.8-.3l-.3-.2a1.8,1.8,0,0,1-1-1.1,3.6,3.6,0,0,1-.2-1,14.8,14.8,0,0,1-.2-4.2c.1-.5.1-.9.2-1.4A5.3,5.3,0,0,1,82.7,4a3,3,0,0,1,.4-1,2.3,2.3,0,0,1,1.4-.8h1.9a2.3,2.3,0,0,1,1.6,2c0,.5.1,1,.1,1.6a10.5,10.5,0,0,1,0,2.5Zm-.4-1.4a13.4,13.4,0,0,0,0-2c0-.2-.1-.4-.1-.6V4.4a1.7,1.7,0,0,0-1.6-1.7h-.3a3.6,3.6,0,0,0-1.4.2,1,1,0,0,0-.5.4A5.1,5.1,0,0,0,82.9,5a4.9,4.9,0,0,0-.1,1.2,14.3,14.3,0,0,0-.1,2.9,7.7,7.7,0,0,0,.2,1.5,1.9,1.9,0,0,0,.3,1,1.3,1.3,0,0,0,.7.9H84a1.4,1.4,0,0,0,1.4.3h.4c.3,0,.5-.2.7-.5a6.2,6.2,0,0,0,1-2.2,13.4,13.4,0,0,0,.1-2Z" style="fill: #fff;stroke: #fff;stroke-miterlimit: 10;stroke-width: 0.10630999505519867px"/>
      <path d="M94.2,12.8v-.2c.1-.6.3-1.2.4-1.9a12.9,12.9,0,0,0,.4-1.9l.3-2.2c.2-.8.3-1.7.5-2.5V3.8l.3-.2c.1.1.2.2.2.3v.3c-.3,1.2-.5,2.4-.7,3.7s-.2,1.7-.4,2.6a10.5,10.5,0,0,1-.4,1.7c-.1.5-.1,1.1-.2,1.6s0,.3-.1.4a.3.3,0,0,1-.3.3c-.1,0-.2,0-.3-.2a.7.7,0,0,1-.1-.5,2.9,2.9,0,0,0-.2-.9,3.5,3.5,0,0,1-.3-1.1v-.4a16.6,16.6,0,0,1-.6-2.1A38.5,38.5,0,0,1,92,4.6c-.1-.1-.1-.3-.2-.5l-.2,1-.7,4.6-.6,3.2a.6.6,0,0,1-.1.4c0,.1-.1.2-.3.2s-.2-.2-.1-.4l.3-2.1c.4-1.8.6-3.7.9-5.5a15.2,15.2,0,0,0,.3-2.1c.1-.2.1-.3.3-.4s.4.1.4.3a2.8,2.8,0,0,1,.4,1.2c.2.9.3,1.8.5,2.7s.5,2.3.8,3.4a9,9,0,0,1,.3,1.6A1.4,1.4,0,0,0,94.2,12.8Z" style="fill: #fff;stroke: #fff;stroke-miterlimit: 10;stroke-width: 0.10630999505519867px"/>
      <path d="M98.1,9.9c.3-.9.5-1.8.9-2.7a3.6,3.6,0,0,1,2-2.3,2.4,2.4,0,0,1,1.4-.2,2.3,2.3,0,0,1,1.8.9c.1.1.1.3.2.4s.1.7.2,1a.5.5,0,0,1-.2.4c-.2,0-.3-.1-.4-.3a1.6,1.6,0,0,0-.2-1,1.8,1.8,0,0,0-.9-.8,2.5,2.5,0,0,0-3,1.2,3.5,3.5,0,0,0-.6,1.4c-.2.7-.5,1.4-.7,2a5.1,5.1,0,0,0-.3,1.7,12,12,0,0,0,0,1.9,2.4,2.4,0,0,0,1.3,1.9,1.8,1.8,0,0,0,2.4-.8h.1c0-.2.1-.2.3-.2s.2.2.1.4h0a2.9,2.9,0,0,1-1.6,1.3,2.1,2.1,0,0,1-2-.5,3.1,3.1,0,0,1-1-1.5c-.1-.3-.1-.7-.2-1.1a9.1,9.1,0,0,1,.1-1.7A7,7,0,0,1,98.1,9.9Z" style="fill: #fff;stroke: #fff;stroke-miterlimit: 10;stroke-width: 0.10630999505519867px"/>
      <path d="M108.8,7.1l.7.2,1.5.5,1.8.6h.2a.2.2,0,0,1,0,.3h-.6l-1.2-.4-2.1-.7H109c-.3.8-.5,1.5-.8,2.2s-.7,1.4-1,2.2l1,.4,1.4.4h.1c.2,0,.3.2.2.3s-.2.2-.3.1l-1.3-.3-1.3-.5-.2.3c-.3.8-.6,1.6-1,2.5l-.6,1.2a.4.4,0,0,0-.1.3c0,.1.1.1.2.2a1.6,1.6,0,0,1,.9.3l2.5.9h.2a.4.4,0,0,1,.1.3l-.3.2h-.2l-2.9-1.1a3.2,3.2,0,0,1-.9-.3c-.3-.1-.3-.2-.2-.5a13,13,0,0,1,.8-1.7l.6-1.3c.5-1.4,1.2-2.8,1.8-4.2a11.8,11.8,0,0,0,.7-2l.2-.4C108.6,7.2,108.6,7.1,108.8,7.1Z" style="fill: #fff;stroke: #fff;stroke-miterlimit: 10;stroke-width: 0.10630999505519867px"/>
      <path d="M116.5,10.5l.4.2,1.1.6.9.5c.1.2.4.3.5.5h.1a2,2,0,0,1,.5,1.8,5.2,5.2,0,0,1-.6,1.6,9.4,9.4,0,0,1-.9,1.2l-.5.3a3.5,3.5,0,0,1-2.5-.2l-1.3-.7H114l-.6.8c-.5.8-.9,1.6-1.3,2.4l-.3.4c-.1.2-.2.2-.3.2s-.2-.2-.1-.4h0c.5-.9,1-1.9,1.6-2.8l.6-1a6.1,6.1,0,0,0,.7-1.4,2,2,0,0,0,.4-.8c.5-.8.9-1.8,1.4-2.7S116.2,10.5,116.5,10.5Zm0,.6c-.2.3-2,4.1-2.2,4.6l.3.2,1.5.7a3.3,3.3,0,0,0,1.7.1l.4-.3a5.3,5.3,0,0,0,1-1.2l.3-1.1a1.7,1.7,0,0,0-.5-1.5h0a12.2,12.2,0,0,0-1.9-1.2Z" style="fill: #fff;stroke: #fff;stroke-miterlimit: 10;stroke-width: 0.10630999505519867px"/>
      <path d="M124.1,15.3l-.8-.5-.2-.2a.3.3,0,0,1,0-.4h.3c.2.1.3.3.5.3l2,1.4,1,.8a4.1,4.1,0,0,1,1.3.8l.5.3c.1.1.2.2.2.3s-.2.3-.4.2l-.7-.4-.9-.7a2.4,2.4,0,0,1-.9-.6l-.4.8a.8.8,0,0,0-.2.4c-1.1,1.4-2,2.9-3.1,4.3L120.9,24l-.8,1h-.4c-.1,0-.2-.1-.1-.3s.1-.1.2-.2l1.9-2.6.6-.8,2.3-3.3a6.4,6.4,0,0,0,.8-1.4v-.2Z" style="fill: #fff;stroke: #fff;stroke-miterlimit: 10;stroke-width: 0.10630999505519867px"/>
      <path d="M133,21.2a2.8,2.8,0,0,1,1.1,1.7c.1.2.2.3.1.5s.1.3.1.4v.3l-.2.2c-.2.1-.3,0-.3-.2a.7.7,0,0,1-.1-.5c0-.2-.1-.4-.1-.6a6.7,6.7,0,0,0-.9-1.4l-.4-.3a1.2,1.2,0,0,0-1.5-.2,2.5,2.5,0,0,0-1.3,2.7,4.3,4.3,0,0,0,.2,1.1,5,5,0,0,1,.2,1.2,3.2,3.2,0,0,0,.3.9c.1.6.3,1.1,0,1.6a3.4,3.4,0,0,1-1.3,1.8l-1.6.4c-.3.1-.6-.1-.9-.2a3.9,3.9,0,0,1-1.8-1.8,4.5,4.5,0,0,1-.3-1.6.6.6,0,0,1,.1-.4c.1-.1.1-.2.3-.1l.2.2a1.4,1.4,0,0,0,.1.9,2.6,2.6,0,0,0,1.3,2l.7.4c.2,0,.3.1.4,0l.8-.2a1.5,1.5,0,0,0,.9-.6,1.9,1.9,0,0,0,.7-1.4c0-.3-.1-.5-.1-.8a4.5,4.5,0,0,1-.3-1.1,18.5,18.5,0,0,1-.4-2.3,4.7,4.7,0,0,1,.2-1.7,2.8,2.8,0,0,1,.6-.8,3.7,3.7,0,0,1,1.6-.9,2.1,2.1,0,0,1,1.2.4C132.8,20.9,132.9,21.1,133,21.2Z" style="fill: #fff;stroke: #fff;stroke-miterlimit: 10;stroke-width: 0.10630999505519867px"/>
    </g>
  </g>
</svg>
