<svg id="Layer_1" data-name="Layer 1" xmlns="http://www.w3.org/2000/svg" viewBox="0 0 138.9 129.8">
  <title>facilitate-thinking</title>
  <g>
    <g>
      <path d="M58,40.8c.2-1.7.6-3.3.9-4.9s.9-3.9,1.3-5.9l1.2-5.6a45,45,0,0,1,1.4-4.9c.1-.3.3-.6.2-.9a.6.6,0,0,0-.7-.1l-2.1.6-3,1.2a24.8,24.8,0,0,0-4.4,2l-3,1.9a44.1,44.1,0,0,0-5.3,3.5,53.2,53.2,0,0,0-4.6,3.7l-2.5,2.2L35,36a18.5,18.5,0,0,0-1.4,1.4l-4,4.2c-.9,1.1-1.8,2.3-2.6,3.5s-1.7,2.6-2.5,3.9a50.1,50.1,0,0,0-3.4,7,2.5,2.5,0,0,0-.2.7l-.6,1.5a29.1,29.1,0,0,0-1.6,5l-.6,3.9a8.6,8.6,0,0,0-.1,1.6c0,.3,0,.6.4.7h.2a12.7,12.7,0,0,1,3.1-2,4.2,4.2,0,0,1,2.1-.6,20.8,20.8,0,0,1,2.5,0,30.4,30.4,0,0,1,6,.5,5.6,5.6,0,0,0,2.2.3H35l3.6.6,3.4.5c2,.2,4,.7,6,1l.8.2,3.1,1.1,3,1H56a1.5,1.5,0,0,0,.2-1.1c-.1-1.1-.1-2.3-.1-3.4s.1-4.5.3-6.7l.3-4.8V54.5a38.9,38.9,0,0,0,.4-4.7C57.2,46.7,57.7,43.8,58,40.8Z" style="fill: #16a8e2"/>
      <path d="M64.2,13.2a23.3,23.3,0,0,0,.4,3.7.9.9,0,0,0,.4.8l1.2-.2c.3-.1.4-.2.5-.6s-.1-.2-.1-.3a11.4,11.4,0,0,1-1.5-3.4,9.5,9.5,0,0,1-.5-2.3c0-.3,0-.5-.3-.7a.8.8,0,0,0-.2.6A19.3,19.3,0,0,1,64.2,13.2Z" style="fill: #ccc"/>
      <path d="M89.3,114.4a.7.7,0,0,0-.1.6,2.9,2.9,0,0,1,.2.9l1.2,4.1a6.1,6.1,0,0,0,.5,1.2,26.1,26.1,0,0,0,1.7,2.8v.3a5.7,5.7,0,0,0,1.2,1.8,6.2,6.2,0,0,0,2.7,2.1l.7.4a2.7,2.7,0,0,0,1.2.3,12,12,0,0,0,3.8-.5l2-1.1.3-.3a6.8,6.8,0,0,0,1.6-3.8.9.9,0,0,0,.1-.5c-.1-1-.5-2-.6-3a1,1,0,0,0-.4-.5,2,2,0,0,1-.9-.9c-.3.1-.4.2-.3.4a14.9,14.9,0,0,0,.2,2.1,2.8,2.8,0,0,1-.2,1.8,2,2,0,0,0-.4.8,2.9,2.9,0,0,1-1.6,1.8l-.8.4c-1.1-.1-2.2,0-3.1-.7a7.5,7.5,0,0,1-3.4-2.7,4.4,4.4,0,0,1-.9-1.8c-.5-1.1-.9-2.1-1.3-3.2s-.5-1.8-.7-2.6a1.9,1.9,0,0,0-.5-1c-.8-.1-1.3.6-2,.6Z" style="fill: #4d4d4d"/>
      <path d="M132.5,44.1a34,34,0,0,0-2.6-5l-1-1.2a25.4,25.4,0,0,0-4-4.6l-2.8-2.2-1.3-.9-2.7-1.5-1.4-1a15.3,15.3,0,0,0-2.1-1.4l-5.8-2.2-3.5-1.2-2.6-.9a17,17,0,0,1-3.2-1,19.8,19.8,0,0,0-3.9-1.3L93.1,19a10.5,10.5,0,0,0-2.4-.6L89,18.1c-1.8-.2-3.6-.7-5.4-.8a9.7,9.7,0,0,0-2.9-.2H75.4l-1.8.2-2.1.3c-.3,0-.7,0-.7.4l.4.4a4.6,4.6,0,0,1,1.4.7l1,.7L80,23.6a22.6,22.6,0,0,1,2.6,1.6l3,2,1.9,1.4a12.9,12.9,0,0,1,2.1,1.9l.4.5a16.4,16.4,0,0,1,2.7,3.2c.6.9,1.1,1.8,1.7,2.6a25.4,25.4,0,0,1,2.3,3.4,52.3,52.3,0,0,1,3.7,7,45.2,45.2,0,0,1,1.8,4.7c.3,1.2.8,2.3,1.2,3.5s.9,2.6,1.3,3.9a1.4,1.4,0,0,0,.2.6c.3.2.5.2.7-.1s.4-.5.7-.8a32,32,0,0,1,2.7-2.5,22.6,22.6,0,0,1,4.9-3.1l1.7-.9,2.2-1a28.5,28.5,0,0,0,3.1-1.2,4.6,4.6,0,0,1,1.6-.7l4.2-1.1a4.1,4.1,0,0,1,1.6-.3,19.3,19.3,0,0,1,2.4.1c.1.1.3,0,.4,0a4.2,4.2,0,0,1,1.6.1c.2,0,.4.2.7.1a1.1,1.1,0,0,0,.1-.5A15.9,15.9,0,0,0,132.5,44.1Z" style="fill: #16a8e2"/>
      <path d="M103.1,57.4l-1.2-3.6a46.2,46.2,0,0,0-2.3-6.2,46.4,46.4,0,0,0-4.3-7.9l-.3-.5c-.9-1.7-2.1-3.2-3.1-4.8a8.6,8.6,0,0,0-1.4-1.8,27.2,27.2,0,0,0-2.4-2.4A25.9,25.9,0,0,0,84,27.1l-.6-.3a30.6,30.6,0,0,0-2.9-2.1c-1.7-1.1-3.5-1.9-5.2-3.1a.1.1,0,0,1-.1-.1,31.2,31.2,0,0,1-3.5-2,8.8,8.8,0,0,0-2.2-1,2.3,2.3,0,0,0-1.4-.1l-.5.2c-.4-.1-.7-.3-1.1-.1a3.3,3.3,0,0,1-2.2.3H64a1.2,1.2,0,0,0-.5.7,18.3,18.3,0,0,0-.8,2.5c-.4,1.7-.9,3.4-1.2,5.2s-1,4-1.4,6-.6,3-1,4.6a3.6,3.6,0,0,1-.2,1c-.1,1.1-.3,2.2-.4,3.3s-.3,1.9-.4,2.9-.2,2.1-.2,3.1-.1,2.9-.3,4.4-.2,3.3-.3,4.9a9.1,9.1,0,0,1-.1,1.7,36.7,36.7,0,0,0-.3,4.6,41.7,41.7,0,0,0,0,5,10.6,10.6,0,0,0,.5,3.5l.4.4a.6.6,0,0,0,.4-.8.8.8,0,0,1,.2-.5h.8l1.5-1.2c.5-.3,1-.8,1.6-1.1a18.3,18.3,0,0,1,2.4-1.3,65.9,65.9,0,0,1,7.5-2.5l2.9-.8,2.4-.6c1.7-.3,3.3-.8,5-1.2a16.5,16.5,0,0,1,3.1-.4l3.4-.4a33.2,33.2,0,0,0,4.4-.6l4.4-.6a3.8,3.8,0,0,1,1.5,0c1.3.4,2.7.4,4.1.8s.5.1.7-.3a1.7,1.7,0,0,0-.1-.7A17.1,17.1,0,0,0,103.1,57.4Z" style="fill: #16a8e2"/>
      <path d="M57.8,74.5c.1-.2.1-.2,0-.5S57.5,74.4,57.8,74.5Z" style="fill: #fff"/>
      <path d="M77.1,65.5a.8.8,0,0,0-.5-.5.5.5,0,0,0-.5.3,2.4,2.4,0,0,0,.1,1.2,11.7,11.7,0,0,0,.5,2,53.3,53.3,0,0,1,1.7,6.6c.4,1.7,1,3.3,1.4,5a35.8,35.8,0,0,1,1.1,3.5,21.7,21.7,0,0,0,.7,2.4c.4,1.2.7,2.5,1,3.8A41.9,41.9,0,0,0,85,97.4a7.6,7.6,0,0,1,.6,1.8c.5,2.3,1.4,4.5,2,6.8a.4.4,0,0,0,.1.3c.3,1.1.7,2.2,1,3.4s.6,1.6.9,2.5a.7.7,0,0,0,.7.6.6.6,0,0,0,.5-.5,1.1,1.1,0,0,0-.1-.5,24.5,24.5,0,0,0-.8-2.9l-1.5-5.2c-.4-1.5-.8-3-1.3-4.6s-1.1-3.7-1.8-5.5l-.6-1.5-1.8-4.7a40,40,0,0,1-2.1-6.7c-.5-2.5-1.2-4.8-1.9-7.2-.1-.4-.3-.9-.4-1.4s-.7-2.9-.9-4.4A14.2,14.2,0,0,0,77.1,65.5Z" style="fill: #ccc"/>
      <path d="M134.4,47.2a3.2,3.2,0,0,1-.3-.9,21.7,21.7,0,0,0-.7-2.4c-.6-1.4-1.4-2.6-2-4a5.4,5.4,0,0,0-1-1.6l-1.5-1.8a7.1,7.1,0,0,0-1-1.4,13.8,13.8,0,0,0-3.1-2.8c-.2-.1-.3-.4-.5-.5s-1.5-1.3-2.4-1.9l-2.5-1.5-1.6-1a24,24,0,0,0-2.9-1.9l-1.9-.7-6.1-2.2a11.5,11.5,0,0,0-1.7-.6l-3.5-1.2-1.8-.6a14.2,14.2,0,0,0-2.9-1,26.2,26.2,0,0,0-4-1.1,25.7,25.7,0,0,0-4-.8l-4.4-.7a12.7,12.7,0,0,0-2.8-.3,8.9,8.9,0,0,0-2.3.1,5.7,5.7,0,0,1-1.3,0h-.7a59.8,59.8,0,0,0-7.4.7,4.1,4.1,0,0,1-1.9-.1,2.7,2.7,0,0,1-.7-.8c-1-1.4-1.3-3.1-1.9-4.6s0-.4-.1-.6a9,9,0,0,0-.3-1.6,8.4,8.4,0,0,1-.5-1.7c-.2-1.2-.5-2.5-.7-3.7s-.1-.2-.2-.3a.6.6,0,0,0-.7.1,4.6,4.6,0,0,0-.2,2.6,17.3,17.3,0,0,1,.3,3.2,1.4,1.4,0,0,0,.2.7c0,.7.2,1.3.2,1.9a30.5,30.5,0,0,0,.1,4.3.7.7,0,0,1-.1.6.6.6,0,0,1-.6.3l-.8-.3-.8.6-.6.4-3.9,1.5-4.1,1.9-3.5,2.1-3.5,2.3c-1.2.8-2.4,1.6-3.5,2.5s-4,3.4-5.9,5.2-2.4,2.3-3.5,3.5L30,40.2a30.5,30.5,0,0,0-3.8,4.9l-1.8,2.8A36.2,36.2,0,0,0,22,52.2l-.7,1.5c-.3.8-.7,1.5-1,2.3a24.1,24.1,0,0,1-.8,2.5A14.5,14.5,0,0,0,18.3,62a31.3,31.3,0,0,0-1,6,9,9,0,0,1-.3,1.6,22.1,22.1,0,0,0-1.4,5.2,1.3,1.3,0,0,0,.1.6.5.5,0,0,0,.5.3l.4-.2c.1-.2.1-.4.2-.6s.3-1.1.4-1.7a24,24,0,0,1,1.1-2.3l.3-.4a12.7,12.7,0,0,1,3.9-2.6,2.2,2.2,0,0,1,1.4-.2h5.3l1.8.2,1.8.3c1.4.3,2.9.1,4.2.7h.1a9.7,9.7,0,0,1,3.4.5h1.4c1.1.3,2.2.3,3.3.7h.5a19.1,19.1,0,0,1,5.2,1.4,13.8,13.8,0,0,0,2.7.8l2,.5a.8.8,0,0,1,.6.4c.4,1.5,1.2,2.9,1.1,4.5a.9.9,0,0,0,.8.5,3.1,3.1,0,0,0,.3-1.3c.1-1,.3-1.9.4-2.9a2.7,2.7,0,0,1,1-1.9l.7-.8a14.1,14.1,0,0,1,4.4-2.7l3.4-1.3,3.3-1.1,2.2-.6a2.2,2.2,0,0,1,1.4,0,21.7,21.7,0,0,0,.7,2.4l.3,1.3a21.2,21.2,0,0,1,1,3.6,55.4,55.4,0,0,0,1.4,5.5c.1.4.3.8.4,1.2s.9,2.9,1.3,4.4.7,2.3,1.1,3.5a24.9,24.9,0,0,1,.9,3.7c.4,1.4.8,2.8,1.3,4.2s.9,2.3,1.3,3.5,1.3,4.4,1.9,6.5l1.5,5.3c.1.6.3,1.3.4,1.9s-1.1.7-1.3,1.1.5.5.8.8.5,1.7.8,2.6a8.3,8.3,0,0,0,.7,2.7c.1.1.1.2.1.4a3.6,3.6,0,0,0,.4.9l1.2,2.4.3.5a6.4,6.4,0,0,1,.8,1.4,9.1,9.1,0,0,0,1.8,2.1,7.3,7.3,0,0,0,2.8,1.7h.3a2.5,2.5,0,0,0,1.7.4h.6a6.7,6.7,0,0,0,3.9-1h.2c1.6-.5,2.3-1.8,2.9-3.2a16.6,16.6,0,0,0,.6-2.1,1.3,1.3,0,0,0,.1-.6,11.6,11.6,0,0,0-.4-1.8,5.3,5.3,0,0,1-.3-1.2,5.2,5.2,0,0,0-.9-2c-.1-.3-.4-.5-.8-.7s-1.6-.2-2.3.5a.9.9,0,0,0,.3.7,2.7,2.7,0,0,1,.5,1.1,7,7,0,0,1,0,2.5,3.4,3.4,0,0,1-.7,1.5,2.4,2.4,0,0,1-1.7,1.2,4.6,4.6,0,0,1-2.3-.5l-.8-.5a7.8,7.8,0,0,1-2.7-2.4c0-.1-.1-.3-.1-.4l-.4-.8c-.1-.3-.3-.5-.3-.8a7.6,7.6,0,0,0-.6-1.6l-.4-.9c-.4-1.2-.7-2.4-1.1-3.6a.6.6,0,0,0,.1-.4c.1-.1,0-.3,0-.4s-.6-.1-.8-.5a19.8,19.8,0,0,1-.8-2.6,4.9,4.9,0,0,0-.4-1.1,12.1,12.1,0,0,1-.5-1.8,9.4,9.4,0,0,0-.4-1.6,4.3,4.3,0,0,1-.5-1.6c-.7-2.2-1.2-4.5-2-6.7s-1.6-4.1-2.3-6.2S84,88.1,83.6,87a32.5,32.5,0,0,1-2-6,54.7,54.7,0,0,0-1.5-5.8c-.4-1.4-.9-2.9-1.2-4.3s-.3-1.4-.4-2.1a11.3,11.3,0,0,0-.6-3.1.8.8,0,0,1,0-.9l.5-.2,1.1-.3a6.5,6.5,0,0,1,1.9-.4l1.2-.3,1.2-.3,3.8-.4,1.3-.2,4.2-.5c1-.2,2-.2,3-.3h.8a4.4,4.4,0,0,1,2.3-.1,5.8,5.8,0,0,0,1.9.3h.6a6.5,6.5,0,0,0,2,.4l.2.2.8,1.3,1.5,2.6h.3c.2,0,.4,0,.5-.2a3.9,3.9,0,0,0-.2-1.5,7.8,7.8,0,0,1-.5-1.4,9.5,9.5,0,0,1-.5-2.3,7.4,7.4,0,0,1,2.6-3.2l.6-.5a5.3,5.3,0,0,1,1.2-1c.8-.4,1.5-1,2.3-1.5a50.4,50.4,0,0,1,8.8-4,5.2,5.2,0,0,1,1.3-.6,16.6,16.6,0,0,0,2.1-.6,18.6,18.6,0,0,1,4.1-.8h1.7a2.7,2.7,0,0,1,.9,0c.8,0,1.4.4,2.2.4s.2.3.2.5a13.3,13.3,0,0,1,1,2.8,1.6,1.6,0,0,0,.5,1,.6.6,0,0,0,.6-.5c0-.2.1-.5.1-.8a2.6,2.6,0,0,0-.1-1.5C135.4,49.8,135,48.4,134.4,47.2Zm-70.1-37c.3.2.3.4.3.7a9.5,9.5,0,0,0,.5,2.3,11.4,11.4,0,0,0,1.5,3.4c0,.1,0,.3.1.3s-.2.5-.5.6l-1.2.2a.9.9,0,0,1-.4-.8,23.3,23.3,0,0,1-.4-3.7,19.3,19.3,0,0,0-.1-2.4A.8.8,0,0,1,64.3,10.2ZM56.7,55.9l-.3,4.8c-.2,2.2-.3,4.4-.3,6.7s0,2.3.1,3.4a1.5,1.5,0,0,1-.2,1.1H54.9l-3-1-3.1-1.1-.8-.2c-2-.3-4-.8-6-1l-3.4-.5L35,67.5h-.5a5.6,5.6,0,0,1-2.2-.3,30.4,30.4,0,0,0-6-.5,20.8,20.8,0,0,0-2.5,0,4.2,4.2,0,0,0-2.1.6,12.7,12.7,0,0,0-3.1,2h-.2c-.4-.1-.4-.4-.4-.7a8.6,8.6,0,0,1,.1-1.6l.6-3.9a29.1,29.1,0,0,1,1.6-5l.6-1.5a2.5,2.5,0,0,1,.2-.7,50.1,50.1,0,0,1,3.4-7c.8-1.3,1.6-2.6,2.5-3.9s1.7-2.4,2.6-3.5l4-4.2A18.5,18.5,0,0,1,35,36l2.4-2.4,2.5-2.2a53.2,53.2,0,0,1,4.6-3.7,44.1,44.1,0,0,1,5.3-3.5l3-1.9a24.8,24.8,0,0,1,4.4-2l3-1.2,2.1-.6a.6.6,0,0,1,.7.1c.1.3-.1.6-.2.9a45,45,0,0,0-1.4,4.9L60.2,30c-.4,2-.9,3.9-1.3,5.9s-.7,3.2-.9,4.9-.8,5.9-.9,9a38.9,38.9,0,0,1-.4,4.7Zm1.1,18.6c-.3-.1-.2-.2,0-.5S57.9,74.3,57.8,74.5Zm33.8,39.1a1.9,1.9,0,0,1,.5,1c.2.8.4,1.7.7,2.6s.8,2.1,1.3,3.2a4.4,4.4,0,0,0,.9,1.8,7.5,7.5,0,0,0,3.4,2.7c.9.7,2,.6,3.1.7l.8-.4a2.9,2.9,0,0,0,1.6-1.8,2,2,0,0,1,.4-.8,2.8,2.8,0,0,0,.2-1.8,14.9,14.9,0,0,1-.2-2.1c-.1-.2,0-.3.3-.4a2,2,0,0,0,.9.9,1,1,0,0,1,.4.5c.1,1,.5,2,.6,3a.9.9,0,0,1-.1.5,6.8,6.8,0,0,1-1.6,3.8l-.3.3-2,1.1a12,12,0,0,1-3.8.5,2.7,2.7,0,0,1-1.2-.3l-.7-.4a6.2,6.2,0,0,1-2.7-2.1,5.7,5.7,0,0,1-1.2-1.8V124a26.1,26.1,0,0,1-1.7-2.8,6.1,6.1,0,0,1-.5-1.2l-1.2-4.1a2.9,2.9,0,0,0-.2-.9.7.7,0,0,1,.1-.6l.3-.2C90.3,114.2,90.8,113.5,91.6,113.6ZM78.5,72.1c.1.5.3,1,.4,1.4.7,2.4,1.4,4.7,1.9,7.2a40,40,0,0,0,2.1,6.7l1.8,4.7.6,1.5c.7,1.8,1.3,3.7,1.8,5.5s.9,3.1,1.3,4.6l1.5,5.2a24.5,24.5,0,0,1,.8,2.9,1.1,1.1,0,0,1,.1.5.6.6,0,0,1-.5.5.7.7,0,0,1-.7-.6c-.3-.9-.7-1.7-.9-2.5s-.7-2.3-1-3.4a.4.4,0,0,1-.1-.3c-.6-2.3-1.5-4.5-2-6.8a7.6,7.6,0,0,0-.6-1.8,41.9,41.9,0,0,1-2.4-7.6c-.3-1.3-.6-2.6-1-3.8a21.7,21.7,0,0,1-.7-2.4,35.8,35.8,0,0,0-1.1-3.5c-.4-1.7-1-3.3-1.4-5a53.3,53.3,0,0,0-1.7-6.6,11.7,11.7,0,0,1-.5-2,2.4,2.4,0,0,1-.1-1.2.5.5,0,0,1,.5-.3.8.8,0,0,1,.5.5,14.2,14.2,0,0,1,.5,2.2C77.8,69.2,78.3,70.6,78.5,72.1Zm24.9-10.7c-1.4-.4-2.8-.4-4.1-.8a3.8,3.8,0,0,0-1.5,0l-4.4.6a33.2,33.2,0,0,1-4.4.6l-3.4.4a16.5,16.5,0,0,0-3.1.4c-1.7.4-3.3.9-5,1.2l-2.4.6-2.9.8a65.9,65.9,0,0,0-7.5,2.5A18.3,18.3,0,0,0,62.3,69c-.6.3-1.1.8-1.6,1.1l-1.5,1.2h-.8a.8.8,0,0,0-.2.5.6.6,0,0,1-.4.8l-.4-.4a10.6,10.6,0,0,1-.5-3.5,41.7,41.7,0,0,1,0-5,36.7,36.7,0,0,1,.3-4.6,9.1,9.1,0,0,0,.1-1.7c.1-1.6.1-3.3.3-4.9s.2-2.9.3-4.4.1-2.1.2-3.1.3-2,.4-2.9.3-2.2.4-3.3a3.6,3.6,0,0,0,.2-1c.4-1.6.7-3.1,1-4.6s.9-4,1.4-6,.8-3.5,1.2-5.2a18.3,18.3,0,0,1,.8-2.5,1.2,1.2,0,0,1,.5-.7h.3a3.3,3.3,0,0,0,2.2-.3c.4-.2.7,0,1.1.1l.5-.2a2.3,2.3,0,0,1,1.4.1,8.8,8.8,0,0,1,2.2,1,31.2,31.2,0,0,0,3.5,2,.1.1,0,0,0,.1.1c1.7,1.2,3.5,2,5.2,3.1a30.6,30.6,0,0,1,2.9,2.1l.6.3a25.9,25.9,0,0,1,4.1,3.1,27.2,27.2,0,0,1,2.4,2.4,8.6,8.6,0,0,1,1.4,1.8c1,1.6,2.2,3.1,3.1,4.8l.3.5a46.4,46.4,0,0,1,4.3,7.9,46.2,46.2,0,0,1,2.3,6.2l1.2,3.6a17.1,17.1,0,0,1,.9,3,1.7,1.7,0,0,1,.1.7C103.9,61.5,103.6,61.4,103.4,61.4Zm30-12.9c-.3.1-.5-.1-.7-.1a4.2,4.2,0,0,0-1.6-.1c-.1,0-.3.1-.4,0a19.3,19.3,0,0,0-2.4-.1,4.1,4.1,0,0,0-1.6.3l-4.2,1.1a4.6,4.6,0,0,0-1.6.7,28.5,28.5,0,0,1-3.1,1.2l-2.2,1-1.7.9a22.6,22.6,0,0,0-4.9,3.1,32,32,0,0,0-2.7,2.5c-.3.3-.4.6-.7.8s-.4.3-.7.1a1.4,1.4,0,0,1-.2-.6c-.4-1.3-.8-2.6-1.3-3.9s-.9-2.3-1.2-3.5a45.2,45.2,0,0,0-1.8-4.7,52.3,52.3,0,0,0-3.7-7,25.4,25.4,0,0,0-2.3-3.4c-.6-.8-1.1-1.7-1.7-2.6A16.4,16.4,0,0,0,90,31l-.4-.5a12.9,12.9,0,0,0-2.1-1.9l-1.9-1.4-3-2A22.6,22.6,0,0,0,80,23.6l-6.4-3.7-1-.7a4.6,4.6,0,0,0-1.4-.7l-.4-.4c0-.4.4-.4.7-.4l2.1-.3,1.8-.2h5.3a9.7,9.7,0,0,1,2.9.2c1.8.1,3.6.6,5.4.8l1.7.3a10.5,10.5,0,0,1,2.4.6l2.5.7A19.8,19.8,0,0,1,99.5,21a17,17,0,0,0,3.2,1l2.6.9,3.5,1.2,5.8,2.2a15.3,15.3,0,0,1,2.1,1.4l1.4,1,2.7,1.5,1.3.9,2.8,2.2a25.4,25.4,0,0,1,4,4.6l1,1.2a34,34,0,0,1,2.6,5,15.9,15.9,0,0,1,1,3.9A1.1,1.1,0,0,1,133.4,48.5Z" style="fill: #333"/>
      <g style="opacity: 0.1">
        <path d="M62.8,18.2c-1.9,2-2.8,4.8-3.6,7.5-1.7,5.7-3.1,11.6-5.3,17.1-3.5,9.3-9.2,17.6-14.8,25.7,5.7,1.1,12,2.6,17.6,4.1-.2-3.1-.3-6.9-.3-10s.5-5.7.8-8.6.4-8.3.9-12.4.9-5.3,1.5-8C60.8,28.3,61.7,23.3,64,18l-1.7-.2"/>
      </g>
      <g style="opacity: 0.1">
        <path d="M69,18c-.4-.1-1.2-.1-1.2.3s.6,1,.9,1.3c2.5,3.4,6.6,5.3,9.4,8.5a20.9,20.9,0,0,1,3.6,6.1c3.9,9.3,3.8,18.5,3.6,28.7,5.5-1.3,16.9-2.2,18.2-.7s.5-.1.6-.2a1,1,0,0,0,.2-.7,14,14,0,0,0-1.4-5.6,63.7,63.7,0,0,1-2.3-6.1C98,40.2,90.1,31.5,88.2,29.8A81.9,81.9,0,0,0,79.9,24c-1.7-.8-3.4-1.9-5-2.8A36.2,36.2,0,0,1,71.7,19a5,5,0,0,0-3.5-1"/>
      </g>
      <g style="opacity: 0.1">
        <path d="M71.7,17.5A50,50,0,0,1,90.5,20a180.8,180.8,0,0,1,17.7,7,67.3,67.3,0,0,1,10.3,5.4,33.6,33.6,0,0,1,12.2,14.7,4.4,4.4,0,0,0,1,1.6,1.4,1.4,0,0,0,1.8,0,2.3,2.3,0,0,0,.1-2,31.6,31.6,0,0,0-12.5-16.9c-5.9-4.1-13.7-6.2-20.5-8.6a91.7,91.7,0,0,0-12.7-3.5c-4.5-.9-9-.8-13.6-.8"/>
      </g>
      <g style="opacity: 0.1">
        <path d="M90.1,113.6l1.7,4.3c.9,2.3,1.8,4.7,3.5,6.5a6.8,6.8,0,0,0,6.5,2.4c2.2-.5,3.7-2.4,4.9-4.2a6.3,6.3,0,0,1-3.2,5.7,9,9,0,0,1-2.3.8,8.1,8.1,0,0,1-3.1.1,9,9,0,0,1-5.7-4.2,23.8,23.8,0,0,1-2.5-6.9l-1.1-3.8c0-.2-.1-.4,0-.5s.9.1,1.3-.1"/>
      </g>
    </g>
    <g>
      <path d="M2.6,67.4c.1-.3.1-.7.2-1.1a11.6,11.6,0,0,0,.4-1.8c0-.4.1-.8.1-1.1a.9.9,0,0,1,.3-.7h.3c.1.4-.1.7-.1,1.1s-.1.7-.1,1A3.6,3.6,0,0,1,3.5,66l-.3,1.1,4.4,1c.1,0,.1-.1.1-.2s.1-.8.2-1.2.3-1.3.4-1.9.2-.3.4-.3a.5.5,0,0,1,.2.4L8.6,66c-.1.4-.1.9-.2,1.4l-.2.8c.1.2.2.1.3.2l2.3.5.9.2,1.3.4h.4c.1,0,.1.2.1.3s-.2.2-.3.1a6.5,6.5,0,0,1-2-.5h-.4L7,68.5l-2.3-.6L3,67.6Z" style="fill: #fff;stroke: #fff;stroke-miterlimit: 10;stroke-width: 0.10630999505519867px"/>
      <path d="M5.3,57.2c0-.2.2-.2.4-.3h6.9a12.1,12.1,0,0,0,1.9,0,8.6,8.6,0,0,0,1.6,0h.4a.2.2,0,0,1,0,.4h-.1a9.7,9.7,0,0,1-1.7,0H13a29.9,29.9,0,0,1-.9,3.2.8.8,0,0,0,.4.4l1.2.8.9.7h.1c.1.1.1.3,0,.3s-.3.2-.4.1l-.2-.2a11.8,11.8,0,0,0-1.8-1.3L11,60.9c-1.6-.9-3.1-2-4.7-3l-.7-.4Zm1.3.2c.3.3,4.5,3,5,3.2a26.3,26.3,0,0,0,.9-3H10.3a14.1,14.1,0,0,1-2.9-.1Z" style="fill: #fff;stroke: #fff;stroke-miterlimit: 10;stroke-width: 0.10630999505519867px"/>
      <path d="M12.3,54,9.8,52.7a3.8,3.8,0,0,1-2-2.3,2.2,2.2,0,0,1,0-1.4,2.3,2.3,0,0,1,1.1-1.6l.5-.2a2.7,2.7,0,0,1,.9,0c.3,0,.4.1.4.2s-.1.3-.4.3H9.4a1.4,1.4,0,0,0-.9.8,2.4,2.4,0,0,0,.7,3.1,10.1,10.1,0,0,0,1.3.9,11.1,11.1,0,0,1,1.9.9l1.7.5a6.2,6.2,0,0,0,1.9.2,2.5,2.5,0,0,0,2-1,1.7,1.7,0,0,0-.4-2.4h-.2a.6.6,0,0,1-.1-.4h.5A2.5,2.5,0,0,1,18.9,52a2.2,2.2,0,0,1-.8,2,3.3,3.3,0,0,1-1.6.7H15.4l-1.7-.2Z" style="fill: #fff;stroke: #fff;stroke-miterlimit: 10;stroke-width: 0.10630999505519867px"/>
      <path d="M11.7,42.8l-.2.2a.2.2,0,0,1-.3,0c-.1-.1-.1-.1-.1-.3a.3.3,0,0,0,.1-.2,11.9,11.9,0,0,0,.8-1.6,5.6,5.6,0,0,1,.5-.8c0-.1,0-.1.1-.1h.3c.1.1.2.2.1.3s-.1.2-.1.3a1.1,1.1,0,0,0-.3.7l.3.2,2,1.1,1.5.8L19.3,45l1.6,1h.3l.6-1.1a.3.3,0,0,1,.1-.2h.3c.1.1.2.2.2.3l-.2.5L21,47.8c-.1.1-.1.2-.2.2s-.1.1-.3.1a.5.5,0,0,1,0-.6l.5-.9-.4-.2-1.2-.7c-1.4-.8-2.8-1.7-4.2-2.4l-1.9-1.1-1-.5Z" style="fill: #fff;stroke: #fff;stroke-miterlimit: 10;stroke-width: 0.10630999505519867px"/>
      <path d="M24.1,41.4c.4-.7.9-1.2,1.3-1.8l1.3-1.8c.3.1.4.2.3.5a13.1,13.1,0,0,1-1.7,2.4,4.4,4.4,0,0,0-.8,1.1l-.3.3-.4-.2-1.4-1.1-1.1-.7-2-1.3-3.2-2.2-.9-.5c-.2-.1-.3-.3-.2-.4s.2-.2.4-.1l1.1.6,3.7,2.6,1.3.8,1.5,1Z" style="fill: #fff;stroke: #fff;stroke-miterlimit: 10;stroke-width: 0.10630999505519867px"/>
      <path d="M21.3,28.5h-.5c0-.1-.1-.2,0-.3s.1-.1.1-.2l1.2-1.4a2.2,2.2,0,0,1,.6-.7h.5c.1.1.1.3,0,.3s-.1.2-.2.3l-.5.6.3.3a13,13,0,0,1,1.8,1.5l1.2,1.2,2.5,2.2a8.6,8.6,0,0,0,1.4,1.3c0,.1.1.1.2.2l.8-.9c0-.1.1-.1.1-.2a.3.3,0,0,1,.4,0,.2.2,0,0,1,0,.3.8.8,0,0,1-.2.4c-.6.6-1.1,1.4-1.7,2l-.2.2a.2.2,0,0,1-.3,0,.4.4,0,0,1-.1-.3l.2-.2.6-.8c0-.2-.2-.3-.3-.4l-1-.9-3.5-3.3L23,28.2l-.8-.7Z" style="fill: #fff;stroke: #fff;stroke-miterlimit: 10;stroke-width: 0.10630999505519867px"/>
      <path d="M27,22.6a4.6,4.6,0,0,0-.7.7H26a.2.2,0,0,1-.3-.1c-.1-.1-.1-.3,0-.3l.5-.4L28,21a7.3,7.3,0,0,0,.9-.8,6,6,0,0,1,1.2-1.1c.2-.1.3-.3.4-.4h.3c.2.1.3.3.1.4s-.3.5-.6.6a2.7,2.7,0,0,0-.8.7,6,6,0,0,1-.8.8l.7.6c.1.1.2.2.2.3l3.5,3.9,1.5,1.8.8,1.1h.1q.2.3,0,.3a.3.3,0,0,1-.4,0l-.2-.2-2-2.5-.6-.7-2.7-3.1-1.1-1.1h-.2Z" style="fill: #fff;stroke: #fff;stroke-miterlimit: 10;stroke-width: 0.10630999505519867px"/>
      <path d="M35.1,15.5c.2-.1.3,0,.5.1L37.3,17a6.1,6.1,0,0,0,1.6,1.2l2,1.8a15.8,15.8,0,0,0,1.5,1.2l1.3,1c0,.1.1.2.2.3a.2.2,0,0,1,0,.3h-.4l-1.3-1.1-1.3-1a28.3,28.3,0,0,1-2.8,2,.7.7,0,0,0,.1.5c.1.5.3.9.4,1.4a4.2,4.2,0,0,1,.3,1.2h0a.2.2,0,0,1-.2.2c-.1,0-.2,0-.3-.2v-.2l-.6-2.2c-.2-.5-.3-1-.5-1.5s-1.2-3.5-1.8-5.2l-.3-.8A.9.9,0,0,1,35.1,15.5Zm.9,1c.1.5,1.7,5.2,1.9,5.6a20.3,20.3,0,0,0,2.6-1.8l-1.6-1.4A21.1,21.1,0,0,1,36.6,17Z" style="fill: #fff;stroke: #fff;stroke-miterlimit: 10;stroke-width: 0.10630999505519867px"/>
      <path d="M41.1,12.4l-.8.4H40c-.2.1-.3,0-.3-.2a.4.4,0,0,1,.1-.3l.5-.2,2.2-1.1,1.1-.6A4.6,4.6,0,0,1,45,9.8l.5-.3h.3a.3.3,0,0,1,0,.5l-.7.4-1,.5-1,.6.6.7.2.3,2.4,4.7.9,2.1.6,1.2v.2c.1.2,0,.2-.1.3s-.2,0-.3-.1-.1-.1-.2-.2-.9-2-1.3-2.9a6.3,6.3,0,0,1-.4-.9c-.6-1.3-1.2-2.5-1.9-3.7a5.7,5.7,0,0,0-.8-1.3c0-.1-.1-.1-.1-.2Z" style="fill: #fff;stroke: #fff;stroke-miterlimit: 10;stroke-width: 0.10630999505519867px"/>
      <path d="M48.8,8.2l.7-.4a8.4,8.4,0,0,0,1.4-.6l1.8-.8h.2l.2.2c.1.1,0,.2-.1.3l-.3.2-1.2.5-2.1.8h0a14.3,14.3,0,0,1,.8,2.2,18.7,18.7,0,0,1,.7,2.2l1.1-.4,1.3-.6h.1c.2-.1.3,0,.4.2s0,.2-.2.3l-1.2.5-1.2.5c-.1.2,0,.3,0,.4l.9,2.5a7.4,7.4,0,0,0,.4,1.4.4.4,0,0,0,.1.3c.1,0,.2,0,.2-.1l.9-.4,2.5-.9h.2c.2,0,.3.1.3.2a.4.4,0,0,1-.1.3h-.2l-2.9,1.1-.9.4c-.2.1-.3,0-.5-.3s-.3-1.1-.5-1.7a5.7,5.7,0,0,0-.4-1.4,37.3,37.3,0,0,1-1.4-4.4A10.8,10.8,0,0,0,49,8.9c-.1-.2-.2-.3-.2-.5S48.7,8.3,48.8,8.2Z" style="fill: #fff;stroke: #fff;stroke-miterlimit: 10;stroke-width: 0.10630999505519867px"/>
      <path d="M74,3H72.7c-.2-.1-.2-.2-.2-.4a.2.2,0,0,1,.2-.2.6.6,0,0,0,.6,0H77a4.2,4.2,0,0,1,1.6-.1h.8c.1.2.1.4-.1.4a1.4,1.4,0,0,1-.9.1H76.2l.2.9v.4c.1,1.7.3,3.5.3,5.2a19.3,19.3,0,0,0,.1,2.4v1.5l-.2.2-.3-.2V9.8a3.1,3.1,0,0,0-.1-1c0-1.4-.1-2.7-.1-4.1l-.3-1.6V2.9Z" style="fill: #fff;stroke: #fff;stroke-miterlimit: 10;stroke-width: 0.10630999505519867px"/>
      <path d="M86.6,7.7h-.3a13.1,13.1,0,0,0-2.8,0H82.2c-.2.1-.1.2-.1.3a24.6,24.6,0,0,0-.2,2.6c0,.4-.1.7-.1,1a2.8,2.8,0,0,0-.1.9v.5c0,.2-.1.2-.3.2s-.2,0-.2-.2v-.3c.1-.5.1-1.1.2-1.6v-.5c.1-1.5.2-3,.4-4.5a24.4,24.4,0,0,0,.1-2.7,2,2,0,0,0,0-1.1c0-.1.1-.2.2-.3h.3a.9.9,0,0,1,.1.5c0,.7-.1,1.4-.1,2.2a14.9,14.9,0,0,1-.2,2.1.3.3,0,0,0,.1.2h4.4V6.7c0-1,.2-1.9.2-2.9V2.3l.2-.2.3.2V5.1a17.7,17.7,0,0,0-.1,2.3,12.7,12.7,0,0,1-.1,2L86.8,12c0,.3.1.7.1,1a.4.4,0,0,1-.1.3c0,.2-.1.3-.2.3a.3.3,0,0,1-.3-.3h0a15.1,15.1,0,0,1,.1-3,9.7,9.7,0,0,0,.2-2.4Z" style="fill: #fff;stroke: #fff;stroke-miterlimit: 10;stroke-width: 0.10630999505519867px"/>
      <path d="M91.6,3.4h-.2c-.1,0-.2-.1-.1-.3s.1-.2.2-.1.1,0,.2,0l1.8.2h1.1c.1,0,.1.1.1.2s-.1.3-.2.3H93.4c-.1.1,0,.3-.1.4A7.8,7.8,0,0,1,93,6.3a11,11,0,0,0-.2,1.8l-.6,3.2a12.5,12.5,0,0,0-.3,1.9.2.2,0,0,0,0,.3h1.4c.1,0,.2.1.2.3s-.1.2-.3.2h-.4l-2.6-.3h-.3a.2.2,0,0,1-.2-.2c0-.2.1-.3.2-.3h1.4a.6.6,0,0,0,.1-.4,5.1,5.1,0,0,1,.2-1.3c.3-1.6.6-3.2.8-4.8s.3-1.5.4-2.2a4.1,4.1,0,0,1,.1-1.1Z" style="fill: #fff;stroke: #fff;stroke-miterlimit: 10;stroke-width: 0.10630999505519867px"/>
      <path d="M101,14.3a.1.1,0,0,1,.1-.1,6,6,0,0,1,.6-1.9,13.3,13.3,0,0,0,.5-1.9,16,16,0,0,1,.5-2.1,23.3,23.3,0,0,0,.7-2.5V5.5h.3c.1,0,.2.1.2.3a.3.3,0,0,0-.1.2c-.3,1.2-.6,2.4-1,3.6a26.1,26.1,0,0,1-.6,2.7l-.6,1.6c-.2.5-.2,1.1-.4,1.6v.4c-.1.2-.2.2-.4.2s-.3,0-.3-.2v-.5a2.9,2.9,0,0,0-.2-.9,4.9,4.9,0,0,1-.1-1.2v-.3c-.2-.8-.2-1.5-.4-2.2s-.3-3.2-.4-4.7a1.3,1.3,0,0,0-.1-.6l-.3,1-1.2,4.5c-.2,1.1-.6,2.1-.8,3.2v.3c-.1.2-.2.2-.4.2s-.2-.2-.1-.4l.6-2c.5-1.9.9-3.7,1.4-5.5s.3-1.3.5-2,.1-.3.3-.4.3.2.4.4l.3,1.2c.1.9.1,1.8.2,2.8s.3,2.2.5,3.4a8.6,8.6,0,0,1,.1,1.6A.7.7,0,0,0,101,14.3Z" style="fill: #fff;stroke: #fff;stroke-miterlimit: 10;stroke-width: 0.10630999505519867px"/>
      <path d="M106.4,12h-.3l-.2.2a19.9,19.9,0,0,1-.9,2.6l-.8,1.9-.3.2a.5.5,0,0,1-.2-.4c0-.1.1-.2.1-.3a9.4,9.4,0,0,0,1-2.3c.4-1.2.9-2.3,1.3-3.5s.8-2.4,1.3-3.6V6.6c0-.1.1-.2.3-.2a.4.4,0,0,1,.1.3.4.4,0,0,1-.1.3c-.2.8-.6,1.5-.8,2.3l-.6,1.9c-.1,0-.1.1-.1.2h.9a10.8,10.8,0,0,0,3.9-2.5.8.8,0,0,0,.4-.4h.3a.2.2,0,0,1,.3.1c.1.1,0,.2-.1.3a17.6,17.6,0,0,1-3,2.4,7.7,7.7,0,0,1-1.9.8.9.9,0,0,0-.1.5,8.3,8.3,0,0,0,.4,1.5,11.8,11.8,0,0,1,.7,2c.2.7.5,1.3.7,2a.7.7,0,0,1,.1.5c0,.2-.1.3-.2.3s-.3,0-.4-.2a4.8,4.8,0,0,0-.6-1.8l-.3-1.3c-.2-.4-.3-.9-.5-1.3a9.4,9.4,0,0,1-.4-1.6A.9.9,0,0,0,106.4,12Z" style="fill: #fff;stroke: #fff;stroke-miterlimit: 10;stroke-width: 0.10630999505519867px"/>
      <path d="M116.3,10.8c0-.1-.1-.1-.2-.2a.2.2,0,0,1,0-.3h.5l1.7.8a3,3,0,0,1,.8.4h.1a.2.2,0,0,1,0,.3c0,.1-.1.2-.2.1h-.3l-.7-.3c-.2.1-.2.2-.3.4a9.3,9.3,0,0,1-1,2l-.8,1.5-1.6,2.9-.9,1.7c0,.1-.1.1-.1.3l1.1.5h.2c.1.1.2.2.1.4h-.3l-.4-.2-2.4-1.1h-.2c-.1-.1-.2-.2-.1-.3s.1-.2.3-.2h.2l1,.5c.1-.2.2-.3.2-.5l.6-1.1c.9-1.4,1.6-2.8,2.4-4.3s.7-1.3,1-1.9l.5-1.1Z" style="fill: #fff;stroke: #fff;stroke-miterlimit: 10;stroke-width: 0.10630999505519867px"/>
      <path d="M121.6,24.1h.2a6.1,6.1,0,0,1,1.2-1.6,9.1,9.1,0,0,0,1.1-1.6l1.2-1.8,1.5-2.2a.3.3,0,0,0,.1-.2h.4a.2.2,0,0,1,0,.3.3.3,0,0,1-.1.2l-2.1,3.1-1.5,2.3-1.1,1.3-.9,1.4c-.1.1-.1.2-.2.4H121c-.2-.1-.2-.2-.2-.4a4.3,4.3,0,0,0,.1-.5,2,2,0,0,0,.2-.9c-.1-.4.1-.7.3-1.1a.4.4,0,0,1,.1-.3,7.8,7.8,0,0,1,.4-2.2,34.3,34.3,0,0,1,1.1-4.6,1.1,1.1,0,0,0,.1-.6l-.6.9L119.9,20a24,24,0,0,0-1.8,2.6l-.3.3h-.3a.2.2,0,0,1-.1-.4l1.3-1.8c1.1-1.5,2.1-3.1,3.1-4.6l1.2-1.8c.1-.1.2-.3.4-.2s.2.2.2.4a2.8,2.8,0,0,1-.1,1.3c-.2.9-.5,1.8-.7,2.7s-.5,2.2-.7,3.3a10.5,10.5,0,0,1-.4,1.7A.7.7,0,0,0,121.6,24.1Z" style="fill: #fff;stroke: #fff;stroke-miterlimit: 10;stroke-width: 0.10630999505519867px"/>
      <path d="M130,27.2l-.3-.4-1.3-1.1c-.1-.2-.2-.4,0-.5s.2-.1.4.1l1.5,1.3h.1a.7.7,0,0,1,0,1c-.7.8-1.4,1.7-2.2,2.5l-.6.5a.2.2,0,0,1-.4.1c-.1-.1-.1-.2,0-.4a2.3,2.3,0,0,1,.7-.7h-.5a1.9,1.9,0,0,1-1.8-.4,2.3,2.3,0,0,1-1.2-1.7,2.2,2.2,0,0,1,.3-1.6c0-.2.2-.4.3-.6l1.5-1.8,1.3-1.5a4.3,4.3,0,0,1,1-.9,1,1,0,0,0,.5-.4,4.8,4.8,0,0,1,1.7-.5h.1l1.2.4a2.1,2.1,0,0,1,.8,1.1,2.9,2.9,0,0,1,.2.9,1.7,1.7,0,0,1-.3,1.4c0,.1-.1.1-.1.2s-.3,0-.3-.1-.2-.1-.1-.3h.1a1.4,1.4,0,0,0,.2-1.1,2.6,2.6,0,0,0-.5-1.2,1.5,1.5,0,0,0-1.3-.6,1.4,1.4,0,0,0-1.2.3,9.2,9.2,0,0,0-2.7,2.5l-1.7,2.1a2,2,0,0,0-.5.9,2.1,2.1,0,0,0,1.1,2.2,2.1,2.1,0,0,0,1.9.1l.6-.3a2.7,2.7,0,0,0,.8-.7l.5-.5Z" style="fill: #fff;stroke: #fff;stroke-miterlimit: 10;stroke-width: 0.10630999505519867px"/>
    </g>
  </g>
</svg>
