<svg id="Layer_1" data-name="Layer 1" xmlns="http://www.w3.org/2000/svg" viewBox="0 0 527.6 418.5">
  <title>Open for business</title>
  
  <path d="M205.2,124.9c.6-5.4,1.8-10.7,2.9-16s2.8-12.7,4.2-19.1,2.6-12.3,4.1-18.4,2.4-10.8,4.4-16c.3-.9,1.1-1.9.6-3.1a2.2,2.2,0,0,0-2.2-.3c-2.4.7-4.7,1.3-7,2.2s-6.3,2.7-9.5,3.7a65.3,65.3,0,0,0-14.4,6.7c-3.4,1.9-6.6,4-10,6A168,168,0,0,0,160.9,82c-5.1,3.9-9.9,8.2-14.8,12.3l-8.2,7.3c-2.8,2.5-5.4,5.2-8.1,7.8s-3.1,2.8-4.6,4.4c-4.3,4.6-8.7,9.1-12.8,13.8a122.4,122.4,0,0,0-8.7,11.4c-2.8,4.1-5.4,8.6-8.1,12.9-4.4,7.3-7.7,15.1-11.1,22.9-.3.7-.5,1.5-.8,2.2s-1.1,3.4-1.8,5a97.3,97.3,0,0,0-5.1,16.1c-.9,4.3-1.6,8.7-2.2,13a28,28,0,0,0-.3,5c0,1,.2,2,1.4,2.3l.6-.2c3-2.8,6.7-4.8,10.2-6.7a13.4,13.4,0,0,1,7-1.9h8c6.6.2,13.2.4,19.7,1.8a25.6,25.6,0,0,0,7.3.8l1.6.2,11.8,1.9,10.8,1.5c6.7.8,13.2,2.4,19.9,3.5a10.2,10.2,0,0,1,2.5.6l10,3.6a69.1,69.1,0,0,0,9.8,3,7.7,7.7,0,0,0,3.7.1,5.8,5.8,0,0,0,.7-3.5,84.9,84.9,0,0,1-.3-11.3c-.1-7.3.2-14.6.8-21.8.3-5.2.9-10.4,1.1-15.6.1-1.5,0-3.1.1-4.6.4-5.2,1.1-10.4,1.3-15.5C202.5,144.4,204,134.7,205.2,124.9Z" style="fill: #2f495a"/>
  <path d="M225.5,34.7a71,71,0,0,0,1.2,12.2,2.7,2.7,0,0,0,1.2,2.4l4.1-.5a1.8,1.8,0,0,0,1.5-1.8,3,3,0,0,0-.4-1.1,47.2,47.2,0,0,1-4.7-11.3c-.6-2.4-1.6-4.8-1.5-7.3a2.2,2.2,0,0,0-1.3-2.3,2.4,2.4,0,0,0-.4,2.1A64.4,64.4,0,0,1,225.5,34.7Z" style="fill: #ccc"/>
  <path d="M307.5,365.5a2.5,2.5,0,0,0-.4,2l.8,2.9c1.3,4.6,2.5,9.1,3.9,13.7a12.8,12.8,0,0,0,1.6,3.6c2,3,3.2,6.5,5.4,9.4a4.1,4.1,0,0,1,.5.9,20.5,20.5,0,0,0,3.7,5.8,23.2,23.2,0,0,0,9.1,7,10.6,10.6,0,0,1,2.1,1.1,8.1,8.1,0,0,0,4.1,1.1c4.2,0,8.4-.2,12.4-1.7a49.4,49.4,0,0,0,6.4-3.5,3.8,3.8,0,0,0,1.1-1.1c3.1-3.6,4.4-7.9,5.3-12.4a4.3,4.3,0,0,0,0-1.6c0-3.4-1.4-6.5-1.9-9.7a2.1,2.1,0,0,0-1.1-1.6,9.5,9.5,0,0,1-3.2-3.1c-.8.4-1,.9-.9,1.4a54,54,0,0,0,.8,6.9,7.5,7.5,0,0,1-.8,5.7c-.5.9-.7,1.8-1.1,2.7-1,2.6-2.6,4.9-5.4,5.9a22.1,22.1,0,0,0-2.7,1.2c-3.5-.3-7,.1-9.9-2.1-4.7-1.9-8.2-5.1-11.3-8.9a19.4,19.4,0,0,1-3-5.9c-1.4-3.4-2.9-6.9-4.1-10.4s-1.6-5.8-2.4-8.6a6.4,6.4,0,0,0-1.5-3.1c-2.6-.3-4.2,1.7-6.5,1.9A1.6,1.6,0,0,0,307.5,365.5Z" style="fill: #4d4d4d"/>
  <path d="M448.6,135.7a99.1,99.1,0,0,0-8.5-16.1c-.9-1.5-2.1-2.8-3.1-4.2-3.9-5.4-8.1-10.6-13.3-14.8-3-2.5-6-4.8-9.1-7.2a22.7,22.7,0,0,0-4-2.9c-3.1-1.5-5.9-3.5-8.9-5.2a46.3,46.3,0,0,1-4.6-3.1,46.4,46.4,0,0,0-7-4.5c-6.2-2.7-12.5-5-18.8-7.3l-11.6-4c-2.8-1-5.6-2-8.5-2.8a74.4,74.4,0,0,1-10.4-3.4,97.6,97.6,0,0,0-12.9-4.3c-2.6-.7-5.4-1.2-8-2.1a37.5,37.5,0,0,0-8-2l-5.5-.9c-5.9-.9-11.7-2.3-17.6-2.9-3.2-.3-6.3-1-9.6-.5a61.6,61.6,0,0,1-9.6.2,64.4,64.4,0,0,0-7.6.3l-5.9.6a53.5,53.5,0,0,0-7,.8c-.8.1-2,.2-2.2,1.5a2.3,2.3,0,0,0,1.3,1.1,20.5,20.5,0,0,1,4.6,2.5l3.4,2.1,21,12.1c2.9,1.6,5.6,3.5,8.4,5.3s6.4,4.3,9.6,6.5a75.2,75.2,0,0,1,6.4,4.7c2.5,1.9,5,3.7,6.8,6.3a9.3,9.3,0,0,0,1.5,1.3,56.3,56.3,0,0,1,8.8,10.7c1.9,2.7,3.6,5.6,5.6,8.3s5.1,7.5,7.5,11.3A177.5,177.5,0,0,1,343.7,146c2.1,5.1,4.5,10.1,6,15.4a107.5,107.5,0,0,0,3.9,11.3c1.5,4.2,2.8,8.6,4.2,12.9l.6,1.7c1,.7,1.8.7,2.5-.1s1.3-1.8,2-2.6a65,65,0,0,1,9.1-8.3A87.5,87.5,0,0,1,387.8,166a58.5,58.5,0,0,0,5.6-2.8,31.7,31.7,0,0,1,7.3-3.2,79.2,79.2,0,0,0,10.1-4.1,27.5,27.5,0,0,1,5.1-2.1l13.8-3.7a13.5,13.5,0,0,1,5.2-.8c2.7.3,5.3-.4,7.9.3a3.4,3.4,0,0,0,1.4-.1,13.1,13.1,0,0,1,5.2.3c.7.1,1.2.6,2.1.3a1.5,1.5,0,0,0,.5-1.6A61.9,61.9,0,0,0,448.6,135.7Z" style="fill: #16a8e2"/>
  <path d="M352.7,179.2c-1.3-3.9-2.8-7.7-3.9-11.6a162.8,162.8,0,0,0-7.7-20.5,158.5,158.5,0,0,0-13.9-25.6,16.3,16.3,0,0,1-1.1-1.7c-2.8-5.6-6.8-10.5-10.2-15.9a40.2,40.2,0,0,0-4.5-5.7c-2.4-2.7-5.1-5.2-7.7-7.7a74.8,74.8,0,0,0-13.5-10.2,10.6,10.6,0,0,1-2-1.2c-3-2.3-6.2-4.5-9.5-6.6-5.5-3.7-11.6-6.4-17-10.3l-.3-.2c-4-1.8-7.7-4.4-11.5-6.5a31.6,31.6,0,0,0-7.2-3.4,7,7,0,0,0-4.5-.2l-1.8.5c-1.2-.2-2.2-.8-3.3-.3a14.8,14.8,0,0,1-7.5,1.1c-.3-.1-.6.1-.9.1a4.5,4.5,0,0,0-1.6,2.5c-.9,2.6-1.8,5.2-2.5,7.9-1.5,5.7-2.9,11.3-4.1,17.1s-3.1,13.1-4.5,19.7c-1.1,4.9-2.1,9.9-3.2,14.9-.2,1.2-.5,2.3-.7,3.5-.5,3.5-.8,7-1.3,10.6s-1,6.3-1.4,9.5-.5,6.8-.7,10.2-.3,9.5-.8,14.3-.9,10.8-1.1,16.2a36,36,0,0,1-.4,5.6,147.1,147.1,0,0,0-.9,14.9c-.2,5.4-.1,10.8-.1,16.2a41.1,41.1,0,0,0,1.7,11.5c.3.7.6,1.2,1.4,1.3s1.5-1.5,1.4-2.7a2.3,2.3,0,0,1,.6-1.6l2.6-.2c1.8-1.3,3.1-2.9,4.8-4l5.3-3.5c2.6-1.4,5-3.2,7.8-4.2,8.1-3.1,16.1-6.1,24.5-8.4,3.2-.9,6.4-1.6,9.6-2.4s5.1-1.5,7.7-2c5.5-1.1,11-2.5,16.5-3.8a57.4,57.4,0,0,1,10.1-1.6,105.9,105.9,0,0,0,11.2-1c4.7-.6,9.4-1.1,14.1-2s9.6-1.4,14.4-2a12,12,0,0,1,5,0c4.4,1.4,9,1.1,13.3,2.4a1.9,1.9,0,0,0,2.5-.7,10.7,10.7,0,0,0-.3-2.5C354.7,185.7,353.7,182.4,352.7,179.2Z" style="fill: #de4500"/>
  <path d="M204.4,235.2c.4-.7.4-.7,0-1.7C203.8,234.4,203.6,234.9,204.4,235.2Z" style="fill: #fff"/>
  <path d="M267.5,205.8c-.2-.8-.6-1.5-1.5-1.6a2.1,2.1,0,0,0-1.8,1,7.5,7.5,0,0,0,.3,3.7,47.2,47.2,0,0,0,1.9,6.7c2.4,7.1,3.7,14.4,5.4,21.6,1.2,5.5,3.1,10.8,4.7,16.2,1.1,3.8,2.5,7.5,3.4,11.4a72.7,72.7,0,0,0,2.2,8,103.8,103.8,0,0,1,3.6,12.4,153.2,153.2,0,0,0,7.6,24.7,41.4,41.4,0,0,1,2.1,5.9c1.6,7.6,4.5,14.8,6.4,22.3a3.2,3.2,0,0,0,.3.9c1.2,3.7,2.5,7.4,3.4,11.1s1.9,5.4,2.8,8.1a2.8,2.8,0,0,0,2.5,2.2,2.4,2.4,0,0,0,1.6-1.5,13.5,13.5,0,0,0-.3-1.8c-.8-3.2-1.7-6.4-2.6-9.6-1.7-5.6-3.3-11.2-4.9-16.9s-2.8-9.9-4.3-14.9-3.7-12.3-5.9-18.3c-.6-1.5-1.3-3-1.9-4.6-2-5.1-3.9-10.3-5.9-15.4-2.8-7.2-5.6-14.4-7-22.1a191.6,191.6,0,0,0-6.1-23.4,33.1,33.1,0,0,1-1.2-4.5c-.9-4.8-2.3-9.6-3-14.6C268.9,210.5,268.1,208.1,267.5,205.8Z" style="fill: #ccc"/>
  <path d="M454.9,145.9a10.1,10.1,0,0,1-.9-2.8,42.7,42.7,0,0,0-2.5-7.9c-1.9-4.5-4.3-8.7-6.3-13.2a25.9,25.9,0,0,0-3.4-5.2c-1.7-2-3.2-4-4.8-6a53,53,0,0,0-3.4-4.5c-3.2-3.1-5.9-6.9-9.9-9.2-.7-.4-1.2-1.1-1.8-1.5-2.6-2.1-5.1-4.3-7.8-6.2s-5.5-3.2-8.3-4.9-3.6-2.2-5.3-3.4a58.5,58.5,0,0,0-9.5-6c-2-.9-4.1-1.6-6.1-2.4L365,65.4l-5.6-2L348,59.7a41.4,41.4,0,0,1-5.9-2.1c-3-1.5-6.3-2.2-9.4-3.3s-8.7-2.5-13.1-3.6a110.9,110.9,0,0,0-13-2.7c-4.8-.5-9.6-1.6-14.4-2.3-3-.4-6.1-.8-9.2-1s-5.1.3-7.6.4a15.5,15.5,0,0,1-4.3,0,17.6,17.6,0,0,0-2.3,0c-8.1.5-16.1,1-24.1,2.3a13.9,13.9,0,0,1-6.1-.2,7.1,7.1,0,0,1-2.5-2.7c-3.1-4.6-4.3-9.9-6.1-15-.3-.6-.1-1.3-.3-2s-.3-3.5-1.1-5.2a23.8,23.8,0,0,1-1.4-5.4c-.8-4.1-1.7-8.2-2.5-12.3l-.4-.8c-1-.4-1.8-.5-2.5.3-1.2,2.7-1,5.6-.7,8.5s1.3,6.9,1.2,10.5c0,.8.3,1.5.3,2.3a45.3,45.3,0,0,1,.7,6.2c0,4.7-.3,9.3.6,14a3.2,3.2,0,0,1-.3,1.9,2.8,2.8,0,0,1-2.2,1.1l-2.6-1.1-2.6,2a8.2,8.2,0,0,1-2,1.2l-12.6,5.1A117.8,117.8,0,0,0,188,61.9c-3.8,2.2-7.6,4.6-11.3,6.9s-7.7,4.8-11.4,7.3a122,122,0,0,0-11.5,8.5,236.6,236.6,0,0,0-19.1,17c-3.9,3.8-8,7.3-11.7,11.3s-6.3,6.9-9.4,10.2A105.3,105.3,0,0,0,101.1,139c-1.9,3.1-3.9,6.2-5.9,9.3a124.9,124.9,0,0,0-7.6,13.9l-2.5,5.1c-1,2.4-2.3,4.8-3.1,7.3a51.5,51.5,0,0,1-2.8,8.1c-1.9,3.8-2.8,7.7-3.9,11.7A107.4,107.4,0,0,0,72,213.9a17.7,17.7,0,0,1-.9,5.2c-2.4,5.4-3.2,11.3-4.4,17a2.5,2.5,0,0,0,.1,1.9,1.6,1.6,0,0,0,1.6,1.1,1.6,1.6,0,0,0,1.3-.8,6.2,6.2,0,0,0,.7-1.9l1.5-5.4a29.8,29.8,0,0,1,3.4-7.5,6.1,6.1,0,0,1,1.2-1.6c3.5-3.8,8.1-6.1,12.6-8.3a8.6,8.6,0,0,1,4.5-.8c3.1.1,6.2.1,9.3-.1s5.3.2,7.9.2,4,.5,6,.7l6.1,1c4.5.8,9.3.4,13.7,2.2h.3a34.6,34.6,0,0,1,11.1,1.4,5.8,5.8,0,0,0,2.3.2,16,16,0,0,1,2.3.3c3.5.8,7.2,1.1,10.7,2.2l1.6.2a66.5,66.5,0,0,1,17,4.4,56.2,56.2,0,0,0,8.8,2.8l6.5,1.5a3,3,0,0,1,2.1,1.3c1.3,4.9,3.7,9.6,3.6,14.7.6.9,1.1,1.8,2.6,1.7a9.5,9.5,0,0,0,1.1-4.3c.1-3.2.8-6.3,1.2-9.5a9.4,9.4,0,0,1,3.2-6.3c.8-.7,1.5-1.6,2.3-2.4,4.1-3.9,9.1-6.6,14.2-8.9a116.5,116.5,0,0,1,11.2-4.2c3.6-1.2,7.2-2.8,10.9-3.8l7.1-1.9a7.2,7.2,0,0,1,4.6,0c.8,2.6,1.5,5.3,2.3,7.9a27.7,27.7,0,0,0,1.2,4.1,63.2,63.2,0,0,1,3.1,11.9c1.4,6,2.8,12,4.6,17.9.5,1.4,1,2.8,1.4,4.1,1.2,4.9,2.9,9.5,4.1,14.4s2.2,7.6,3.5,11.4,2.3,8,3.2,12.1a127.2,127.2,0,0,0,4.1,13.7c1.4,3.8,3.1,7.6,4.3,11.5,2.2,7,4.1,14.2,6.1,21.3s3.3,11.5,4.9,17.2c.5,2.1,1,4.3,1.5,6.3-3.5,2.4-3.5,2.4-4.2,3.7s1.6,1.5,2.4,2.5c.9,2.6,1.8,5.5,2.5,8.4s.9,6.1,2.6,8.8a6.5,6.5,0,0,1,.4,1.3,6.8,6.8,0,0,0,1.1,3.1l3.9,7.7a9.5,9.5,0,0,0,1,1.7,34,34,0,0,1,2.8,4.5,22.1,22.1,0,0,0,5.6,6.9c2.9,2.2,5.7,4.5,9.3,5.7l.9.4a8.8,8.8,0,0,0,5.7,1.1h1.7c4.6,0,9-.7,13-3.2l.6-.3c5.1-1.7,7.6-5.8,9.4-10.4a61.3,61.3,0,0,0,2-7,4.7,4.7,0,0,0,.2-2,28.3,28.3,0,0,0-1.1-5.8,11.5,11.5,0,0,1-1.1-3.9c-.2-2.5-1.5-4.6-2.7-6.6a4.6,4.6,0,0,0-2.7-2.2c-2.4.9-5.4-.6-7.6,1.7a3.7,3.7,0,0,0,.9,2.2,5.8,5.8,0,0,1,1.5,3.6c.1,2.7,1,5.3.3,8a16.7,16.7,0,0,1-2.3,5.1c-1.3,2-3.1,3.6-5.6,3.7s-5.3-.1-7.6-1.7l-2.6-1.4c-3.8-1.7-6.2-4.9-8.7-8-.2-.3-.3-.8-.5-1.2l-1.2-2.7a8.2,8.2,0,0,1-1-2.4,20,20,0,0,0-2-5.3c-.4-1-1-2-1.3-3-1.2-3.9-2.3-7.8-3.4-11.8a5.1,5.1,0,0,0,.2-1.3,4.9,4.9,0,0,0,.1-1.2c-.9-.7-2.1-.5-3-1.6-.6-2.7-2-5.5-2.5-8.6a14.2,14.2,0,0,0-1.1-3.5,24.5,24.5,0,0,1-1.8-6,22.7,22.7,0,0,0-1.4-5.1,46.4,46.4,0,0,1-1.6-5.3c-2.2-7.3-3.9-14.7-6.4-22s-5.2-13.3-7.4-20.2c-1.1-3.5-2.8-6.9-4.1-10.4-2.5-6.5-5.3-12.9-6.6-19.8s-3-12.7-4.8-18.9-2.8-9.3-3.8-14.1c-.5-2.2-1-4.5-1.4-6.8s-.8-6.8-2.1-10a3.5,3.5,0,0,1,0-3,2.5,2.5,0,0,1,1.7-.8l3.5-.8a28,28,0,0,1,6.5-1.5,16.2,16.2,0,0,0,3.8-.9,27,27,0,0,1,3.9-.8,106,106,0,0,1,12.5-1.3c1.4-.1,2.8-.6,4.2-.8l13.8-1.8,9.6-.9,2.6-.4c2.5-.2,5-1.1,7.6-.3a18.3,18.3,0,0,0,6.2,1,6.5,6.5,0,0,1,1.9.4,26,26,0,0,0,6.7,1.5c.2,0,.4.2.6.4s1.6,2.8,2.5,4.2l5,8.5.5.5.6.3a1.4,1.4,0,0,0,1.5-.7,8.7,8.7,0,0,0-.8-5c-.5-1.5-1.2-2.9-1.6-4.4s-1.6-5-1.6-7.6c2.2-4.2,4.8-7.8,8.7-10.4.7-.5,1.3-1.2,2-1.8a28.5,28.5,0,0,1,3.8-3.1c2.7-1.4,5-3.3,7.5-4.9,4.6-3.1,9.7-5.3,14.7-7.6s9.4-3.8,14.1-5.6a27.7,27.7,0,0,1,4.3-1.8c2.2-.6,4.4-1.4,6.6-1.9,4.5-1.2,8.9-2.8,13.6-2.6a12.2,12.2,0,0,1,2.7.1,5.7,5.7,0,0,0,2.9-.2,7.6,7.6,0,0,1,3,0c2.4.1,4.6,1.3,7,1.3.3.6.7,1.1.9,1.6a73.6,73.6,0,0,1,3.1,9c.3,1.3.5,2.7,1.7,3.5a1.8,1.8,0,0,0,1.8-1.6c.2-.8.3-1.7.5-2.6a8.5,8.5,0,0,0-.4-5.2C458.3,154.3,457,149.9,454.9,145.9ZM225.6,25a2.2,2.2,0,0,1,1.3,2.3c-.1,2.5.9,4.9,1.5,7.3a47.2,47.2,0,0,0,4.7,11.3,3,3,0,0,1,.4,1.1,1.8,1.8,0,0,1-1.5,1.8l-4.1.5a2.7,2.7,0,0,1-1.2-2.4,71,71,0,0,1-1.2-12.2,64.4,64.4,0,0,0-.3-7.6A2.4,2.4,0,0,1,225.6,25ZM200.9,174.4c-.2,5.2-.8,10.4-1.1,15.6-.6,7.2-.9,14.5-.8,21.8a84.9,84.9,0,0,0,.3,11.3,5.8,5.8,0,0,1-.7,3.5,7.7,7.7,0,0,1-3.7-.1,69.1,69.1,0,0,1-9.8-3l-10-3.6a10.2,10.2,0,0,0-2.5-.6c-6.7-1.1-13.2-2.7-19.9-3.5l-10.8-1.5-11.8-1.9-1.6-.2a25.6,25.6,0,0,1-7.3-.8c-6.5-1.4-13.1-1.6-19.7-1.8h-8a13.4,13.4,0,0,0-7,1.9c-3.5,1.9-7.2,3.9-10.2,6.7l-.6.2c-1.2-.3-1.4-1.3-1.4-2.3a28,28,0,0,1,.3-5c.6-4.3,1.3-8.7,2.2-13A97.3,97.3,0,0,1,81.9,182c.7-1.6,1.2-3.3,1.8-5s.5-1.5.8-2.2c3.4-7.8,6.7-15.6,11.1-22.9,2.7-4.3,5.3-8.8,8.1-12.9a122.4,122.4,0,0,1,8.7-11.4c4.1-4.7,8.5-9.2,12.8-13.8,1.5-1.6,3.1-2.9,4.6-4.4s5.3-5.3,8.1-7.8l8.2-7.3c4.9-4.1,9.7-8.4,14.8-12.3a168,168,0,0,1,17.4-11.4c3.4-2,6.6-4.1,10-6a65.3,65.3,0,0,1,14.4-6.7c3.2-1,6.3-2.5,9.5-3.7s4.6-1.5,7-2.2a2.2,2.2,0,0,1,2.2.3c.5,1.2-.3,2.2-.6,3.1-2,5.2-3.1,10.6-4.4,16s-2.7,12.3-4.1,18.4-2.9,12.7-4.2,19.1-2.3,10.6-2.9,16c-1.2,9.8-2.7,19.5-2.9,29.4-.2,5.1-.9,10.3-1.3,15.5C200.9,171.3,201,172.9,200.9,174.4Zm3.5,60.8c-.8-.3-.6-.8,0-1.7C204.8,234.5,204.8,234.5,204.4,235.2ZM315,363.1a6.4,6.4,0,0,1,1.5,3.1c.8,2.8,1.4,5.7,2.4,8.6s2.7,7,4.1,10.4a19.4,19.4,0,0,0,3,5.9c3.1,3.8,6.6,7,11.3,8.9,2.9,2.2,6.4,1.8,9.9,2.1a22.1,22.1,0,0,1,2.7-1.2c2.8-1,4.4-3.3,5.4-5.9.4-.9.6-1.8,1.1-2.7a7.5,7.5,0,0,0,.8-5.7,54,54,0,0,1-.8-6.9c-.1-.5.1-1,.9-1.4a9.5,9.5,0,0,0,3.2,3.1,2.1,2.1,0,0,1,1.1,1.6c.5,3.2,1.9,6.3,1.9,9.7a4.3,4.3,0,0,1,0,1.6c-.9,4.5-2.2,8.8-5.3,12.4a3.8,3.8,0,0,1-1.1,1.1,49.4,49.4,0,0,1-6.4,3.5c-4,1.5-8.2,1.7-12.4,1.7a8.1,8.1,0,0,1-4.1-1.1,10.6,10.6,0,0,0-2.1-1.1,23.2,23.2,0,0,1-9.1-7,20.5,20.5,0,0,1-3.7-5.8,4.1,4.1,0,0,0-.5-.9c-2.2-2.9-3.4-6.4-5.4-9.4a12.8,12.8,0,0,1-1.6-3.6c-1.4-4.6-2.6-9.1-3.9-13.7l-.8-2.9a2.5,2.5,0,0,1,.4-2,1.6,1.6,0,0,1,1-.5C310.8,364.8,312.4,362.8,315,363.1ZM272.3,227.4a33.1,33.1,0,0,0,1.2,4.5,191.6,191.6,0,0,1,6.1,23.4c1.4,7.7,4.2,14.9,7,22.1,2,5.1,3.9,10.3,5.9,15.4.6,1.6,1.3,3.1,1.9,4.6,2.2,6,4.1,12.2,5.9,18.3s2.8,10,4.3,14.9,3.2,11.3,4.9,16.9c.9,3.2,1.8,6.4,2.6,9.6a13.5,13.5,0,0,1,.3,1.8,2.4,2.4,0,0,1-1.6,1.5,2.8,2.8,0,0,1-2.5-2.2c-.9-2.7-2.1-5.3-2.8-8.1s-2.2-7.4-3.4-11.1a3.2,3.2,0,0,1-.3-.9c-1.9-7.5-4.8-14.7-6.4-22.3a41.4,41.4,0,0,0-2.1-5.9,153.2,153.2,0,0,1-7.6-24.7,103.8,103.8,0,0,0-3.6-12.4,72.7,72.7,0,0,1-2.2-8c-.9-3.9-2.3-7.6-3.4-11.4-1.6-5.4-3.5-10.7-4.7-16.2-1.7-7.2-3-14.5-5.4-21.6a47.2,47.2,0,0,1-1.9-6.7,7.5,7.5,0,0,1-.3-3.7,2.1,2.1,0,0,1,1.8-1c.9.1,1.3.8,1.5,1.6s1.4,4.7,1.8,7C270,217.8,271.4,222.6,272.3,227.4Zm81.1-35.2c-4.3-1.3-8.9-1-13.3-2.4a12,12,0,0,0-5,0c-4.8.6-9.6,1.2-14.4,2s-9.4,1.4-14.1,2a105.9,105.9,0,0,1-11.2,1,57.4,57.4,0,0,0-10.1,1.6c-5.5,1.3-11,2.7-16.5,3.8-2.6.5-5.1,1.4-7.7,2s-6.4,1.5-9.6,2.4c-8.4,2.3-16.4,5.3-24.5,8.4-2.8,1-5.2,2.8-7.8,4.2l-5.3,3.5c-1.7,1.1-3,2.7-4.8,4l-2.6.2a2.3,2.3,0,0,0-.6,1.6c.1,1.2-.1,2.3-1.4,2.7s-1.1-.6-1.4-1.3a41.1,41.1,0,0,1-1.7-11.5c0-5.4-.1-10.8.1-16.2a147.1,147.1,0,0,1,.9-14.9,36,36,0,0,0,.4-5.6c.2-5.4.5-10.8,1.1-16.2s.5-9.5.8-14.3.4-6.8.7-10.2,1-6.4,1.4-9.5.8-7.1,1.3-10.6c.2-1.2.5-2.3.7-3.5,1.1-5,2.1-10,3.2-14.9,1.4-6.6,3.1-13.1,4.5-19.7s2.6-11.4,4.1-17.1c.7-2.7,1.6-5.3,2.5-7.9a4.5,4.5,0,0,1,1.6-2.5c.3,0,.6-.2.9-.1a14.8,14.8,0,0,0,7.5-1.1c1.1-.5,2.1.1,3.3.3l1.8-.5a7,7,0,0,1,4.5.2,31.6,31.6,0,0,1,7.2,3.4c3.8,2.1,7.5,4.7,11.5,6.5l.3.2c5.4,3.9,11.5,6.6,17,10.3,3.3,2.1,6.5,4.3,9.5,6.6a10.6,10.6,0,0,0,2,1.2,74.8,74.8,0,0,1,13.5,10.2c2.6,2.5,5.3,5,7.7,7.7a40.2,40.2,0,0,1,4.5,5.7c3.4,5.4,7.4,10.3,10.2,15.9a16.3,16.3,0,0,0,1.1,1.7,158.5,158.5,0,0,1,13.9,25.6,162.8,162.8,0,0,1,7.7,20.5c1.1,3.9,2.6,7.7,3.9,11.6s2,6.5,2.9,9.8a10.7,10.7,0,0,1,.3,2.5A1.9,1.9,0,0,1,353.4,192.2Zm98.1-42.1c-.9.3-1.4-.2-2.1-.3a13.1,13.1,0,0,0-5.2-.3,3.4,3.4,0,0,1-1.4.1c-2.6-.7-5.2,0-7.9-.3a13.5,13.5,0,0,0-5.2.8l-13.8,3.7a27.5,27.5,0,0,0-5.1,2.1,79.2,79.2,0,0,1-10.1,4.1,31.7,31.7,0,0,0-7.3,3.2,58.5,58.5,0,0,1-5.6,2.8A87.5,87.5,0,0,0,372,176.3a65,65,0,0,0-9.1,8.3c-.7.8-1.3,1.7-2,2.6s-1.5.8-2.5.1l-.6-1.7c-1.4-4.3-2.7-8.7-4.2-12.9a107.5,107.5,0,0,1-3.9-11.3c-1.5-5.3-3.9-10.3-6-15.4a177.5,177.5,0,0,0-11.9-22.9c-2.4-3.8-4.8-7.7-7.5-11.3s-3.7-5.6-5.6-8.3a56.3,56.3,0,0,0-8.8-10.7,9.3,9.3,0,0,1-1.5-1.3c-1.8-2.6-4.3-4.4-6.8-6.3a75.2,75.2,0,0,0-6.4-4.7c-3.2-2.2-6.5-4.3-9.6-6.5s-5.5-3.7-8.4-5.3l-21-12.1-3.4-2.1a20.5,20.5,0,0,0-4.6-2.5,2.3,2.3,0,0,1-1.3-1.1c.2-1.3,1.4-1.4,2.2-1.5a53.5,53.5,0,0,1,7-.8L262,48a64.4,64.4,0,0,1,7.6-.3,61.6,61.6,0,0,0,9.6-.2c3.3-.5,6.4.2,9.6.5,5.9.6,11.7,2,17.6,2.9l5.5.9a37.5,37.5,0,0,1,8,2c2.6.9,5.4,1.4,8,2.1a97.6,97.6,0,0,1,12.9,4.3,74.4,74.4,0,0,0,10.4,3.4c2.9.8,5.7,1.8,8.5,2.8l11.6,4c6.3,2.3,12.6,4.6,18.8,7.3a46.4,46.4,0,0,1,7,4.5,46.3,46.3,0,0,0,4.6,3.1c3,1.7,5.8,3.7,8.9,5.2a22.7,22.7,0,0,1,4,2.9c3.1,2.4,6.1,4.7,9.1,7.2,5.2,4.2,9.4,9.4,13.3,14.8,1,1.4,2.2,2.7,3.1,4.2a99.1,99.1,0,0,1,8.5,16.1,61.9,61.9,0,0,1,3.4,12.8A1.5,1.5,0,0,1,451.5,150.1Z" style="fill: #333"/>
  <g style="opacity: 0.1">
    <path d="M221,51.2c-6.4,6.6-9.5,15.7-12.1,24.5-5.5,18.7-10,37.7-17,55.9-11.8,30.3-30.3,57.3-48.7,84,18.7,3.6,39.4,8.5,57.6,13.4-.7-10-1-22.7-.8-32.7s1.7-18.6,2.4-28c.9-13.5,1.5-27.3,3.2-40.6,1.2-9,3-17.4,4.8-26.2,3.7-17.4,6.9-33.6,14.3-51.1l-5.4-.5"/>
  </g>
  <g style="opacity: 0.1">
    <path d="M241,50.4c-1.2-.4-3.8-.3-3.9,1s2.2,3.4,2.9,4.4c8.4,11.1,21.7,17.3,30.9,27.7a69.5,69.5,0,0,1,11.7,19.8c12.8,30.6,12.3,60.7,11.7,93.9,18.2-4.3,55.2-7.2,59.7-2.2.5.5,1.5-.3,2-.8a3.3,3.3,0,0,0,.5-2.2c-.1-6.3-2-12.4-4.4-18.2s-5.6-13.3-7.6-20.2c-8.8-30.7-34.3-59-40.5-64.6-3.8-3.4-22.7-16.6-27.3-18.8s-11.1-6.4-16.4-9.3c-3.7-2.1-6.7-4.9-10.2-7.2s-7.7-3.9-11.7-3.1"/>
  </g>
  <g style="opacity: 0.1">
    <path d="M250.1,48.9c20.6-1.6,41.5,2,61.3,8.1s38.9,14.6,57.8,23c11.6,5.2,23.3,10.4,33.8,17.6a110.6,110.6,0,0,1,39.8,47.9c.9,2,1.7,4,3.4,5.4s4.5,1.5,5.8-.2,1-4.6.4-6.5c-8.5-25.4-21.8-41.6-41-55.1S366.8,68.6,344.5,61a316.8,316.8,0,0,0-41.6-11.6c-14.6-2.8-29.5-2.7-44.3-2.6"/>
  </g>
  <g style="opacity: 0.1">
    <path d="M310,363.1l5.6,14.1c2.9,7.4,6,15.1,11.3,21s13.6,9.9,21.4,8,12.2-7.8,16.2-13.8a20.8,20.8,0,0,1-10.7,18.7,27.6,27.6,0,0,1-7.5,2.5,28.1,28.1,0,0,1-10,.4c-7.9-1.3-14.5-7.1-18.6-13.9s-6.3-14.6-8.4-22.3l-3.4-12.7c-.1-.5-.3-1.1,0-1.5s2.8.2,4.1-.4"/>
  </g>
  <path d="M207.1,233.5a1.9,1.9,0,0,0-.4-1.8c-1.2-.3-1.2-.3-2.3.4a1.9,1.9,0,0,0-.2.7c-.8,7.4-1.2,14.8-1.6,22.3-.1,3-.3,6.1-.1,9.2s.4,8.2.2,12.3c-.1,1.6,0,3.3,0,5,.1,7.1.4,14.3.3,21.5,0,4.7-.2,9.5-.1,14.2a173.7,173.7,0,0,1-.5,20.4,38.6,38.6,0,0,0-.2,4.7c.5,1.1,1.1,1.7,1.9,1.5s1.1-1.3,1.2-2.2v-1.5c.1-3.7.1-7.4.2-11.2.2-6.8.1-13.5-.1-20.3-.1-4.1-.1-8.2-.1-12.3s.2-9,.1-13.5c0-2.8-.3-5.6-.1-8.4s.1-7.4.1-11.1-.2-7-.1-10.4c.3-5.6.3-11.3,1.5-16.9A20.6,20.6,0,0,0,207.1,233.5Z" style="fill: #333"/>
  <rect x="125.5" y="339" width="154.3" height="51.07" rx="5.4" ry="5.4" style="fill: #82929c"/>
  <g>
    <path d="M149.2,364.4c-1-.2-2-.1-3-.3a32.1,32.1,0,0,0-.2,5.3,59.8,59.8,0,0,1,6.1-.7,1.7,1.7,0,0,0,.1-1,2.7,2.7,0,0,1,0-.9.8.8,0,0,1,1.6,0,8.8,8.8,0,0,1-.2,2.8,1,1,0,0,1-1.1.8l-2.9.2-3.2.3h-2.8c-.6,0-1-.3-1-.7s.4-.8,1-.8h.4c.7-3.3.4-6.7.5-10.1-.3-.2-.7-.1-1-.2a2.1,2.1,0,0,1-1.5-.5.6.6,0,0,1-.2-.9.5.5,0,0,1,.8-.2,3.5,3.5,0,0,0,1.7.2,36.4,36.4,0,0,1,5.7-.4,19,19,0,0,0,3.4-.1c.7,0,.9.2,1,.9a8.9,8.9,0,0,1-.3,2.8c0,.2-.1.4-.1.6s-.5,1-1.1.9a.9.9,0,0,1-.5-1.3,6.4,6.4,0,0,0,.3-2,37.3,37.3,0,0,0-6.7,0,9.7,9.7,0,0,0,.1,1.7,10.8,10.8,0,0,0,0,1.8l2.8.2c.3-.3.2-.6.2-.9s.2-.7.6-.7a.6.6,0,0,1,.7.4.8.8,0,0,1,.2.4,10.6,10.6,0,0,1,.2,3.1.7.7,0,0,1-.8.8.7.7,0,0,1-.7-.8C149.3,364.9,149.2,364.7,149.2,364.4Z" style="fill: #fff"/>
    <path d="M161.1,365.5l-1.5-1.3-1.4-1.4a2.1,2.1,0,0,0-1.3-.9.7.7,0,0,1-.5-.7c0-.3.2-.5.5-.7h.5l3.1-.3h1.3c.5.1.8.4.7.8s-.2.6-.7.7l-2,.2a7,7,0,0,0,2.5,2.3,14.7,14.7,0,0,0,2.1-2.2l-.6-.3a.9.9,0,0,1-.3-.6c0-.3.2-.6.4-.6l4-.2c.3,0,.5.3.6.6a.7.7,0,0,1-.4.7,1.6,1.6,0,0,1-1,.2,1.4,1.4,0,0,0-1.2.6l-2.3,2.6c.2.4.5.5.7.7a9.2,9.2,0,0,1,2.2,2.2,2,2,0,0,0,1.4,1.1.5.5,0,0,1,.5.3.6.6,0,0,1-.1,1.1l-.5.2a18.3,18.3,0,0,1-3.3.2h-.2c-.4-.1-.7-.3-.7-.7s.2-.6.6-.7a5,5,0,0,0,1.2-.2,7,7,0,0,0-3-2.9,18.9,18.9,0,0,0-2.5,3.1,4,4,0,0,0,1.1,0c.4-.1.8,0,.9.4a.7.7,0,0,1-.3.8,2.8,2.8,0,0,1-1.3.4h-2.2c-.1,0-.6-.1-.7,0a3.4,3.4,0,0,1-1.5-.6.8.8,0,0,1,.4-.9h.4c.9.3,1.4-.3,1.9-1A36.1,36.1,0,0,1,161.1,365.5Z" style="fill: #fff"/>
    <path d="M174.6,361a11.4,11.4,0,0,1,3.7-.5h1.2a2.8,2.8,0,0,1,2.2,1.7,8,8,0,0,1,.4,5.7,3.4,3.4,0,0,1-2.9,2.4,7,7,0,0,1-4.9-.5c-.1,1.1-.1,2.2-.2,3.4a8.2,8.2,0,0,0,2.7.1c.5,0,.8.1.8.5a.8.8,0,0,1-.5.9h-.9a29.5,29.5,0,0,0-4.2.1h-.5c-.4,0-.6-.3-.6-.7s.2-.5.6-.5a3.2,3.2,0,0,0,.9-.3,31.3,31.3,0,0,0,.4-4.3.4.4,0,0,0-.1-.3,1.2,1.2,0,0,1,.2-1.5c.1-.2.1-.6.2-.9s.1-2.7,0-4v-.2c-.4-.3-.7,0-1.1,0h-.8a.8.8,0,0,1-.4-.7.5.5,0,0,1,.4-.6C172.3,360.7,173.5,360.3,174.6,361Zm-.1,7c1.4,1.2,2.9,1.1,4.5.8a2.1,2.1,0,0,0,1.7-1.6,6.8,6.8,0,0,0-.5-4.4,1.4,1.4,0,0,0-1-.8,11.5,11.5,0,0,0-3.7.2c-.6.1-.8.3-.8,1a22.6,22.6,0,0,0-.1,2.6A15.5,15.5,0,0,0,174.5,368Z" style="fill: #fff"/>
    <path d="M186.8,365.7a8.1,8.1,0,0,0,.6,1.3,2.8,2.8,0,0,0,2.4,1.9,8.7,8.7,0,0,0,3.6,0,1.6,1.6,0,0,0,1.2-.8l.2-.3a.9.9,0,0,1,1-.1.8.8,0,0,1,.3.9,2.1,2.1,0,0,1-1.3,1.6l-1.6.5a11.5,11.5,0,0,1-4.5-.4,4,4,0,0,1-2.3-1.7,8.4,8.4,0,0,1-1.3-2.7,4,4,0,0,1,1.5-4.4,6.1,6.1,0,0,1,6.7-.9,4.9,4.9,0,0,1,2.6,1.9c0,.1.1.2.2.3s.6,2.1-1.1,2.4A25,25,0,0,1,186.8,365.7Zm7.8-2c0-.2-.1-.3-.2-.5a4.2,4.2,0,0,0-2.1-1.3,4.8,4.8,0,0,0-4.6.6,2.7,2.7,0,0,0-1,1.8A23.3,23.3,0,0,0,194.6,363.7Z" style="fill: #fff"/>
    <path d="M202.2,369.4a20.4,20.4,0,0,0,0-3.5c-.1-1.2.1-2.2.1-3.3s0-.3-.1-.4-1.1-.1-1.6-.2a1.8,1.8,0,0,1-1-.2c-.2-.2-.4-.4-.3-.7a.6.6,0,0,1,.6-.5h2.9c.5,0,.9.6,1,1.3a3.8,3.8,0,0,0,.1,1c.3,0,.4-.3.6-.5a7.2,7.2,0,0,1,3.6-2h1.2a1.8,1.8,0,0,1,1.7,1.4.8.8,0,0,1-.3,1,1,1,0,0,1-1-.3c-.1-.2-.3-.3-.4-.6a4.4,4.4,0,0,0-3.6,1.5,15.4,15.4,0,0,0-1.9,1.7v4.3h3.8c.7,0,1,.2,1,.7s-.3.8-.9.8h-3.5l-3.2.2a2.5,2.5,0,0,1-1.2-.1c-.4-.1-.7-.5-.6-.8s.3-.6.9-.5A5,5,0,0,0,202.2,369.4Z" style="fill: #fff"/>
    <path d="M216.2,362.3a2.5,2.5,0,0,0-1.2-.2h-.6a.6.6,0,0,1-.6-.6.6.6,0,0,1,.7-.7H216a.6.6,0,0,0,.2-.6,8.6,8.6,0,0,1,.2-2.3c.1-.3.3-.7.6-.8a.6.6,0,0,1,.8,0,.7.7,0,0,1,.3.8c-.5.9-.2,1.9-.2,2.8s.6.2.9.2h5a.7.7,0,0,1,.6.7.6.6,0,0,1-.5.7,2.2,2.2,0,0,1-1.2.2h-4.6a15.4,15.4,0,0,0,.7,5.7,3.9,3.9,0,0,0,4.4-.3l.3-.2a.6.6,0,0,1,.8-.1.8.8,0,0,1,.3.9,1.9,1.9,0,0,1-.8,1,5.6,5.6,0,0,1-5.6.4,2.2,2.2,0,0,1-1.2-1.6,51.5,51.5,0,0,1-.7-5.3C216.3,362.7,216.4,362.5,216.2,362.3Z" style="fill: #fff"/>
    <path d="M237.5,368.9h.9c.4.1.7.5.6.8a.8.8,0,0,1-.6.8h-2.8a21.9,21.9,0,0,0-3.6.3,7,7,0,0,1-2.5,0h-.7c-.3-.2-.4-.4-.3-.7a.5.5,0,0,1,.5-.5,2.1,2.1,0,0,1,.8,0,12.6,12.6,0,0,0,2.8-.4,1.3,1.3,0,0,0,.2-.8,16.1,16.1,0,0,1,.2-4.4,2.9,2.9,0,0,0-.1-1.6,2.2,2.2,0,0,0-1.1-.1,7.5,7.5,0,0,1-2.1-.2c-.8-.1-.9-.4-.7-1.2a.8.8,0,0,1,.7-.2h3.5c1,0,1.1.2,1.3,1.2a7.4,7.4,0,0,1,0,3.3,10.3,10.3,0,0,0,.1,3.9Zm-5.5-12c.2-.5.3-1.1,1-1.4a1,1,0,0,1,1.2.1,1.2,1.2,0,0,1,.4,1.3,1.6,1.6,0,0,1-1,1.1.9.9,0,0,1-1.1.1A1.2,1.2,0,0,1,232,356.9Z" style="fill: #fff"/>
    <path d="M250.7,361.1a2,2,0,0,0,.1-.7.5.5,0,0,1,.6-.6c.4,0,.7.1.8.5s.1.2.1.4v1.8c0,.4-.1.7-.5.8a.6.6,0,0,1-.8-.2,9.7,9.7,0,0,0-2.6-1.5,1.8,1.8,0,0,0-2.1.2,2.5,2.5,0,0,0-1.2,1.1,1.9,1.9,0,0,0,.7,1.8,4.2,4.2,0,0,0,2.2.2,7.1,7.1,0,0,1,2-.2,2.8,2.8,0,0,1,2.9,2.9,3.4,3.4,0,0,1-3.4,3.5,1.4,1.4,0,0,0-.9,0,4.6,4.6,0,0,1-3.2-.9h-.3c-.2.2-.1.5-.1.8a1,1,0,0,1-.9.9c-.5,0-.8-.2-.8-.8a15,15,0,0,1,0-3c.1-.8.7-1,1.3-.5a16.4,16.4,0,0,0,2.2,1.4,1.5,1.5,0,0,0,1.1.4h1.8a1.8,1.8,0,0,0,1.4-2.4,1.5,1.5,0,0,0-1.2-.7h-1.7a7,7,0,0,1-2.5-.1h-.4c-1.3-.5-1.4-1.7-1.7-2.8a2.1,2.1,0,0,1,.7-2.2l1.5-1a3.3,3.3,0,0,1,3.2-.1Z" style="fill: #fff"/>
    <path d="M258,365.7a8.1,8.1,0,0,0,.6,1.3,2.9,2.9,0,0,0,2.4,1.9,8.7,8.7,0,0,0,3.6,0,1.6,1.6,0,0,0,1.2-.8l.2-.3a.9.9,0,0,1,1-.1,1,1,0,0,1,.4.9,2.5,2.5,0,0,1-1.4,1.6l-1.6.5a11.5,11.5,0,0,1-4.5-.4,4,4,0,0,1-2.3-1.7,11.1,11.1,0,0,1-1.3-2.7,4.2,4.2,0,0,1,1.5-4.4,6.1,6.1,0,0,1,6.7-.9,4.9,4.9,0,0,1,2.6,1.9c0,.1.1.2.2.3s.6,2.1-1.1,2.4A24.9,24.9,0,0,1,258,365.7Zm7.8-2c0-.2-.1-.3-.1-.5a5,5,0,0,0-2.2-1.3,4.6,4.6,0,0,0-4.5.6,2.8,2.8,0,0,0-1.1,1.8A23.3,23.3,0,0,0,265.8,363.7Z" style="fill: #fff"/>
  </g>
  <path d="M69.2,236.1H66.8c-.1,4.1-.2,8.1,0,12.2a173.8,173.8,0,0,1-.6,20.4c-.1,1.6-.1,3.3-.2,4.7s1.1,1.7,2,1.5,1-1.3,1.1-2.2,0-1,.1-1.5c0-3.7,0-7.4.1-11.2.2-6.8.2-13.5,0-20.3C69.2,238.5,69.2,237.3,69.2,236.1Z" style="fill: #333"/>
  <rect x="0.4" y="270" width="133.4" height="51.07" rx="5" ry="5" style="fill: #82929c"/>
  <g>
    <path d="M34.2,288.5l.6-.6c.4-.3,1.1,0,1,.5s.2,1.7.1,2.6,0,.8-.5,1a.9.9,0,0,1-1.1-.3c-.3-.1-.3-.3-.3-.6a1.6,1.6,0,0,0,0-.7,1.1,1.1,0,0,0-1-.6,6.6,6.6,0,0,0-2.8.1,2.2,2.2,0,0,0-1.9,2.9,1,1,0,0,0,.9.4h2a8.7,8.7,0,0,1,3.2.6,3.1,3.1,0,0,1,2,2.9,4.6,4.6,0,0,1-4.7,5.2,5.4,5.4,0,0,1-1.8,0l-1.6-.5c-.2.2-.1.4-.2.6a1.1,1.1,0,0,1-.9.5c-.4-.1-.7-.3-.7-.7a14.5,14.5,0,0,1-.1-3.6.8.8,0,0,1,.7-.8,2.1,2.1,0,0,1,1.7,1.9.9.9,0,0,0,.6.7,4.3,4.3,0,0,0,4.5-.7,2.9,2.9,0,0,0,.6-3.2,1.5,1.5,0,0,0-.9-.7,5.8,5.8,0,0,0-2.9-.6h-2a2.1,2.1,0,0,1-2.1-2.3,4,4,0,0,1,3.7-4.2A8.6,8.6,0,0,1,34.2,288.5Z" style="fill: #fff"/>
    <path d="M48.7,293.2a6.6,6.6,0,0,1-1.5,1.4l-1.5,1.2c.1.4.4.6.7.9a9.1,9.1,0,0,1,2.2,2.8l.7,1.1h2.3a.6.6,0,0,1,0,1.2h-.4c-1.2.2-2.5.2-3.7.3H47a.7.7,0,0,1-.2-1.2c.1-.2.3-.2.5-.3a3.8,3.8,0,0,0-1.3-2.2,12.1,12.1,0,0,1-1.6-1.6c-.4.1-.6.4-1,.5a13.6,13.6,0,0,1-.2,2.1,5.8,5.8,0,0,1-.3,1.4.9.9,0,0,1-.9.8,5.5,5.5,0,0,1-2.2-.1c-.5-.1-.7-.4-.6-.8s.3-.6.8-.6h1.4a4.3,4.3,0,0,0,.4-2.2c0-2,.2-3.9.3-5.8s0-2.1,0-3.3h-2a.7.7,0,0,1-.7-.7c-.1-.4.2-.7.7-.8h2.4c.8,0,1.1.3,1.2,1.1a19.3,19.3,0,0,1,0,3.4l-.3,3.8a14.6,14.6,0,0,0,3-2.2c.1-.2,0-.3,0-.3s-.4-1.2.4-1.3l2.9-.4h.6a.9.9,0,0,1,1,.6c.1.4-.2.7-.7.9Z" style="fill: #fff"/>
    <path d="M63.7,299.9h.9a.9.9,0,0,1,.7.8,1,1,0,0,1-.6.8H61.8a19.8,19.8,0,0,0-3.5.3,7.6,7.6,0,0,1-2.6,0H55c-.2-.2-.4-.4-.3-.7a.5.5,0,0,1,.5-.5,2.1,2.1,0,0,1,.8,0,11.8,11.8,0,0,0,2.8-.4,1.3,1.3,0,0,0,.2-.8,12.9,12.9,0,0,1,.3-4.4,2.9,2.9,0,0,0-.2-1.6,2.1,2.1,0,0,0-1.1-.1,7.5,7.5,0,0,1-2.1-.2c-.7-.1-.9-.4-.7-1.2a1,1,0,0,1,.7-.2h3.5c1,0,1.1.2,1.3,1.2a6.2,6.2,0,0,1,0,3.3,12.8,12.8,0,0,0,.1,3.9Zm-5.4-12a1.8,1.8,0,0,1,.9-1.4,1.1,1.1,0,0,1,1.6,1.4,1.7,1.7,0,0,1-.9,1.1c-.4.2-.8.4-1.2.1A1,1,0,0,1,58.3,287.9Z" style="fill: #fff"/>
    <path d="M74.4,300.3h4.5a.8.8,0,0,1,.8.7.9.9,0,0,1-.7.9h-.5l-4.3.2c-.9.8-1,.8-1.9.1H70c-.9-.1-1.3-.3-1.3-.8s.4-.8,1.3-.8h2.7a15.3,15.3,0,0,0,0-3.7c0-1.3.1-2.6.1-3.9a25.7,25.7,0,0,0-.1-3.9H70.5c-.2,0-.4.1-.6,0s-.8-.2-.8-.6a.8.8,0,0,1,.6-.8h3.1a1.6,1.6,0,0,1,1.6,1.4v1c0,2.1-.1,4.3-.1,6.5S74.4,298.9,74.4,300.3Z" style="fill: #fff"/>
    <path d="M88.6,300.3h4.6a.7.7,0,0,1,.7.7.8.8,0,0,1-.6.9h-.5l-4.3.2c-1,.8-1,.8-1.9.1H84.2c-.9-.1-1.3-.3-1.3-.8s.5-.8,1.3-.8h2.7c.4-1.3,0-2.5,0-3.7s.2-2.6.2-3.9a26.1,26.1,0,0,0-.2-3.9H84.8a1.6,1.6,0,0,1-.7,0,.7.7,0,0,1-.8-.6.8.8,0,0,1,.7-.8h3.1c.9,0,1.3.6,1.5,1.4a3.3,3.3,0,0,1,0,1c0,2.1-.1,4.3-.1,6.5S88.6,298.9,88.6,300.3Z" style="fill: #fff"/>
    <path d="M105.4,292.1a2,2,0,0,0,.1-.7c.1-.4.2-.6.6-.6s.7.1.8.5.1.2.1.4v1.8c0,.4-.1.7-.4.8s-.7.1-.9-.2a9.7,9.7,0,0,0-2.6-1.5,1.8,1.8,0,0,0-2.1.2,2.5,2.5,0,0,0-1.2,1.1,1.9,1.9,0,0,0,.7,1.8,4.2,4.2,0,0,0,2.2.2,7.5,7.5,0,0,1,2.1-.2,2.8,2.8,0,0,1,2.8,2.9,3.4,3.4,0,0,1-3.4,3.5,1.4,1.4,0,0,0-.9,0,4.6,4.6,0,0,1-3.2-.9h-.3c-.2.2-.1.5-.1.8a1,1,0,0,1-.9.9c-.5,0-.8-.2-.8-.8a15,15,0,0,1,0-3c.1-.8.7-1,1.3-.5a16.4,16.4,0,0,0,2.2,1.4,1.5,1.5,0,0,0,1.1.4h1.8a1.8,1.8,0,0,0,1.4-2.4,1.5,1.5,0,0,0-1.2-.7h-1.7a7,7,0,0,1-2.5-.1H100c-1.2-.5-1.4-1.7-1.7-2.8a2.2,2.2,0,0,1,.7-2.2l1.5-1a3.5,3.5,0,0,1,3.3-.1Z" style="fill: #fff"/>
  </g>
  <path d="M365,234.1c0-4.5.1-9,.1-13.5,0-2.8-.3-5.6-.2-8.4s.2-3.6.2-5.3a12.2,12.2,0,0,0-2.7.1q.2,3.6,0,7.2c-.1,1.7,0,3.4,0,5,.1,7.2.4,14.4.3,21.6-.1,4.7-.3,9.4-.1,14.2a173.8,173.8,0,0,1-.6,20.4c-.1,1.6-.1,3.3-.1,4.7s1,1.7,1.9,1.4,1.1-1.2,1.2-2.1v-1.5c.1-3.8.1-7.5.2-11.2.2-6.8.1-13.6-.1-20.4C365,242.3,365,238.2,365,234.1Z" style="fill: #333"/>
  <rect x="296.2" y="276.7" width="133.4" height="51.07" rx="5" ry="5" style="fill: #82929c"/>
  <g>
    <path d="M318,298.9c0,2.6,0,5.1-.1,7.6.3.3.5.1.8.2a.7.7,0,0,1,.7.7.7.7,0,0,1-.7.8,12.2,12.2,0,0,1-3.3,0c-.4,0-.7-.2-.7-.6s.2-.7.7-.7h.7a86.9,86.9,0,0,0,.3-10.2l-1.4.2c-.5-.1-.8-.4-.8-.8s.2-.7.7-.8a4.5,4.5,0,0,0,1.6-.3,1.2,1.2,0,0,1,1.5.8,4.1,4.1,0,0,0,.5.9,22,22,0,0,1,4.1,6.7,8.5,8.5,0,0,0,1.4,1.9,12,12,0,0,0-.1-2.7c0-.9-.1-1.8-.1-2.8v-2.6c-.3-.3-.6-.2-.9-.2s-.6-.1-.8-.3a.6.6,0,0,1,0-1c.2-.2.4-.2.6-.3h3.1l.8.2a.6.6,0,0,1,.6.6.8.8,0,0,1-.6.8c-.3.2-.7,0-1.1.2a18.8,18.8,0,0,0-.1,5.3c.1,1.5.3,3.1.3,4.6s-.1.8-.2,1.2a1,1,0,0,1-1,.7c-.4-.1-.8-.3-.8-.7a2.6,2.6,0,0,0-.9-1.5,9.9,9.9,0,0,1-2.1-3.2,15.5,15.5,0,0,0-2.3-4.2C318.3,299,318.3,298.9,318,298.9Z" style="fill: #fff"/>
    <path d="M330.7,303.4l.6,1.3a3.1,3.1,0,0,0,2.4,1.9,10.9,10.9,0,0,0,3.6,0,1.5,1.5,0,0,0,1.2-.8l.3-.3a.6.6,0,0,1,.9-.1.7.7,0,0,1,.4.8,2.4,2.4,0,0,1-1.4,1.7,4.2,4.2,0,0,1-1.6.4,9.8,9.8,0,0,1-4.5-.3,3.8,3.8,0,0,1-2.3-1.8,11.3,11.3,0,0,1-1.3-2.7,4.1,4.1,0,0,1,1.5-4.3,6.1,6.1,0,0,1,6.7-.9,4.6,4.6,0,0,1,2.6,1.9l.2.3c.5,1.1.6,2.1-1.1,2.4A27.9,27.9,0,0,1,330.7,303.4Zm7.8-2.1c.1-.2,0-.3-.1-.4a5.2,5.2,0,0,0-2.1-1.3,4.7,4.7,0,0,0-4.6.6,2.8,2.8,0,0,0-1.1,1.7A19,19,0,0,0,338.5,301.3Z" style="fill: #fff"/>
    <path d="M345.9,299.9l-1.3-.2h-.5c-.3-.1-.6-.2-.6-.6s.2-.7.6-.7h1.6a.7.7,0,0,0,.2-.7,5.5,5.5,0,0,1,.2-2.2,1.1,1.1,0,0,1,.6-.9c.3-.1.6-.2.8.1s.4.4.2.7a6.7,6.7,0,0,0-.1,2.8,1.1,1.1,0,0,0,.9.3c1.5,0,3,.1,4.5,0h.5c.3.1.6.3.6.6s-.1.7-.5.8a2.5,2.5,0,0,1-1.2.2h-4.6a18.1,18.1,0,0,0,.6,5.7,4.1,4.1,0,0,0,4.5-.3l.3-.2a.6.6,0,0,1,.8-.1.8.8,0,0,1,.3.8,3.1,3.1,0,0,1-.8,1.1,5.9,5.9,0,0,1-5.6.4,2.2,2.2,0,0,1-1.2-1.6,33.3,33.3,0,0,1-.7-5.4C346,300.3,346.1,300.1,345.9,299.9Z" style="fill: #fff"/>
    <path d="M363.6,303.3a4.8,4.8,0,0,0-.4,1.5,16.8,16.8,0,0,1-.9,3.2l-.3.6a.9.9,0,0,1-1.5,0,1.3,1.3,0,0,1-.4-1,15.7,15.7,0,0,0-1.3-4.2c-.4-.9-.6-1.8-.9-2.7a1.8,1.8,0,0,0-.4-1h-.7a.7.7,0,0,1-.6-.7c.1-.4.2-.6.6-.7h.5a11.9,11.9,0,0,0,3.2-.3.7.7,0,0,1,.8.3.7.7,0,0,1-.2.9.9.9,0,0,1-.7.3l-1,.2a24.2,24.2,0,0,0,2,5.7h.1l.5-2a7,7,0,0,1,.6-1.9.9.9,0,0,1,1.7-.1,11.1,11.1,0,0,1,1.4,2.9,2.5,2.5,0,0,0,.8,1.7c.5-2.1.8-4.2,1.4-6.2-.3-.2-.7-.1-1-.3h-.5a1,1,0,0,1-.7-.9c.1-.3.5-.7.9-.6s2,0,3,.1.9.3.9.7-.2.7-.6.8h-.3a37.1,37.1,0,0,0-1.3,5.3c-.2.9-.3,1.8-.5,2.6a1.1,1.1,0,0,1-.9.9c-.4,0-.7,0-.9-.4l-.7-.8a4.8,4.8,0,0,1-1.2-2.2A5.5,5.5,0,0,0,363.6,303.3Z" style="fill: #fff"/>
    <path d="M377.7,308.7a9.2,9.2,0,0,1-4-.7,4,4,0,0,1-2.4-3.6,9.2,9.2,0,0,1,.3-2.9,4.4,4.4,0,0,1,1.5-2.5,2.8,2.8,0,0,1,2.2-.7,2,2,0,0,0,1.1-.3,4.5,4.5,0,0,1,5.1.6,5.3,5.3,0,0,1,2.2,6.3,4,4,0,0,1-1,1.8A6.8,6.8,0,0,1,377.7,308.7Zm-2.1-9.2a2.6,2.6,0,0,0-2.5,1.9,9.3,9.3,0,0,0-.3,2.4c-.1,1.9.9,2.8,2.6,3.2a19.4,19.4,0,0,0,2.4.2,5.4,5.4,0,0,0,2.8-.8,3.7,3.7,0,0,0,.5-5.9l-1.2-1c-1.5-.8-1.7-.4-2.7-.1A4.7,4.7,0,0,1,375.6,299.5Z" style="fill: #fff"/>
    <path d="M388.8,307.1a14.5,14.5,0,0,0,.1-3.6,18.2,18.2,0,0,1,0-3.3v-.3a3,3,0,0,0-1.6-.2,1.2,1.2,0,0,1-1-.3.4.4,0,0,1-.3-.6c.1-.3.3-.5.5-.5h2.9c.6,0,1,.6,1.1,1.3v.9a.6.6,0,0,0,.6-.4,9.1,9.1,0,0,1,3.7-2.1,4.1,4.1,0,0,1,1.1,0,1.8,1.8,0,0,1,1.8,1.3c.1.5,0,.9-.3,1a.8.8,0,0,1-1-.2l-.4-.6a4.8,4.8,0,0,0-3.7,1.5l-1.8,1.7v4.2a10.8,10.8,0,0,0,1.8,0h2c.6.1,1,.3,1,.8s-.3.8-1,.8h-3.5l-3.2.2h-1.2a.9.9,0,0,1-.6-.9c.1-.3.4-.5.9-.5A5,5,0,0,0,388.8,307.1Z" style="fill: #fff"/>
    <path d="M409.1,299.8a7.1,7.1,0,0,1-1.5,1.5l-1.5,1.2a2,2,0,0,0,.8.8,9.4,9.4,0,0,1,2.1,2.9l.7,1.1a7.5,7.5,0,0,1,1.5,0h.8a.6.6,0,0,1,.5.6.7.7,0,0,1-.4.6h-.5a22.3,22.3,0,0,1-3.7.2h-.5a.7.7,0,0,1-.2-1.2l.5-.3a3.9,3.9,0,0,0-1.3-2.1l-1.6-1.6c-.4.1-.6.4-.9.5a14.9,14.9,0,0,0-.2,2.1l-.3,1.4a.9.9,0,0,1-.9.8,5.4,5.4,0,0,1-2.2-.1.8.8,0,0,1-.7-.8c0-.4.3-.6.8-.6h1.4a4.5,4.5,0,0,0,.4-2.3c0-1.9.2-3.8.3-5.7s.1-2.1.1-3.3h-2c-.5-.1-.8-.4-.8-.7a.8.8,0,0,1,.7-.8H403c.8,0,1,.3,1.2,1.1a19.6,19.6,0,0,1-.1,3.4c-.1,1.2-.2,2.4-.2,3.8a23.7,23.7,0,0,0,3-2.3c0-.1-.1-.2-.1-.3s-.4-1.1.5-1.3l2.8-.4h.6a.8.8,0,0,1,1,.6c.1.3-.1.7-.7.8Z" style="fill: #fff"/>
  </g>
  <path d="M459.5,187.6c0-4.5.1-9,.1-13.5,0-2.8-.3-5.6-.2-8.4s.2-3.6.2-5.3a12.2,12.2,0,0,0-2.7.1q.2,3.6,0,7.2c-.1,1.7,0,3.4,0,5,.1,7.2.4,14.4.3,21.6-.1,4.7-.3,9.4-.1,14.2a173.8,173.8,0,0,1-.6,20.4c-.1,1.6-.1,3.3-.1,4.7s1,1.7,1.9,1.4,1.1-1.2,1.2-2.1v-1.5c.1-3.8.1-7.5.2-11.2.2-6.8.1-13.6-.1-20.4C459.5,195.8,459.5,191.7,459.5,187.6Z" style="fill: #333"/>
  <rect x="390.7" y="199.3" width="133.4" height="51.07" rx="5" ry="5" style="fill: #de4500"/>
  <g>
    <path d="M413.1,214.2a6.4,6.4,0,0,1-.8,3.8,5.7,5.7,0,0,1-7.6,2.7,2.6,2.6,0,0,1-1.5-1.6l-1.1-2a3.7,3.7,0,0,1-.3-2.5c.2-1.1.5-1.9.7-3a8.7,8.7,0,0,1,1-2.4,4,4,0,0,1,3.7-2,9,9,0,0,1,3.3.9,4.6,4.6,0,0,1,2.2,2.7A9.6,9.6,0,0,1,413.1,214.2Zm-5.5-5.3c-1.4-.2-2-.5-2.9,1.2s-1.6,4.4-1.3,5.3l.3,1a4.4,4.4,0,0,0,1,1.9,2.4,2.4,0,0,0,.6.8,3.6,3.6,0,0,0,2.7.4,4.2,4.2,0,0,0,3.4-3.7,10.8,10.8,0,0,0-.2-4C410.9,210,409,209.1,407.6,208.9Z" style="fill: #fff"/>
    <path d="M419.7,211.2a10.8,10.8,0,0,1,3.6-.5h1.3a2.8,2.8,0,0,1,2.2,1.7,8.6,8.6,0,0,1,.3,5.7,3.2,3.2,0,0,1-2.8,2.4,7,7,0,0,1-4.9-.5,18.8,18.8,0,0,0-.2,3.4,7.6,7.6,0,0,0,2.6.1c.6,0,.8.1.9.5s-.1.7-.6.9h-.8a30.9,30.9,0,0,0-4.3.1h-.5c-.3,0-.5-.3-.5-.7a.5.5,0,0,1,.5-.5,2.9,2.9,0,0,0,1-.3,31.1,31.1,0,0,0,.3-4.3V219a1.1,1.1,0,0,1,.2-1.5,2.5,2.5,0,0,0,.1-.9c.1-1.3.1-2.7.1-4v-.2c-.3-.3-.7,0-1,0h-.9a.9.9,0,0,1-.3-.7c0-.3.1-.5.3-.5S418.5,210.5,419.7,211.2Zm-.1,7c1.3,1.2,2.9,1.1,4.4.8a1.9,1.9,0,0,0,1.7-1.6,6.7,6.7,0,0,0-.4-4.4,1.5,1.5,0,0,0-1.1-.8,10.9,10.9,0,0,0-3.6.2c-.7.1-.8.3-.9,1V216A7.9,7.9,0,0,0,419.6,218.2Z" style="fill: #fff"/>
    <path d="M431.8,216a4.5,4.5,0,0,1,.6,1.2,2.9,2.9,0,0,0,2.5,1.9,8.7,8.7,0,0,0,3.6,0,1.6,1.6,0,0,0,1.2-.8c0-.1.1-.2.2-.3a.9.9,0,0,1,1-.1.8.8,0,0,1,.3.9,2.3,2.3,0,0,1-1.3,1.6l-1.6.5a10.2,10.2,0,0,1-4.6-.4,4.8,4.8,0,0,1-2.3-1.7,10.7,10.7,0,0,1-1.2-2.7,4.1,4.1,0,0,1,1.4-4.4,6.2,6.2,0,0,1,6.8-.9,4.4,4.4,0,0,1,2.5,1.9l.2.3c.6,1.2.7,2.1-1.1,2.4A27.6,27.6,0,0,1,431.8,216Zm7.9-2.1c0-.2-.1-.3-.2-.5a4.2,4.2,0,0,0-2.1-1.3,4.8,4.8,0,0,0-4.6.6,2.7,2.7,0,0,0-1,1.8A23.3,23.3,0,0,0,439.7,213.9Z" style="fill: #fff"/>
    <path d="M448.1,219.3a1,1,0,0,1,.5.4.6.6,0,0,1-.2,1.1,5.4,5.4,0,0,1-2.2.4h-.6c-.4-.1-.7-.5-.6-.8a.6.6,0,0,1,.8-.5h.7c.1-2.6.6-5,.3-7.5-.3-.2-.5,0-.8,0h-.7a.8.8,0,0,1-.7-.7.7.7,0,0,1,.5-.8,6.6,6.6,0,0,1,2.4-.3c.6,0,.8.5,1,1l1.1-.7c1.8-1.2,3.3-.6,4.4,1.1a2.1,2.1,0,0,1,.3.7,13.2,13.2,0,0,1,.5,5.9c-.1.2-.1.4-.2.6a.1.1,0,0,0,.1.1.7.7,0,0,0,.6-.1c.5-.1.9,0,1,.4a.7.7,0,0,1-.5.9,4.6,4.6,0,0,1-2.1.5h-1.2c-.6.2-.9.1-1-.3a.7.7,0,0,1,.6-1l.8-.3a8.6,8.6,0,0,0,.5-2.7c-.1-1.1-.2-2.1-.4-3.2a2.7,2.7,0,0,0-.9-1.5,1.1,1.1,0,0,0-1.3-.2,7.6,7.6,0,0,0-2.2,1.8c-.1.1-.1.3-.2.5l-.3,4.7Z" style="fill: #fff"/>
    <path d="M478.4,212.8c-.1.6,0,5.9.1,6.4a4.3,4.3,0,0,0,1.6-.1h2.2c.3,0,.5,0,.7.3a.6.6,0,0,1,.2.7,1.2,1.2,0,0,1-.8.6l-2.6.2a2.8,2.8,0,0,0-1.8.4.7.7,0,0,1-.9,0c-.4-.3-.8-.2-1.3-.2h-.7a.7.7,0,0,1-.6-.7.6.6,0,0,1,.5-.6c.4-.2.8-.1,1.1-.2h.5v-6.6a2.2,2.2,0,0,0-1.1-.1h-1.1c-.6,0-.8-.2-.8-.7s.2-.6.8-.6h2.2c.2-.6.3-1.1.4-1.5a4.6,4.6,0,0,1,.9-2c1.1-1.6,2.9-1.8,4.7-1.4l.5.3a.8.8,0,0,1,.2,1.1.8.8,0,0,1-1.1.3,2,2,0,0,0-1.1-.3,1.8,1.8,0,0,0-1.9,1,3.8,3.8,0,0,0-.7,2.4h3.9c.4,0,.7.2.7.6a.8.8,0,0,1-.5.8h-.7a10.1,10.1,0,0,1-2.5.2A1.7,1.7,0,0,0,478.4,212.8Z" style="fill: #fff"/>
    <path d="M493,221.2a8.7,8.7,0,0,1-3.9-.7,4,4,0,0,1-2.4-3.6,9.6,9.6,0,0,1,.3-2.9,4.4,4.4,0,0,1,1.5-2.5,3.1,3.1,0,0,1,2.1-.7,2.5,2.5,0,0,0,1.2-.2,4.4,4.4,0,0,1,5.1.5,5.5,5.5,0,0,1,2.2,6.3,3.4,3.4,0,0,1-1.1,1.8A6,6,0,0,1,493,221.2Zm-2.1-9.1a2.5,2.5,0,0,0-2.4,1.8,6.6,6.6,0,0,0-.3,2.4c-.1,1.9.9,2.8,2.6,3.2a19.4,19.4,0,0,0,2.4.2,4.8,4.8,0,0,0,2.8-.8,3.7,3.7,0,0,0,.5-5.9,6,6,0,0,0-1.3-.9c-1.5-.9-1.6-.5-2.7-.1A4.5,4.5,0,0,1,490.9,212.1Z" style="fill: #fff"/>
    <path d="M504.2,219.6a20.8,20.8,0,0,0,.1-3.5,18.2,18.2,0,0,1,0-3.3v-.4c-.5-.3-1.1-.1-1.7-.2a1.8,1.8,0,0,1-1-.2.6.6,0,0,1-.2-.7.5.5,0,0,1,.5-.5h2.9c.6,0,1,.6,1,1.3a3.1,3.1,0,0,1,.1,1c.3,0,.5-.3.6-.5a7.9,7.9,0,0,1,3.7-2h1.1a2,2,0,0,1,1.8,1.4.8.8,0,0,1-.4,1,1,1,0,0,1-1-.3l-.4-.5a4.2,4.2,0,0,0-3.6,1.4l-1.8,1.7v4.3h3.8c.6,0,.9.2.9.7s-.2.8-.9.8h-3.5l-3.2.2a2.5,2.5,0,0,1-1.2-.1c-.4-.1-.7-.5-.6-.8a.7.7,0,0,1,.9-.5A5,5,0,0,0,504.2,219.6Z" style="fill: #fff"/>
    <path d="M403.3,238.8a9.7,9.7,0,0,0-.1-1.7,16.8,16.8,0,0,1,.2-5,5.4,5.4,0,0,0,0-1.8,24.4,24.4,0,0,1-.1-2.7h-1.7c-.4-.1-.7-.3-.7-.7s.2-.9.7-.8h1.8c1-.1,1.3.2,1.4,1.1a23.5,23.5,0,0,1,.1,2.6,2.7,2.7,0,0,0,.2,1.3h.3a7.9,7.9,0,0,1,4.8-1,2.8,2.8,0,0,1,2.4,1.6,5.4,5.4,0,0,1,.8,2.8v1.4a4.5,4.5,0,0,1-3.9,4.6l-1.2.2a2.5,2.5,0,0,1-2.3-1l-1-1.4a1.8,1.8,0,0,0-.1,1,1.1,1.1,0,0,1-.9,1.2h-1.7a1.5,1.5,0,0,1-.9-.6.6.6,0,0,1-.1-.8.5.5,0,0,1,.7-.3C402.4,238.8,402.8,239,403.3,238.8Zm1.5-2a1.6,1.6,0,0,1,1.9,1c1,1.8,1.1,1.4,2.7,1.1a3.2,3.2,0,0,0,2.5-3.2,2.4,2.4,0,0,1,0-1.2,4.2,4.2,0,0,0-.6-1.9,1.4,1.4,0,0,0-1.3-.9h-1.3a6.1,6.1,0,0,0-3.2.9C404.4,234,404.7,235.4,404.8,236.8Z" style="fill: #fff"/>
    <path d="M423.7,231.5a2.1,2.1,0,0,0-1.1-.1,3.8,3.8,0,0,1-1-.3c-.3-.2-.3-.4-.3-.7a.6.6,0,0,1,.6-.5h2.9c.3,0,.5.2.7.5a2.5,2.5,0,0,1,.2,1.2c0,2.2,0,4.4.1,6.6,0,.3-.1.5.1.7h1.4a.8.8,0,0,1,.8.6c.1.3-.2.7-.6.8l-2,.2a1.2,1.2,0,0,1-1.3-.9,4.3,4.3,0,0,1-.1-.5l-.3.2a3.6,3.6,0,0,1-3.7,1.2,1.8,1.8,0,0,1-1.6-1.2,13.6,13.6,0,0,1-1.6-6.8,4.4,4.4,0,0,0-.2-1H416c-.5-.1-.8-.4-.8-.8a.7.7,0,0,1,.8-.7h1.2c.7,0,1,.3,1.1,1s.1,1.1.1,1.7a16.4,16.4,0,0,0,1,4.5,4,4,0,0,0,.9,1.7c1.4.5,2.1.2,2.7-1.1a8.3,8.3,0,0,0,.7-6.2Z" style="fill: #fff"/>
    <path d="M438.8,230.6a1.5,1.5,0,0,0,.1-.6.5.5,0,0,1,.6-.6c.4-.1.6.1.8.4s.1.3.1.5v1.8a.7.7,0,0,1-.5.8.8.8,0,0,1-.8-.2,14,14,0,0,0-2.6-1.6,2,2,0,0,0-2.1.2,2.8,2.8,0,0,0-1.2,1.2c0,1,.1,1.2.7,1.7a3.4,3.4,0,0,0,2.2.2h2a2.8,2.8,0,0,1,2.9,2.9,3.3,3.3,0,0,1-3.4,3.4h-.9a4.6,4.6,0,0,1-3.2-.8h-.4c-.1.3,0,.6-.1.9s-.4.9-.8.9-.8-.3-.8-.9a15,15,0,0,1,0-3c.1-.7.7-1,1.3-.4a16.4,16.4,0,0,0,2.2,1.4,1.9,1.9,0,0,0,1,.3h1.9a1.6,1.6,0,0,0,1.3-2.3,1.1,1.1,0,0,0-1.1-.7h-1.7a5.3,5.3,0,0,1-2.5,0h-.4c-1.3-.6-1.4-1.8-1.7-2.9a2,2,0,0,1,.7-2.1l1.5-1.1a3.3,3.3,0,0,1,3.2,0A14,14,0,0,1,438.8,230.6Z" style="fill: #fff"/>
    <path d="M454.1,238.4h.9a.6.6,0,0,1,.6.8.8.8,0,0,1-.6.8h-2.8a21.7,21.7,0,0,0-3.6.2,10.5,10.5,0,0,1-2.5.1l-.7-.2a.5.5,0,0,1-.4-.6c.1-.3.3-.6.6-.6h.8a12.7,12.7,0,0,0,2.8-.3,1,1,0,0,0,.1-.9,12.5,12.5,0,0,1,.3-4.3,2.2,2.2,0,0,0-.2-1.6,1.8,1.8,0,0,0-1-.2h-2.1c-.8-.1-1-.5-.7-1.2a.7.7,0,0,1,.6-.2h3.6c1,0,1.1.2,1.3,1.2a9.1,9.1,0,0,1,0,3.3,9.7,9.7,0,0,0,0,3.8Zm-5.5-11.9a1.9,1.9,0,0,1,1-1.5c.4-.1.9-.2,1.2.2a1.1,1.1,0,0,1,.4,1.2,1.8,1.8,0,0,1-1,1.2,1.1,1.1,0,0,1-1.1.1A1.3,1.3,0,0,1,448.6,226.5Z" style="fill: #fff"/>
    <path d="M462.4,238.6l.5.4a.8.8,0,0,1-.3,1.2,5.2,5.2,0,0,1-2.1.4h-.6c-.5-.2-.8-.5-.7-.8a.8.8,0,0,1,.8-.6h.7a47.1,47.1,0,0,0,.4-7.5,1.1,1.1,0,0,0-.8.1h-.7a.8.8,0,0,1-.8-.6.7.7,0,0,1,.5-.8,6.9,6.9,0,0,1,2.5-.3c.6,0,.8.5.9,1l1.1-.8c1.9-1.1,3.3-.5,4.4,1.2a1.6,1.6,0,0,1,.4.7,14.6,14.6,0,0,1,.4,5.9c0,.2-.1.4-.1.6h0c.3.1.5-.1.7-.1s.8,0,.9.3,0,.7-.4,1a5.4,5.4,0,0,1-2.2.5h-1.2a.7.7,0,0,1-1-.3,1.1,1.1,0,0,1,.6-1.1l.8-.2a5.4,5.4,0,0,0,.5-2.8,16.5,16.5,0,0,0-.4-3.1,2.8,2.8,0,0,0-.8-1.5,1.2,1.2,0,0,0-1.4-.2,6.1,6.1,0,0,0-2.1,1.8.8.8,0,0,0-.2.5c-.1,1.5-.2,3.1-.4,4.7A.4.4,0,0,0,462.4,238.6Z" style="fill: #fff"/>
    <path d="M474.6,235.3l.6,1.3a2.8,2.8,0,0,0,2.4,1.9,10.9,10.9,0,0,0,3.6,0,2,2,0,0,0,1.2-.8l.2-.3a.8.8,0,0,1,1-.1.7.7,0,0,1,.3.8,2.5,2.5,0,0,1-1.3,1.7,4.7,4.7,0,0,1-1.6.4,9.8,9.8,0,0,1-4.5-.3,3.8,3.8,0,0,1-2.3-1.8,6.8,6.8,0,0,1-1.3-2.7,4,4,0,0,1,1.4-4.3,6.3,6.3,0,0,1,6.8-.9,4.9,4.9,0,0,1,2.6,1.9l.2.3c.5,1.1.6,2.1-1.2,2.4A31,31,0,0,1,474.6,235.3Zm7.8-2.1a.5.5,0,0,0-.2-.4,3.6,3.6,0,0,0-2.1-1.3,4.8,4.8,0,0,0-4.6.6,2.7,2.7,0,0,0-1,1.7A23.3,23.3,0,0,0,482.4,233.2Z" style="fill: #fff"/>
    <path d="M495.8,230.6a1.1,1.1,0,0,1,.1-.6.5.5,0,0,1,.6-.6c.4-.1.6.1.8.4s.1.3.1.5v1.8a.7.7,0,0,1-.5.8,1,1,0,0,1-.9-.2,10.7,10.7,0,0,0-2.5-1.6,2.2,2.2,0,0,0-2.2.2,2.6,2.6,0,0,0-1.1,1.2c0,1,.1,1.2.6,1.7a3.7,3.7,0,0,0,2.3.2h2a2.7,2.7,0,0,1,2.8,2.9,3.2,3.2,0,0,1-3.3,3.4h-1a4.3,4.3,0,0,1-3.1-.8h-.4c-.1.3,0,.6-.1.9s-.4.9-.9.9-.7-.3-.8-.9,0-2,.1-3,.7-1,1.2-.4,1.5.9,2.2,1.4a2,2,0,0,0,1.1.3h1.9a1.6,1.6,0,0,0,1.3-2.3,1.2,1.2,0,0,0-1.1-.7h-1.7a5.3,5.3,0,0,1-2.5,0h-.5c-1.2-.6-1.4-1.8-1.7-2.9a2.2,2.2,0,0,1,.8-2.1l1.5-1.1a3.3,3.3,0,0,1,3.2,0A14,14,0,0,1,495.8,230.6Z" style="fill: #fff"/>
    <path d="M510,230.6a1.5,1.5,0,0,0,.1-.6c.1-.4.2-.6.6-.6a.6.6,0,0,1,.8.4.9.9,0,0,1,.1.5v1.8a.8.8,0,0,1-.4.8.9.9,0,0,1-.9-.2,14,14,0,0,0-2.6-1.6,2,2,0,0,0-2.1.2,2.8,2.8,0,0,0-1.2,1.2c0,1,.1,1.2.7,1.7a3.4,3.4,0,0,0,2.2.2h2.1a2.8,2.8,0,0,1,2.8,2.9,3.3,3.3,0,0,1-3.4,3.4h-.9a4.6,4.6,0,0,1-3.2-.8h-.3c-.2.3-.1.6-.1.9a1,1,0,0,1-.9.9c-.5,0-.8-.3-.8-.9a15,15,0,0,1,0-3c.1-.7.7-1,1.3-.4a16.4,16.4,0,0,0,2.2,1.4,2,2,0,0,0,1.1.3H509a1.7,1.7,0,0,0,1.4-2.3,1.3,1.3,0,0,0-1.2-.7h-1.7a5.3,5.3,0,0,1-2.5,0h-.4c-1.2-.6-1.4-1.8-1.7-2.9a2.1,2.1,0,0,1,.7-2.1l1.5-1.1a3.5,3.5,0,0,1,3.3,0Z" style="fill: #fff"/>
  </g>
</svg>
