<svg id="Layer_1" data-name="Layer 1" xmlns="http://www.w3.org/2000/svg" viewBox="0 0 135.4 129.8">
  <title>provide-expertise</title>
  <g>
    <g>
      <path d="M50.1,40.8a38.6,38.6,0,0,1,.9-4.9c.4-2,.9-3.9,1.3-5.9l1.2-5.6a45,45,0,0,1,1.4-4.9c.1-.3.3-.6.2-.9a.6.6,0,0,0-.7-.1l-2.1.6-3,1.2a24.8,24.8,0,0,0-4.4,2l-3,1.9a54.9,54.9,0,0,0-5.4,3.5c-1.5,1.1-3,2.4-4.5,3.7l-2.5,2.2L27,36a18.5,18.5,0,0,1-1.4,1.4l-3.9,4.2c-.9,1.1-1.8,2.3-2.6,3.5s-1.7,2.6-2.5,3.9a50.1,50.1,0,0,0-3.4,7l-.3.7a8.8,8.8,0,0,1-.5,1.5,29.1,29.1,0,0,0-1.6,5c-.2,1.3-.5,2.6-.7,3.9v1.6c0,.3,0,.6.4.7h.2a12.7,12.7,0,0,1,3.1-2,4.2,4.2,0,0,1,2.1-.6,20.9,20.9,0,0,1,2.5,0,30.4,30.4,0,0,1,6,.5,5.6,5.6,0,0,0,2.2.3h.5l3.6.6,3.3.5c2.1.2,4.1.7,6.1,1l.8.2L44,70.9l3,1h1.1a1.5,1.5,0,0,0,.2-1.1c-.1-1.1-.1-2.3-.1-3.4s.1-4.5.2-6.7.3-3.2.4-4.8V54.5a38.9,38.9,0,0,0,.4-4.7A88.5,88.5,0,0,1,50.1,40.8Z" style="fill: #de4500"/>
      <path d="M56.3,13.2a23.3,23.3,0,0,0,.4,3.7.7.7,0,0,0,.4.8l1.2-.2a.8.8,0,0,0,.5-.6c-.1,0-.1-.2-.1-.3a11.4,11.4,0,0,1-1.5-3.4,9.5,9.5,0,0,1-.5-2.3c0-.3,0-.5-.3-.7a.8.8,0,0,0-.2.6A19.3,19.3,0,0,1,56.3,13.2Z" style="fill: #ccc"/>
      <path d="M81.4,114.4a.5.5,0,0,0-.1.6c.1.3.1.6.2.9l1.2,4.1a6.1,6.1,0,0,0,.5,1.2,26.1,26.1,0,0,0,1.7,2.8v.3a4.4,4.4,0,0,0,1.2,1.8,6.2,6.2,0,0,0,2.7,2.1l.7.4a2.4,2.4,0,0,0,1.2.3,12,12,0,0,0,3.8-.5l2-1.1.3-.3a7.6,7.6,0,0,0,1.6-3.8c.1-.2,0-.3,0-.5a15.9,15.9,0,0,0-.6-3,.5.5,0,0,0-.3-.5,2.8,2.8,0,0,1-1-.9c-.2.1-.3.2-.3.4l.3,2.1a2.8,2.8,0,0,1-.2,1.8,2,2,0,0,0-.4.8,2.9,2.9,0,0,1-1.6,1.8l-.9.4a5.3,5.3,0,0,1-3-.7,7.5,7.5,0,0,1-3.4-2.7,6.4,6.4,0,0,1-1-1.8l-1.2-3.2c-.3-.9-.5-1.8-.7-2.6a1.9,1.9,0,0,0-.5-1c-.8-.1-1.3.6-2,.6Z" style="fill: #4d4d4d"/>
      <path d="M124.6,44.1a34,34,0,0,0-2.6-5l-1-1.2a22.5,22.5,0,0,0-4.1-4.6l-2.7-2.2-1.3-.9c-.9-.4-1.8-1-2.7-1.5l-1.4-1-2.1-1.4-5.8-2.2-3.5-1.2L94.8,22a17,17,0,0,1-3.2-1,18.7,18.7,0,0,0-4-1.3L85.2,19a10.5,10.5,0,0,0-2.4-.6L81,18.1c-1.7-.2-3.5-.7-5.3-.8a10.1,10.1,0,0,0-3-.2H67.5l-1.8.2a16.6,16.6,0,0,0-2.2.3c-.2,0-.6,0-.6.4l.4.4a4.6,4.6,0,0,1,1.4.7l1,.7,6.4,3.7a22.6,22.6,0,0,1,2.6,1.6l2.9,2,2,1.4a19,19,0,0,1,2.1,1.9l.4.5a16.4,16.4,0,0,1,2.7,3.2c.6.9,1.1,1.8,1.7,2.6a25.4,25.4,0,0,1,2.3,3.4,52.3,52.3,0,0,1,3.7,7c.6,1.6,1.3,3.1,1.8,4.7s.8,2.3,1.2,3.5.9,2.6,1.3,3.9a1.4,1.4,0,0,0,.2.6c.3.2.5.2.7-.1l.7-.8a21.6,21.6,0,0,1,2.7-2.5,22.6,22.6,0,0,1,4.9-3.1l1.7-.9,2.2-1a28.5,28.5,0,0,0,3.1-1.2,4.6,4.6,0,0,1,1.6-.7l4.2-1.1a4.1,4.1,0,0,1,1.6-.3,19.3,19.3,0,0,1,2.4.1c.1.1.3,0,.4,0a4.3,4.3,0,0,1,1.6.1c.2,0,.4.2.6.1a.6.6,0,0,0,.2-.5A15.9,15.9,0,0,0,124.6,44.1Z" style="fill: #de4500"/>
      <path d="M95.2,57.4,94,53.8a46.2,46.2,0,0,0-2.3-6.2,46.4,46.4,0,0,0-4.3-7.9l-.3-.5C86.2,37.5,85,36,84,34.4a8.6,8.6,0,0,0-1.4-1.8l-2.4-2.4a25.9,25.9,0,0,0-4.1-3.1l-.6-.3a30.6,30.6,0,0,0-2.9-2.1c-1.7-1.1-3.6-1.9-5.2-3.1a.1.1,0,0,1-.1-.1,31.2,31.2,0,0,1-3.5-2,8.8,8.8,0,0,0-2.2-1,2.3,2.3,0,0,0-1.4-.1l-.5.2c-.4-.1-.7-.3-1.1-.1a3.4,3.4,0,0,1-2.2.3h-.3a1.2,1.2,0,0,0-.5.7,18.3,18.3,0,0,0-.8,2.5c-.5,1.7-.9,3.4-1.3,5.2s-.9,4-1.3,6-.7,3-1,4.6a3.6,3.6,0,0,0-.2,1c-.2,1.1-.3,2.2-.4,3.3s-.3,1.9-.4,2.9-.2,2.1-.2,3.1-.1,2.9-.3,4.4a40.3,40.3,0,0,0-.3,4.9c0,.6-.1,1.2-.1,1.7a24.2,24.2,0,0,0-.3,4.6c-.1,1.7-.1,3.3-.1,5a14.3,14.3,0,0,0,.6,3.5c0,.2.1.3.4.4a.7.7,0,0,0,.4-.8.8.8,0,0,1,.2-.5h.8l1.5-1.2c.5-.3,1-.8,1.6-1.1a18.3,18.3,0,0,1,2.4-1.3,60,60,0,0,1,7.5-2.5l2.9-.8,2.4-.6,5-1.2a15.5,15.5,0,0,1,3.1-.4l3.4-.4a29.7,29.7,0,0,0,4.3-.6l4.5-.6a3.8,3.8,0,0,1,1.5,0c1.3.4,2.7.4,4.1.8s.5.1.7-.3a1.7,1.7,0,0,0-.1-.7Z" style="fill: #de4500"/>
      <path d="M49.9,74.5c.1-.2.1-.2,0-.5S49.6,74.4,49.9,74.5Z" style="fill: #fff"/>
      <path d="M69.2,65.5a.8.8,0,0,0-.5-.5.9.9,0,0,0-.6.3c0,.5.1.8.1,1.2l.6,2c.7,2.2,1.2,4.4,1.7,6.6s.9,3.3,1.4,5,.8,2.3,1.1,3.5a21,21,0,0,0,.6,2.4,23.8,23.8,0,0,1,1.1,3.8A51.1,51.1,0,0,0,77,97.4a7.5,7.5,0,0,1,.7,1.8c.5,2.3,1.4,4.5,1.9,6.8l.2.3c.3,1.1.7,2.2,1,3.4s.6,1.6.8,2.5.4.6.8.6a.6.6,0,0,0,.5-.5,1.1,1.1,0,0,0-.1-.5,24.5,24.5,0,0,0-.8-2.9l-1.5-5.2c-.4-1.5-.9-3-1.3-4.6s-1.1-3.7-1.8-5.5l-.6-1.5L75,87.4a32.5,32.5,0,0,1-2.1-6.7c-.5-2.5-1.2-4.8-1.9-7.2-.1-.4-.3-.9-.4-1.4s-.7-2.9-.9-4.4S69.3,66.2,69.2,65.5Z" style="fill: #ccc"/>
      <path d="M126.5,47.2a3.2,3.2,0,0,1-.3-.9,11.3,11.3,0,0,0-.8-2.4c-.5-1.4-1.3-2.6-1.9-4a8.6,8.6,0,0,0-1-1.6L121,36.5a7.1,7.1,0,0,0-1-1.4,13.8,13.8,0,0,0-3.1-2.8c-.2-.1-.3-.4-.5-.5L114,29.9l-2.5-1.5-1.6-1a18.9,18.9,0,0,0-3-1.9l-1.8-.7L99,22.6,97.3,22l-3.5-1.2L92,20.2a14.2,14.2,0,0,0-2.9-1,29.8,29.8,0,0,0-4-1.1,25.7,25.7,0,0,0-4-.8l-4.4-.7a12.7,12.7,0,0,0-2.8-.3,8.9,8.9,0,0,0-2.3.1,5.6,5.6,0,0,1-1.3,0h-.7a59.8,59.8,0,0,0-7.4.7,4.1,4.1,0,0,1-1.9-.1l-.8-.8a25.8,25.8,0,0,1-1.8-4.6,1.3,1.3,0,0,1-.1-.6,9,9,0,0,0-.3-1.6,4.8,4.8,0,0,1-.5-1.7c-.2-1.2-.5-2.5-.7-3.7s-.1-.2-.2-.3a.6.6,0,0,0-.7.1A4.6,4.6,0,0,0,55,6.4a17.3,17.3,0,0,1,.3,3.2c0,.3.1.5.1.7a14.8,14.8,0,0,1,.3,1.9,20.5,20.5,0,0,0,.1,4.3.7.7,0,0,1-.1.6.6.6,0,0,1-.6.3l-.8-.3-.8.6-.6.4L49,19.6l-4.1,1.9-3.5,2.1-3.5,2.3c-1.2.8-2.4,1.6-3.5,2.5s-4,3.4-5.9,5.2-2.4,2.3-3.5,3.5l-2.9,3.1a25.7,25.7,0,0,0-3.8,4.9l-1.8,2.8a36.2,36.2,0,0,0-2.4,4.3l-.7,1.5c-.3.8-.7,1.5-1,2.3a12.5,12.5,0,0,1-.9,2.5A20.4,20.4,0,0,0,10.4,62a25.1,25.1,0,0,0-1,6,9,9,0,0,1-.3,1.6,22.1,22.1,0,0,0-1.4,5.2,1.3,1.3,0,0,0,.1.6c.1.2.2.3.4.3l.5-.2a1.4,1.4,0,0,1,.2-.6c.1-.6.3-1.1.4-1.7a12,12,0,0,1,1.1-2.3l.3-.4a12.7,12.7,0,0,1,3.9-2.6,2.2,2.2,0,0,1,1.4-.2h5.2l1.9.2,1.8.3c1.4.3,2.9.1,4.2.7h.1a9.7,9.7,0,0,1,3.4.5H34c1.1.3,2.2.3,3.3.7h.5A19.1,19.1,0,0,1,43,71.6a13.8,13.8,0,0,0,2.7.8l2,.5a.8.8,0,0,1,.6.4c.4,1.5,1.1,2.9,1.1,4.5s.3.5.8.5a3.1,3.1,0,0,0,.3-1.3c.1-1,.3-1.9.4-2.9a2.7,2.7,0,0,1,1-1.9l.7-.8a14.8,14.8,0,0,1,4.3-2.7l3.4-1.3,3.4-1.1,2.1-.6a2.6,2.6,0,0,1,1.5,0,21.7,21.7,0,0,0,.7,2.4l.3,1.3a21.2,21.2,0,0,1,1,3.6,55.4,55.4,0,0,0,1.4,5.5c.1.4.3.8.4,1.2s.9,2.9,1.3,4.4.7,2.3,1,3.5a17,17,0,0,1,1,3.7,33.8,33.8,0,0,0,1.3,4.2c.4,1.2.9,2.3,1.3,3.5s1.2,4.4,1.9,6.5,1,3.5,1.4,5.3a13.3,13.3,0,0,1,.5,1.9c-1.1.7-1.1.7-1.3,1.1s.5.5.8.8a19.7,19.7,0,0,1,.7,2.6,12,12,0,0,0,.8,2.7c.1.1.1.2.1.4a1.8,1.8,0,0,0,.4.9l1.2,2.4.3.5a6.4,6.4,0,0,1,.8,1.4,7.2,7.2,0,0,0,1.8,2.1,7.3,7.3,0,0,0,2.8,1.7h.3a2.5,2.5,0,0,0,1.7.4h.5a7,7,0,0,0,4-1h.2c1.6-.5,2.3-1.8,2.9-3.2a16.6,16.6,0,0,0,.6-2.1c0-.2.1-.4.1-.6s-.2-1.2-.4-1.8a2.7,2.7,0,0,1-.3-1.2,5.2,5.2,0,0,0-.9-2c-.1-.3-.4-.5-.8-.7s-1.6-.2-2.3.5a.9.9,0,0,0,.3.7,2.5,2.5,0,0,1,.4,1.1,6.9,6.9,0,0,1,.1,2.5,5.1,5.1,0,0,1-.7,1.5,2.4,2.4,0,0,1-1.7,1.2,4.6,4.6,0,0,1-2.3-.5l-.8-.5a7.8,7.8,0,0,1-2.7-2.4c0-.1-.1-.3-.1-.4s-.3-.5-.4-.8-.3-.5-.3-.8a7.6,7.6,0,0,0-.6-1.6l-.4-.9c-.4-1.2-.7-2.4-1.1-3.6a.6.6,0,0,0,.1-.4v-.4c-.2-.2-.6-.1-.9-.5s-.6-1.7-.7-2.6a4.9,4.9,0,0,0-.4-1.1,12.1,12.1,0,0,1-.5-1.8,9.8,9.8,0,0,0-.5-1.6c-.2-.5-.3-1-.5-1.6-.6-2.2-1.1-4.5-1.9-6.7s-1.6-4.1-2.3-6.2-.8-2.1-1.2-3.2a32.5,32.5,0,0,1-2-6,54.7,54.7,0,0,0-1.5-5.8c-.4-1.4-.9-2.9-1.2-4.3s-.3-1.4-.4-2.1a17,17,0,0,0-.6-3.1,1,1,0,0,1-.1-.9l.6-.2,1.1-.3a5.8,5.8,0,0,1,1.9-.4l1.2-.3,1.2-.3,3.8-.4,1.3-.2,4.2-.5c1-.2,2-.2,3-.3H89a4.4,4.4,0,0,1,2.3-.1,5.8,5.8,0,0,0,1.9.3h.6a6.5,6.5,0,0,0,2,.4c.1,0,.1.1.2.2s.5.8.7,1.3a22.6,22.6,0,0,1,1.6,2.6h.3a.6.6,0,0,0,.5-.2,2.7,2.7,0,0,0-.3-1.5c-.1-.5-.3-.9-.4-1.4a9.8,9.8,0,0,1-.6-2.3,8.4,8.4,0,0,1,2.7-3.2l.6-.5a5.3,5.3,0,0,1,1.2-1c.8-.4,1.5-1,2.3-1.5a31.7,31.7,0,0,1,4.5-2.3,32,32,0,0,1,4.3-1.7,5.2,5.2,0,0,1,1.3-.6,11.7,11.7,0,0,0,2-.6,19.5,19.5,0,0,1,4.2-.8h1.7a2.7,2.7,0,0,1,.9,0c.8,0,1.4.4,2.1.4s.3.3.3.5a13.3,13.3,0,0,1,1,2.8c.1.4.1.8.5,1a.6.6,0,0,0,.6-.5c0-.2.1-.5.1-.8a2.6,2.6,0,0,0-.1-1.5C127.5,49.8,127.1,48.4,126.5,47.2Zm-70.1-37c.3.2.3.4.3.7a9.5,9.5,0,0,0,.5,2.3,11.4,11.4,0,0,0,1.5,3.4c0,.1,0,.3.1.3a.8.8,0,0,1-.5.6l-1.2.2a.7.7,0,0,1-.4-.8,23.3,23.3,0,0,1-.4-3.7,19.3,19.3,0,0,0-.1-2.4A.8.8,0,0,1,56.4,10.2ZM48.8,55.9c-.1,1.6-.3,3.2-.4,4.8s-.2,4.4-.2,6.7,0,2.3.1,3.4a1.5,1.5,0,0,1-.2,1.1H47l-3-1-3.1-1.1-.8-.2c-2-.3-4-.8-6.1-1l-3.3-.5-3.6-.6h-.5a5.6,5.6,0,0,1-2.2-.3,30.4,30.4,0,0,0-6-.5,20.9,20.9,0,0,0-2.5,0,4.2,4.2,0,0,0-2.1.6,12.7,12.7,0,0,0-3.1,2h-.2c-.4-.1-.4-.4-.4-.7V67.1c.2-1.3.5-2.6.7-3.9a29.1,29.1,0,0,1,1.6-5,8.8,8.8,0,0,0,.5-1.5l.3-.7a50.1,50.1,0,0,1,3.4-7c.8-1.3,1.6-2.6,2.5-3.9s1.7-2.4,2.6-3.5l3.9-4.2A18.5,18.5,0,0,0,27,36l2.5-2.4L32,31.4c1.5-1.3,3-2.6,4.5-3.7a54.9,54.9,0,0,1,5.4-3.5l3-1.9a24.8,24.8,0,0,1,4.4-2l3-1.2,2.1-.6a.6.6,0,0,1,.7.1c.1.3-.1.6-.2.9a45,45,0,0,0-1.4,4.9L52.3,30c-.4,2-.9,3.9-1.3,5.9a38.6,38.6,0,0,0-.9,4.9,88.5,88.5,0,0,0-.9,9,38.9,38.9,0,0,1-.4,4.7Zm1.1,18.6c-.3-.1-.2-.2,0-.5S50,74.3,49.9,74.5Zm33.8,39.1a1.9,1.9,0,0,1,.5,1c.2.8.4,1.7.7,2.6l1.2,3.2a6.4,6.4,0,0,0,1,1.8,7.5,7.5,0,0,0,3.4,2.7,5.3,5.3,0,0,0,3,.7l.9-.4a2.9,2.9,0,0,0,1.6-1.8,2,2,0,0,1,.4-.8,2.8,2.8,0,0,0,.2-1.8l-.3-2.1c0-.2.1-.3.3-.4a2.8,2.8,0,0,0,1,.9.5.5,0,0,1,.3.5,15.9,15.9,0,0,1,.6,3c0,.2.1.3,0,.5a7.6,7.6,0,0,1-1.6,3.8l-.3.3-2,1.1a12,12,0,0,1-3.8.5,2.4,2.4,0,0,1-1.2-.3l-.7-.4a6.2,6.2,0,0,1-2.7-2.1,4.4,4.4,0,0,1-1.2-1.8V124a26.1,26.1,0,0,1-1.7-2.8,6.1,6.1,0,0,1-.5-1.2l-1.2-4.1c-.1-.3-.1-.6-.2-.9a.5.5,0,0,1,.1-.6l.3-.2C82.4,114.2,82.9,113.5,83.7,113.6ZM70.6,72.1c.1.5.3,1,.4,1.4.7,2.4,1.4,4.7,1.9,7.2A32.5,32.5,0,0,0,75,87.4l1.8,4.7.6,1.5c.7,1.8,1.2,3.7,1.8,5.5s.9,3.1,1.3,4.6l1.5,5.2a24.5,24.5,0,0,1,.8,2.9,1.1,1.1,0,0,1,.1.5.6.6,0,0,1-.5.5c-.4,0-.6-.3-.8-.6s-.6-1.7-.8-2.5-.7-2.3-1-3.4l-.2-.3c-.5-2.3-1.4-4.5-1.9-6.8a7.5,7.5,0,0,0-.7-1.8,51.1,51.1,0,0,1-2.3-7.6A23.8,23.8,0,0,0,73.6,86a21,21,0,0,1-.6-2.4c-.3-1.2-.8-2.4-1.1-3.5s-1-3.3-1.4-5-1-4.4-1.7-6.6l-.6-2c0-.4-.1-.7-.1-1.2a.9.9,0,0,1,.6-.3.8.8,0,0,1,.5.5c.1.7.4,1.4.5,2.2S70.3,70.6,70.6,72.1ZM95.5,61.4c-1.4-.4-2.8-.4-4.1-.8a3.8,3.8,0,0,0-1.5,0l-4.5.6a29.7,29.7,0,0,1-4.3.6l-3.4.4a15.5,15.5,0,0,0-3.1.4l-5,1.2-2.4.6-2.9.8a60,60,0,0,0-7.5,2.5A18.3,18.3,0,0,0,54.4,69c-.6.3-1.1.8-1.6,1.1l-1.5,1.2h-.8a.8.8,0,0,0-.2.5.7.7,0,0,1-.4.8c-.3-.1-.4-.2-.4-.4a14.3,14.3,0,0,1-.6-3.5c0-1.7,0-3.3.1-5a24.2,24.2,0,0,1,.3-4.6c0-.5.1-1.1.1-1.7a40.3,40.3,0,0,1,.3-4.9c.2-1.5.2-2.9.3-4.4s.1-2.1.2-3.1.3-2,.4-2.9.2-2.2.4-3.3a3.6,3.6,0,0,1,.2-1c.3-1.6.6-3.1,1-4.6s.9-4,1.3-6,.8-3.5,1.3-5.2a18.3,18.3,0,0,1,.8-2.5,1.2,1.2,0,0,1,.5-.7h.3a3.4,3.4,0,0,0,2.2-.3c.4-.2.7,0,1.1.1l.5-.2a2.3,2.3,0,0,1,1.4.1,8.8,8.8,0,0,1,2.2,1,31.2,31.2,0,0,0,3.5,2,.1.1,0,0,0,.1.1c1.6,1.2,3.5,2,5.2,3.1a30.6,30.6,0,0,1,2.9,2.1l.6.3a25.9,25.9,0,0,1,4.1,3.1l2.4,2.4A8.6,8.6,0,0,1,84,34.4c1,1.6,2.2,3.1,3.1,4.8l.3.5a46.4,46.4,0,0,1,4.3,7.9A46.2,46.2,0,0,1,94,53.8l1.2,3.6.9,3a1.7,1.7,0,0,1,.1.7C96,61.5,95.7,61.4,95.5,61.4Zm29.9-12.9c-.2.1-.4-.1-.6-.1a4.3,4.3,0,0,0-1.6-.1c-.1,0-.3.1-.4,0a19.3,19.3,0,0,0-2.4-.1,4.1,4.1,0,0,0-1.6.3l-4.2,1.1a4.6,4.6,0,0,0-1.6.7,28.5,28.5,0,0,1-3.1,1.2l-2.2,1-1.7.9a22.6,22.6,0,0,0-4.9,3.1A21.6,21.6,0,0,0,98.4,59l-.7.8c-.2.3-.4.3-.7.1a1.4,1.4,0,0,1-.2-.6c-.4-1.3-.8-2.6-1.3-3.9s-.9-2.3-1.2-3.5-1.2-3.1-1.8-4.7a52.3,52.3,0,0,0-3.7-7,25.4,25.4,0,0,0-2.3-3.4c-.6-.8-1.1-1.7-1.7-2.6A16.4,16.4,0,0,0,82.1,31l-.4-.5a19,19,0,0,0-2.1-1.9l-2-1.4-2.9-2a22.6,22.6,0,0,0-2.6-1.6l-6.4-3.7-1-.7a4.6,4.6,0,0,0-1.4-.7l-.4-.4c0-.4.4-.4.6-.4a16.6,16.6,0,0,1,2.2-.3l1.8-.2h5.2a10.1,10.1,0,0,1,3,.2c1.8.1,3.6.6,5.3.8l1.8.3a10.5,10.5,0,0,1,2.4.6l2.4.7a18.7,18.7,0,0,1,4,1.3,17,17,0,0,0,3.2,1l2.6.9,3.5,1.2,5.8,2.2,2.1,1.4,1.4,1c.9.5,1.8,1.1,2.7,1.5l1.3.9,2.7,2.2a22.5,22.5,0,0,1,4.1,4.6l1,1.2a34,34,0,0,1,2.6,5,15.9,15.9,0,0,1,1,3.9A.6.6,0,0,1,125.4,48.5Z" style="fill: #333"/>
      <g style="opacity: 0.1">
        <path d="M54.9,18.2c-1.9,2-2.9,4.8-3.7,7.5-1.7,5.7-3,11.6-5.2,17.1-3.6,9.3-9.2,17.6-14.8,25.7,5.6,1.1,12,2.6,17.5,4.1-.2-3.1-.3-6.9-.2-10s.5-5.7.7-8.6.5-8.3,1-12.4.9-5.3,1.5-8c1.1-5.3,2.1-10.3,4.4-15.6l-1.7-.2"/>
      </g>
      <g style="opacity: 0.1">
        <path d="M61.1,18c-.4-.1-1.2-.1-1.2.3s.6,1,.9,1.3c2.5,3.4,6.6,5.3,9.4,8.5a20.9,20.9,0,0,1,3.6,6.1c3.9,9.3,3.8,18.5,3.6,28.7,5.5-1.3,16.8-2.2,18.2-.7s.5-.1.6-.2a1,1,0,0,0,.2-.7A14,14,0,0,0,95,55.7a63.7,63.7,0,0,1-2.3-6.1C90,40.2,82.2,31.5,80.3,29.8A81.9,81.9,0,0,0,72,24c-1.7-.8-3.4-1.9-5.1-2.8s-2-1.5-3.1-2.2a5,5,0,0,0-3.5-1"/>
      </g>
      <g style="opacity: 0.1">
        <path d="M63.8,17.5A50,50,0,0,1,82.6,20a180.8,180.8,0,0,1,17.7,7,67.3,67.3,0,0,1,10.3,5.4,34.3,34.3,0,0,1,12.2,14.7,4.4,4.4,0,0,0,1,1.6,1.4,1.4,0,0,0,1.8,0,2.3,2.3,0,0,0,.1-2,32.1,32.1,0,0,0-12.5-16.9c-5.9-4.1-13.7-6.2-20.5-8.6A91.7,91.7,0,0,0,80,17.7c-4.5-.9-9-.8-13.6-.8"/>
      </g>
      <g style="opacity: 0.1">
        <path d="M82.2,113.6l1.7,4.3a21.2,21.2,0,0,0,3.4,6.5c1.7,1.8,4.2,3,6.6,2.4s3.7-2.4,4.9-4.2a6.3,6.3,0,0,1-3.2,5.7,10.5,10.5,0,0,1-2.3.8,8.1,8.1,0,0,1-3.1.1,9,9,0,0,1-5.7-4.2,23.8,23.8,0,0,1-2.5-6.9l-1.1-3.8c0-.2-.1-.4,0-.5s.9.1,1.3-.1"/>
      </g>
    </g>
    <g>
      <path d="M3.1,43.1l.3-.4L4,41.6a4.1,4.1,0,0,1,.5-.9c.2-.1.3-.4.5-.5H5a3.1,3.1,0,0,1,1.8-.5,7.6,7.6,0,0,1,1.6.6l1.2,1a1.4,1.4,0,0,1,.2.6,2.9,2.9,0,0,1-.2,2.4c-.2.5-.5.9-.7,1.3s-.1.1-.1.2l.8.6L12,47.7l.4.2a.4.4,0,0,1,.2.4h-.5L9.3,46.7,8.4,46c-.5-.3-1-.4-1.4-.7a2,2,0,0,1-.8-.4L3.5,43.5C3.3,43.4,3.1,43.4,3.1,43.1Zm.7,0,4.5,2.3c.1-.1.2-.2.2-.3a10.9,10.9,0,0,0,.8-1.5,2.5,2.5,0,0,0,0-1.7.5.5,0,0,0-.2-.4,5.3,5.3,0,0,0-1.2-1l-1.1-.4a2.1,2.1,0,0,0-1.5.5h0a19.9,19.9,0,0,0-1.2,1.9Z" style="fill: #fff;stroke: #fff;stroke-miterlimit: 10;stroke-width: 0.10630999505519867px"/>
      <path d="M14,36.6h.5a6.9,6.9,0,0,1,2,.1,12.5,12.5,0,0,0,1.9.3h.9c.1,0,.2,0,.2.1s.2.1.2.3a.2.2,0,0,1-.2.2H17.7L16,37.2a6,6,0,0,0-1.9,0,.5.5,0,0,0-.5.3l-.9,1.2c.2.2.3.4.5.5l.9.7c.7.6,1.4,1,2.1,1.5s.1.1.1.2.2.2.1.3-.2.2-.3.1h-.2l-1.7-1.2-1.2-1a26.1,26.1,0,0,0-2.7-1.9l-.7-.5a22.6,22.6,0,0,0-2-1.3l-.2-.2c-.2-.2-.2-.2-.1-.5l.8-.9,1.1-1.3c.1-.1.2-.1.2-.2a3.9,3.9,0,0,1,2.4-.2,2.4,2.4,0,0,1,1.4,1l.3.4a3.5,3.5,0,0,1,.6,1.7A1.1,1.1,0,0,1,14,36.6ZM8,35.5c.1.2,4,2.8,4.2,2.9a.1.1,0,0,0,.1-.1l1.1-1.5c0-.1.1-.2.1-.3a2.4,2.4,0,0,0,0-1.2,3.7,3.7,0,0,0-.7-1.2,1.6,1.6,0,0,0-1.2-.8H10.3c-.3.1-.5.1-.6.3A10.6,10.6,0,0,0,8,35.5Z" style="fill: #fff;stroke: #fff;stroke-miterlimit: 10;stroke-width: 0.10630999505519867px"/>
      <path d="M21.3,29a6.2,6.2,0,0,1,1.4,1.9l.3.7a1.7,1.7,0,0,1,0,1.7,4.7,4.7,0,0,1-.6.9l-.8.5h-.3a1.9,1.9,0,0,1-1.5,0,1.8,1.8,0,0,1-.9-.4,11.5,11.5,0,0,1-3.3-2.5l-1.1-1-.7-1a9.3,9.3,0,0,1-.5-1,2,2,0,0,1,.2-1.5A7.6,7.6,0,0,1,14.6,26h.1a2.3,2.3,0,0,1,2.5,0l1.4.9,1.9,1.6Zm-1.4-.5a15.8,15.8,0,0,0-1.5-1.2l-.6-.3-.7-.5a1.6,1.6,0,0,0-2.3.2l-.2.2a5,5,0,0,0-.8,1.2v.7a7.5,7.5,0,0,0,.9,1.5l.9,1c.7.7,1.5,1.2,2.2,1.8l1.3.8.9.4a1.3,1.3,0,0,0,1.2-.1h.1a1.9,1.9,0,0,0,1.1-.9l.2-.3a1.4,1.4,0,0,0,0-.9,5.3,5.3,0,0,0-1.2-2.2,15.9,15.9,0,0,0-1.3-1.3Z" style="fill: #fff;stroke: #fff;stroke-miterlimit: 10;stroke-width: 0.10630999505519867px"/>
      <path d="M27.3,28.7c0-.2-.1-.3-.1-.4s-1.6-2.9-2.4-4.4l-2-3.7-.3-.8-.2-.3a.2.2,0,0,1,.3-.3c.2,0,.2.2.3.3A31.7,31.7,0,0,0,25,23.2a30.1,30.1,0,0,0,1.6,3.1l1.2,1.9a.7.7,0,0,1-.2,1,.4.4,0,0,1-.5,0l-1.5-1.1a1.8,1.8,0,0,0-.7-.5L22,25.2l-2-1.6-.9-.6-.6-.4c-.2-.2-.2-.4-.1-.5s.2-.1.4.1l.9.5,2,1.6A18.4,18.4,0,0,0,23.9,26l2,1.6Z" style="fill: #fff;stroke: #fff;stroke-miterlimit: 10;stroke-width: 0.10630999505519867px"/>
      <path d="M26.6,16.5h-.3c-.1,0-.2,0-.2-.2s-.1-.2,0-.2.1-.1.1-.2a5.8,5.8,0,0,0,1.5-1.1c.3-.1.5-.4.9-.5h.1c.1-.1.2,0,.3.1a.4.4,0,0,1-.1.3l-.2.2-.6.5.2.3a21.4,21.4,0,0,1,1.3,1.9l.9,1.5A26.8,26.8,0,0,1,32.3,22a14,14,0,0,0,1,1.6c.1,0,.1.1.2.2l1-.7h.2a.2.2,0,0,1,.3,0,.3.3,0,0,1,0,.4l-.3.3-2.2,1.5H32c-.1-.2-.1-.3,0-.4h.2a2.7,2.7,0,0,0,.8-.7.8.8,0,0,0-.2-.4,4.1,4.1,0,0,1-.7-1.1c-.8-1.4-1.7-2.8-2.6-4.1l-1.2-1.9-.7-.8Z" style="fill: #fff;stroke: #fff;stroke-miterlimit: 10;stroke-width: 0.10630999505519867px"/>
      <path d="M37.5,21.7a5.9,5.9,0,0,1-.4-.8,33.8,33.8,0,0,0-2.2-4.7c-.4-.8-.6-1.5-1-2.2a10,10,0,0,1-.8-1.4c-.1-.2-.3-.3-.3-.4s.1-.2.2-.3l2.4-1.3a3.1,3.1,0,0,1,1.9,0,2.3,2.3,0,0,1,1.4,1,5.6,5.6,0,0,1,1,1.5c.1.3.3.5.4.8a20.3,20.3,0,0,1,1.1,2.6,2.5,2.5,0,0,1,.3,1.7,2.9,2.9,0,0,1-.9,2.1l-.4.3-1.8.9-.5.2C37.8,21.8,37.7,21.7,37.5,21.7Zm-4-9.4.2.3.9,1.7.9,1.9.6,1.1c.6,1.2,1.2,2.4,1.7,3.6s0,.2.1.2H38L40,20a1.9,1.9,0,0,0,.7-.6l.3-.9a3,3,0,0,0-.2-1.6,16.7,16.7,0,0,0-.8-2c-.3-.7-.7-1.4-1.1-2.2l-.3-.4-.7-.8a2.1,2.1,0,0,0-1.3-.5,4.1,4.1,0,0,0-1.8.5l-1,.6Z" style="fill: #fff;stroke: #fff;stroke-miterlimit: 10;stroke-width: 0.10630999505519867px"/>
      <path d="M41.2,8l.7-.3a8.4,8.4,0,0,0,1.4-.6l1.8-.8h.2a.2.2,0,0,1,.2.2.4.4,0,0,1-.1.3h-.3l-1.2.6-2.1.8h-.1a9.5,9.5,0,0,1,.9,2.1c.2.8.5,1.5.7,2.3l1.1-.4,1.3-.6h.1c.2-.1.3,0,.4.1s0,.3-.2.4l-1.2.5-1.3.5c0,.2,0,.3.1.4a18.3,18.3,0,0,1,.8,2.5c.2.5.2.9.4,1.4v.3h.3l.9-.4,2.4-.9h.3l.3.2a.4.4,0,0,1-.1.3h-.2l-3,1.1-.8.4c-.3.1-.4,0-.5-.3a8.4,8.4,0,0,1-.5-1.7c-.2-.5-.3-1-.5-1.4s-.9-3-1.4-4.4-.5-1.3-.7-1.9-.2-.3-.2-.5A.2.2,0,0,1,41.2,8Z" style="fill: #fff;stroke: #fff;stroke-miterlimit: 10;stroke-width: 0.10630999505519867px"/>
      <path d="M66.3,2.4H67l1.6-.2a6.2,6.2,0,0,0,1.9-.2h.2a.2.2,0,0,1,.2.2l-.2.2h-.4L69,2.7l-2.2.2h-.1a19.4,19.4,0,0,1,.2,2.4V7.6H68l1.4-.2h.2c.2,0,.3.1.3.2a.3.3,0,0,1-.3.3l-1.3.2H67a.4.4,0,0,0-.1.3,24.4,24.4,0,0,1,.1,2.7,6.6,6.6,0,0,0,0,1.4c0,.1-.1.2,0,.3h1.2l2.6-.2h.3a.2.2,0,0,1,.2.2c0,.2-.1.3-.2.3h-.2l-3.1.2h-.9c-.3,0-.4,0-.4-.3a6,6,0,0,1,0-1.9V9.8c-.1-1.5-.1-3-.1-4.5a14.9,14.9,0,0,0-.2-2.1V2.7A.4.4,0,0,1,66.3,2.4Z" style="fill: #fff;stroke: #fff;stroke-miterlimit: 10;stroke-width: 0.10630999505519867px"/>
      <path d="M76.8,7.1l.7-1.4A6.9,6.9,0,0,1,78,4.4a8.8,8.8,0,0,0,.5-1.5l.3-.5c0-.1.1-.3.3-.2s.2.1.2.3-.4,1.3-.7,1.9-.7,1.9-1.2,2.8l-.2.3a1,1,0,0,0,0,.9c.3.9.7,1.9,1.1,2.8a10.4,10.4,0,0,1,.4,1,3.6,3.6,0,0,0,.3.7v.3a.5.5,0,0,1-.2.4l-.4-.2c-.1-.5-.3-.9-.4-1.4l-.6-1.2a11.5,11.5,0,0,1-.6-1.7.8.8,0,0,1-.2-.5c-.2.1-.2.2-.3.3s-.8,1.8-1.1,2.7-.7,1.1-1,1.6a.1.1,0,0,0-.1.1h-.3c-.1-.1-.1-.2-.1-.4l.5-.6.7-1.4.3-.7a4.7,4.7,0,0,0,.5-1,3.1,3.1,0,0,1,.6-1.3,8.8,8.8,0,0,0-.7-2.3,8.8,8.8,0,0,1-.5-1.5,2.3,2.3,0,0,0-.6-1.2c0-.2-.1-.3-.1-.4s0-.3.1-.3.3,0,.4.1a6.6,6.6,0,0,1,.8,2.1c0,.1.1.2.1.4A12.3,12.3,0,0,1,76.8,7.1Z" style="fill: #fff;stroke: #fff;stroke-miterlimit: 10;stroke-width: 0.10630999505519867px"/>
      <path d="M83.2,2.9h.5l1.2.2,1,.2.7.2h.1a2.5,2.5,0,0,1,1.1,1.5,10.3,10.3,0,0,1-.1,1.7,3.9,3.9,0,0,1-.5,1.4l-.4.4a3,3,0,0,1-2.4.7L83,9.1h-.2a6.9,6.9,0,0,0-.4,1,25.1,25.1,0,0,0-.4,2.7c0,.2-.1.3-.1.5a.3.3,0,0,1-.3.3c-.1,0-.2-.2-.2-.4h0c.2-1,.3-2.1.6-3.2l.3-1.1c.1-.5.1-1,.2-1.5a2.8,2.8,0,0,1,.1-.9c.2-1,.2-2,.3-3S83,3,83.2,2.9Zm.3.6c-.1.4-.6,4.6-.6,5.1h.3l1.7.2a2.4,2.4,0,0,0,1.6-.5q.3-.2.3-.3a3,3,0,0,0,.5-1.6V5.3a1.7,1.7,0,0,0-1-1.2h0l-2.2-.5Z" style="fill: #fff;stroke: #fff;stroke-miterlimit: 10;stroke-width: 0.10630999505519867px"/>
      <path d="M92,4.4h.8a8,8,0,0,0,1.5.3l1.9.4h.2a.4.4,0,0,1,.1.3h-.7l-1.2-.2A17.4,17.4,0,0,0,92.4,5h-.1c-.2.7-.3,1.5-.5,2.3s-.5,1.5-.8,2.2l1.1.3a5.8,5.8,0,0,1,1.4.3h.2c.2.1.2.2.2.3s-.2.3-.3.2l-1.3-.2-1.4-.3a.4.4,0,0,0-.1.3c-.2.8-.5,1.7-.8,2.6s-.3.8-.4,1.3v.3h.2l1,.2,2.6.6h.2c.1.1.2.2.1.3a.2.2,0,0,1-.2.2h-.2l-3.1-.8-.9-.2c-.3,0-.3-.1-.3-.4l.6-1.8a5.8,5.8,0,0,0,.5-1.4,36.6,36.6,0,0,1,1.3-4.4,14.2,14.2,0,0,0,.4-2,.9.9,0,0,0,.1-.5Z" style="fill: #fff;stroke: #fff;stroke-miterlimit: 10;stroke-width: 0.10630999505519867px"/>
      <path d="M100.7,13.4c0,.1.1.3.1.4a6.5,6.5,0,0,1,.4,2,11.1,11.1,0,0,0,.2,1.9c0,.3.1.6.1,1h0c0,.2-.1.3-.2.3s-.3-.1-.3-.2-.1-.3-.1-.4a5.1,5.1,0,0,0-.2-1.3,10.9,10.9,0,0,1-.1-1.8,5.8,5.8,0,0,0-.4-1.8,1,1,0,0,0-.5-.4l-1.4-.6-.3.6-.5,1.1c-.4.8-.6,1.6-1,2.4v.2h-.4a.2.2,0,0,1-.1-.3v-.2c.3-.7.5-1.4.8-2l.6-1.3c.5-1,.8-2.1,1.2-3.1l.3-.9c.3-.7.5-1.5.8-2.2V6.8c.1-.3.2-.3.5-.2l1.1.5,1.5.7.2.2a3.5,3.5,0,0,1,.8,2.2,2.5,2.5,0,0,1-.6,1.7l-.3.3a5.3,5.3,0,0,1-1.5,1.1Zm-.5-6.2c-.1.2-1.7,4.7-1.7,4.9h.1l1.8.7h.2a2.7,2.7,0,0,0,1.2-.3,4.3,4.3,0,0,0,1-.9,1.9,1.9,0,0,0,.5-1.4,2.8,2.8,0,0,0-.3-1.3l-.3-.5A19.2,19.2,0,0,0,100.2,7.2Z" style="fill: #fff;stroke: #fff;stroke-miterlimit: 10;stroke-width: 0.10630999505519867px"/>
      <path d="M108.2,10.7l-.9-.5h-.2a.3.3,0,0,1,0-.4h.3a.5.5,0,0,0,.4.3L110,11a6.7,6.7,0,0,0,1.2.6l1.4.7c.1.2.3.2.5.3s.1.1.2.2-.2.3-.4.3l-.8-.4a1.9,1.9,0,0,0-.9-.5l-1-.5-.3.9-.2.3c-.8,1.6-1.5,3.2-2.4,4.7l-1.2,2-.6,1.2h-.4c-.2-.1-.2-.2-.2-.3l.2-.3,1.5-2.8a3.5,3.5,0,0,0,.5-.8c.7-1.2,1.3-2.4,1.9-3.7a3.5,3.5,0,0,0,.6-1.4v-.2Z" style="fill: #fff;stroke: #fff;stroke-miterlimit: 10;stroke-width: 0.10630999505519867px"/>
      <path d="M116.3,15.2l-.2-.2a.2.2,0,0,1,0-.3h.5l1.6.9c.2.2.5.3.7.6h.1a.2.2,0,0,1,0,.3c-.1.1-.2.2-.3.1h-.2a1.3,1.3,0,0,0-.7-.4c-.2,0-.2.2-.3.3a12.2,12.2,0,0,1-1.2,1.9,7.1,7.1,0,0,0-1,1.4l-2,2.7-1.1,1.5v.3l1,.6.2.2a.4.4,0,0,1,.1.3c-.1.1-.2.2-.4.1l-.4-.2L110.4,24l-.2-.2a.2.2,0,0,1,0-.3c0-.1.1-.1.3-.1h.2l.9.6.3-.4a7.6,7.6,0,0,1,.8-1.1l2.8-3.9,1.3-1.8a9.3,9.3,0,0,0,.5-1Z" style="fill: #fff;stroke: #fff;stroke-miterlimit: 10;stroke-width: 0.10630999505519867px"/>
      <path d="M124.7,20.7a3.8,3.8,0,0,1,1.2,1.6c0,.2.1.4.1.6v.4a.3.3,0,0,1,.1.2.3.3,0,0,1-.3.3c-.1.1-.3,0-.3-.2s-.1-.3-.1-.5a1.3,1.3,0,0,0-.1-.6,4.2,4.2,0,0,0-.9-1.4l-.4-.3a1.2,1.2,0,0,0-1.5-.1,2.6,2.6,0,0,0-1.3,2.6,5.2,5.2,0,0,1,.2,1.1l.3,1.2a5.4,5.4,0,0,0,.3,1,2,2,0,0,1,0,1.5,3.4,3.4,0,0,1-1.3,1.8,4.9,4.9,0,0,1-1.6.5l-.8-.2a3.5,3.5,0,0,1-1.9-1.9,3.7,3.7,0,0,1-.3-1.5c0-.2,0-.3.1-.4s.1-.2.3-.1.2.1.1.2.1.6.1.9a3.2,3.2,0,0,0,1.4,2l.7.4h.4l.8-.2a1.5,1.5,0,0,0,.9-.6,2.1,2.1,0,0,0,.7-1.4,2.9,2.9,0,0,0-.2-.9l-.3-1.1c-.1-.8-.3-1.5-.4-2.3a3.6,3.6,0,0,1,.3-1.7,2.2,2.2,0,0,1,.5-.8,3.5,3.5,0,0,1,1.6-.8,1.6,1.6,0,0,1,1.2.3C124.5,20.4,124.6,20.6,124.7,20.7Z" style="fill: #fff;stroke: #fff;stroke-miterlimit: 10;stroke-width: 0.10630999505519867px"/>
      <path d="M129.7,25.9c.1.1.4.3.5.5l1.1,1.2a8,8,0,0,0,1.3,1.3l.2.3a.2.2,0,0,1-.2.2.2.2,0,0,1-.3,0l-.3-.2a7,7,0,0,1-.8-1c-.5-.6-1.1-1-1.5-1.6s-.1,0-.1-.1a13.7,13.7,0,0,1-1.8,1.6l-1.9,1.4.7.9a4.7,4.7,0,0,1,1,1h.1c.1.2.1.3,0,.4a.3.3,0,0,1-.4,0,4.3,4.3,0,0,0-.9-1l-.9-1h-.3a17.3,17.3,0,0,1-2.1,1.7,4.8,4.8,0,0,0-1.1.9l-.3.2c0,.1.1.1.1.2a2.3,2.3,0,0,1,.7.7l1.8,2c0,.1.1.1.1.2a.4.4,0,0,1-.1.3h-.4l-2.1-2.4-.6-.7c-.2-.2-.2-.3,0-.5l1.5-1.1,1.2-.9,3.6-2.8a10.7,10.7,0,0,0,1.6-1.4l.3-.3C129.5,25.9,129.6,25.8,129.7,25.9Z" style="fill: #fff;stroke: #fff;stroke-miterlimit: 10;stroke-width: 0.10630999505519867px"/>
    </g>
  </g>
</svg>
