<svg id="Layer_1" data-name="Layer 1" xmlns="http://www.w3.org/2000/svg" viewBox="0 0 1500 600">
  <g>
    <path d="M211.025,281.526c1-2.222,1.458-3.069,1.766-3.97,15.293-44.788,33.853-88.252,53.412-131.3,6.392-14.068,12.824-27.609,19.906-43.063,5.064-13.391,12.654-27.054,18.313-29.762,6.486-3.365,42.922-3.365,56.872-1.669C368.6,73.1,378.479,87,385.128,98.98c24.88,44.827,45.218,91.772,66.254,138.395a453.193,453.193,0,0,1,18.807,50.5c.5,1.6.544,3.534,2.4,4.835,2.113-1.8,2.936-4.436,4.186-6.745,21.978-40.612,40.522-82.789,57.477-125.7,9.545-24.158,19.4-48.193,29.124-72.28.878-2.173,1.841-4.311,2.744-6.473,2.857-6.842,7.91-11.516,14.508-14.64a63.469,63.469,0,0,1,19.077-5.5c14.681-1.91,29.252-1.669,43.519,2.859,5.252,1.666,10.268,3.849,14.376,7.644,5.165,4.771,5.786,9.228,2,15.047a33.374,33.374,0,0,0-3.431,6.773c-10.391,28.5-24.369,55.389-36.956,82.915-21.528,47.079-44.127,93.658-65.409,140.845-7.223,16.016-12.962,32.686-20.816,48.442-1.656,3.321-3.42,6.588-5.094,9.9-6.922,13.7-18.179,21.626-33.034,24.716a114.987,114.987,0,0,1-52.3-.92,73.114,73.114,0,0,1-10.5-3.652c-9.016-3.822-15.843-10.021-19.49-19.251-4.248-10.755-9.84-20.827-15.24-31.011-7.261-13.695-12.207-28.324-16.861-43.043a723.032,723.032,0,0,0-44.4-108.954c-.787-1.554-1.644-3.072-2.67-4.983-1.984,1.526-2.478,3.609-3.3,5.414a774.987,774.987,0,0,0-37.478,102.238c-5.545,18.93-11.051,37.875-17.647,56.479A207.21,207.21,0,0,1,260.9,383.709c-4.524,8.2-11.237,13.278-19.953,16.166-13.613,4.512-27.556,5.338-41.709,3.931a98.354,98.354,0,0,1-16.623-3.419c-11.848-3.3-19.671-10.747-23.762-22.266-1.307-3.68-2.731-7.32-4.1-10.979-7.611-20.35-17.822-39.524-26.921-59.2-13.453-29.089-26.567-58.3-37.28-88.536-5.29-14.931-9.419-30.207-13.6-45.46-5.369-19.607-11.408-38.987-18.368-58.084a179.6,179.6,0,0,1-6.672-22.451c-.594-2.666-1.139-5.354-1.5-8.059C48.084,67.72,55.554,59,73.268,58.555c12.129-.3,22.6,3.852,31.608,11.806A126.346,126.346,0,0,1,122.848,90.4c18.092,24.567,31.448,51.627,43.072,79.713,11.058,26.719,20.66,54,31.715,80.707C201.733,260.719,206.19,270.47,211.025,281.526Z" fill="#00c399"/>
    <path d="M1043.91,366.129c-.77-1.6-1.257-3.064-2.775-6.1s-3.6-7.283-4.554-9.109c-7.559-14.444-14.166-24.78-22.706-38.274-12.276-19.4-25.918-37.883-37.219-57.934-6.225-11.045-12.91-21.812-19.845-32.411-5.745-8.779-11.122-17.781-16.437-26.835-12.834-21.862-26.566-42.417-40.3-63.741-8.374-13-15.375-25.771-19.066-32.128C875,89.249,870.5,80.156,861.821,71.943c-4.3-4.071-8.654-7.419-14.409-8.488a65.4,65.4,0,0,0-15.168-.915c-6.86.328-15.664.768-22.411.559-5.963-.185-17.695,1.187-24.933,1.474-6.278.249-11.064.137-17.03,2.454-2.038.791-6.073,6.073-7.066,9.071-1.226,3.7-2.38,7.118-3.876,10.556-6.968,16.013-8.659,21.281-15.628,37.269-5.441,12.483-5.237,11.532-22.772,52.182-16.335,36.786-33.43,72.956-52.508,107.178-9.539,16.23-33.021,65.48-37.191,72.457a172.348,172.348,0,0,0-8.808,16.172c-2.79,6.058-1.628,11.626,2.185,16.777a24.646,24.646,0,0,0,9.737,7.469,63.837,63.837,0,0,0,22.572,6c25.944,1.859,51.911,2.992,77.933,1.98,18.363-.714,36.733-1.255,55.1-1.873,0-.029,48.434.771,72.66-.083,17.584-.62,35.174.579,52.738-.614,12.376-.241,24.711-.7,37.034-1.275,15.754.412,31.508.818,47.264,1.108,11.828.218,23.759.306,35.543-.9,5.466-.56,10.146-2.43,13.022-7.373a22.566,22.566,0,0,0,2.585-13.527C1048.005,375.849,1044.287,366.91,1043.91,366.129ZM930.446,339.105l0,0-.138.04c-64.867,2.969-129.282-1.561-193.519-.206a20.661,20.661,0,0,1-2.324-.691c-.135-.068-.275-.129-.407-.2-.39-1.944.6-3.277,1.166-4.646a313.668,313.668,0,0,1,18.843-37.723c19.5-37.815,37.886-70.349,53.587-107.492,4.6-9.611,8.913-16.48,12.291-24.695,0-.008.011-.014.014-.022.056-.123.14-.227.207-.343.065-.066.13-.132.2-.195.111-.068.224-.134.34-.2a15.548,15.548,0,0,1,2.134-.573,13.111,13.111,0,0,1,1.795,2.728c5.506,8.689,11.124,17.316,16.3,26.206,12.455,21.387,26.01,42.074,38.707,63.3,11.487,19.2,23.253,38.192,35.8,56.692,4.881,7.2,9.416,14.64,14.04,22.015.911,1.453,2.093,2.826,2.447,5.115C931.435,338.514,930.94,338.808,930.446,339.105Z" fill="#2f495a"/>
    <path d="M1260.787,404.431c-49.57-.01-92.354-14.637-131.481-42.946-29.881-21.62-48.557-51.934-57.546-89.529-11.2-46.847-4.941-90.841,19.566-131.385,5.195-8.595,10.391-17.166,16.638-24.946,25.138-31.308,56.461-50.473,93.7-57.92,19.907-3.981,39.72-2.279,59.356,2.53a62.019,62.019,0,0,0,10.413,1.641q78.094,5.583,133.862,66.045a121.566,121.566,0,0,1,17.409,24.255c5.128,9.4,10.351,18.77,14.987,28.469,13.481,28.2,15.67,57.648,7.651,88.225-9.639,36.758-28.306,66.216-57.19,87.794-26.4,19.723-54.125,36.128-85.814,42.959-5.938,1.28-11.917,2.434-17.924,3.2C1275.675,403.928,1266.905,404.79,1260.787,404.431Zm-108.334-174.2a129.862,129.862,0,0,0,3.119,33.308c10.072,41.826,34.232,70.1,70.056,86.805a48.784,48.784,0,0,0,8.47,3.327c6.91,1.709,14.06,4.948,24.442,3.91a75.366,75.366,0,0,0,25.833-7.28,109.564,109.564,0,0,0,21.086-12.982c8.77-6.532,16.929-15.784,23.934-24.607,12-15.118,18.713-33.183,23.641-52.1,6.5-24.942,3.855-48.985-7.407-71.792-3.451-6.987-7.249-13.767-10.838-20.673a107.286,107.286,0,0,0-20.08-27.586c-19-18.544-39.581-33.139-66.017-35.721-16.007-1.563-31.538-.944-47.021,3.552a20.313,20.313,0,0,0-7.811,4.184,87.978,87.978,0,0,0-23.986,32.074C1158.167,171.746,1153.256,200.483,1152.453,230.235Z" fill="#ffbc42"/>
  </g>
  <text transform="translate(185.63 539.812)" opacity="0.75" font-size="105" fill="#2f495a" font-family="AvenirLTStd-Black, Avenir LT Std" font-weight="800" letter-spacing="0.364em">COOPER<tspan x="676.299" y="0" letter-spacing="0.272em">A</tspan><tspan x="782.664" y="0">TIVE</tspan></text>
</svg>
