<svg xmlns="http://www.w3.org/2000/svg" viewBox="0 0 318.83 81.68"><defs><style>.cls-1{fill:#231f20;fill-rule:evenodd;}</style></defs><title>Artboard 2</title><g id="Foreground"><path class="cls-1" d="M101,53.86c-2.75-5-7.43-7-12.86-7-7.91,0-14.21,5.59-14.21,15.06C73.9,71.57,79.82,77,88.38,77a14.56,14.56,0,0,0,12.75-7.59l-6-3.06c-1.34,3.22-3.39,4.19-6,4.19-4.47,0-6.51-3.71-6.51-8.61s1.72-8.61,6.51-8.61a6.16,6.16,0,0,1,5.38,3.93Z"/><path class="cls-1" d="M116.35,53.32c4.79,0,6.84,3.72,6.84,8.29,0,5.22-2,8.93-6.84,8.93s-6.83-3.71-6.83-8.61S111.56,53.32,116.35,53.32Zm0-6.45c-8.93,0-15.23,5.43-15.23,15.06S107.42,77,116.35,77s15.23-5.43,15.23-15.07S125.28,46.87,116.35,46.87Z"/><path class="cls-1" d="M133.3,76.25h8.4V58.44c0-2.59,1.07-4.79,4.46-4.79,3.23,0,4.09,1.88,4.09,4.68V76.25h8.4V58.65c0-2.9,1.45-5,4.25-5,3.17,0,4.3,1.83,4.3,5.86V76.25h8.4V54.4c0-6.56-6-7.53-8.83-7.53a12.26,12.26,0,0,0-9.2,3.82A8.87,8.87,0,0,0,150,46.87c-2.58,0-6.13.75-8.28,3.28V47.62h-8.4Z"/><path class="cls-1" d="M178.28,76.25h8.39V58.44c0-2.59,1.08-4.79,4.47-4.79,3.23,0,4.09,1.88,4.09,4.68V76.25h8.39V58.65c0-2.9,1.46-5,4.26-5,3.17,0,4.3,1.83,4.3,5.86V76.25h8.39V54.4c0-6.56-6-7.53-8.82-7.53a12.26,12.26,0,0,0-9.2,3.82A8.87,8.87,0,0,0,195,46.87c-2.58,0-6.13.75-8.29,3.28V47.62h-8.39Z"/><path class="cls-1" d="M237.52,53.32c4.79,0,6.83,3.72,6.83,8.29,0,5.22-2,8.93-6.83,8.93s-6.83-3.71-6.83-8.61S232.73,53.32,237.52,53.32Zm0-6.45c-8.93,0-15.23,5.43-15.23,15.06S228.59,77,237.52,77s15.23-5.43,15.23-15.07S246.45,46.87,237.52,46.87Z"/><path class="cls-1" d="M255,76.25h8.39V58.44c0-2.59,1.08-4.79,4.47-4.79,3.22,0,4.09,1.88,4.09,4.68V76.25h8.39V55.1c0-4.31-1.88-8.23-8.66-8.23-2.59,0-6.14.75-8.29,3.28V47.62H255Z"/><path class="cls-1" d="M308.38,51a23,23,0,0,0-12.65-4.14c-5.81,0-12.1,2.79-12.1,10,0,10.17,16.95,6.61,16.95,11.08,0,2.58-3.18,2.91-4.58,2.91-3.82,0-6.45-1.56-9-4l-5.22,4.52c4.2,3.87,7.75,5.65,14,5.65s12.92-2.69,12.92-10.22c0-10.71-16.95-6.68-16.95-11.57,0-1.46,1.51-2.21,3.6-2.21,2.64,0,6.25,1.08,7.91,3.07Z"/><path class="cls-1" d="M101,20.93c-2.75-5-7.43-7-12.86-7C80.2,13.93,73.9,19.53,73.9,29c0,9.63,5.92,15.07,14.48,15.07a14.58,14.58,0,0,0,12.75-7.59l-6-3.07c-1.34,3.23-3.39,4.2-6,4.2-4.47,0-6.51-3.71-6.51-8.61s1.72-8.61,6.51-8.61a6.16,6.16,0,0,1,5.38,3.93Z"/><path class="cls-1" d="M103,43.31h8.39V26.74c0-3.18,2-4,7-4.63l.91-.11,0-7.42a13.33,13.33,0,0,0-7.86,3v-2.9H103Z"/><path class="cls-1" d="M147.83,30.72c-.06-8.82-3.61-16.79-14.05-16.79-8.71,0-14,5.81-14,15.93,0,8.07,5.17,14.21,14,14.21,6.41,0,11-2.53,13.89-7.91l-6.3-3.29c-2.42,3.45-3.87,5.06-7,5.06-2.69,0-6.19-1.72-6.25-7.21ZM128,25.56a5.78,5.78,0,0,1,5.7-5.49,5.42,5.42,0,0,1,5.7,5.49Z"/><path class="cls-1" d="M167.08,31.37c0,4.36-2.47,6.56-5.75,6.56-2.05,0-3.93-1-3.93-3.23s1.94-3.12,4-3.71l5.65-1.61Zm8.08-9.15c-.06-6.46-4.95-8.29-12.76-8.29-3.87,0-11.51.76-11.78,9h8.07c.43-2.85,1.72-3.82,4.41-3.82,2.26,0,4,.91,4,3.07v2.36L164,25c-9.15,1.29-14.69,3.72-14.69,10.6,0,5.49,4.09,8.51,9.58,8.51,3,0,7.21-1.46,8.6-3.72h.11a11.84,11.84,0,0,0,.54,3h7.75a16.85,16.85,0,0,1-.75-6Z"/><path class="cls-1" d="M194.9,15.22h-5V6.94H181.5v8.28h-4.09v5.17h4.09V35.46c0,4.14,1,8.61,8.18,8.61,1.83,0,4.3-.22,5.38-.33V37.12a22.84,22.84,0,0,1-2.53.17c-1.51,0-2.64-.6-2.64-2.86v-14h5Z"/><path class="cls-1" d="M198.06,14.69V43.31h8.39V14.69Zm8.39-3.23V5h-8.39v6.46Z"/><polygon class="cls-1" points="217.75 43.31 226.2 43.31 235.99 14.69 227.06 14.69 222.11 34.92 222 34.92 217.05 14.69 208.06 14.69 217.75 43.31"/><path class="cls-1" d="M263.1,30.72c-.06-8.82-3.61-16.79-14.05-16.79-8.71,0-14,5.81-14,15.93,0,8.07,5.16,14.21,14,14.21,6.41,0,11-2.53,13.89-7.91l-6.3-3.29c-2.42,3.45-3.87,5.06-7,5.06-2.69,0-6.19-1.72-6.25-7.21Zm-19.8-5.16a5.78,5.78,0,0,1,5.7-5.49,5.41,5.41,0,0,1,5.7,5.49Z"/><path class="cls-1" d="M38.61,13.45A30.34,30.34,0,0,0,16.5,22.61,31.77,31.77,0,0,0,7.17,45a30.94,30.94,0,0,0,9.25,22.19A31.16,31.16,0,0,0,38.61,76.5a32,32,0,0,0,22.55-9.41,30.39,30.39,0,0,0,9-22.11A31.26,31.26,0,0,0,38.61,13.45Zm.09,5.7A25.66,25.66,0,0,1,64.44,45,24.65,24.65,0,0,1,57.1,63a26.21,26.21,0,0,1-18.4,7.69,25.45,25.45,0,0,1-18.14-7.6A25.71,25.71,0,0,1,12.87,45a26.07,26.07,0,0,1,7.69-18.31A24.76,24.76,0,0,1,38.7,19.15Z"/><path class="cls-1" d="M38.29,39.74C36.51,36.49,33.47,35.2,30,35.2c-5.14,0-9.22,3.63-9.22,9.78s3.84,9.77,9.39,9.77a9.46,9.46,0,0,0,8.28-4.92l-3.91-2a3.82,3.82,0,0,1-3.88,2.72c-2.9,0-4.22-2.41-4.22-5.58s1.11-5.59,4.22-5.59a4,4,0,0,1,3.49,2.55Z"/><path class="cls-1" d="M56.48,39.74c-1.78-3.25-4.82-4.54-8.35-4.54-5.13,0-9.22,3.63-9.22,9.78s3.85,9.77,9.4,9.77a9.43,9.43,0,0,0,8.27-4.92l-3.91-2a3.81,3.81,0,0,1-3.87,2.72c-2.9,0-4.23-2.41-4.23-5.58s1.12-5.59,4.23-5.59a4,4,0,0,1,3.49,2.55Z"/></g></svg>